ISO-10303-21;
HEADER;
FILE_DESCRIPTION (( 'STEP AP214' ),
    '1' );
FILE_NAME ('ø«ÃÂ÷ß≥≈Õ».STEP',
    '2026-08-05T10:04:41',
    ( '' ),
    ( '' ),
    'SwSTEP 2.0',
    'SolidWorks 2025',
    '' );
FILE_SCHEMA (( 'AUTOMOTIVE_DESIGN' ));
ENDSEC;

DATA;
#1 = ORIENTED_EDGE ( 'NONE', *, *, #409, .T. ) ;
#2 = FACE_OUTER_BOUND ( 'NONE', #119, .T. ) ;
#3 = FACE_OUTER_BOUND ( 'NONE', #147, .T. ) ;
#4 = CARTESIAN_POINT ( 'NONE',  ( -151.4040041357071971, -22.21732536527098034, -0.1423374738529143702 ) ) ;
#5 = ADVANCED_FACE ( 'NONE', ( #130 ), #621, .F. ) ;
#6 = ORIENTED_EDGE ( 'NONE', *, *, #170, .T. ) ;
#7 = CARTESIAN_POINT ( 'NONE',  ( -150.3464518346657997, -24.11734823636938430, -1.950000000000029932 ) ) ;
#8 = EDGE_CURVE ( 'NONE', #743, #709, #200, .T. ) ;
#9 = AXIS2_PLACEMENT_3D ( 'NONE', #917, #246, #730 ) ;
#10 = CARTESIAN_POINT ( 'NONE',  ( -152.0167811435147769, -21.31734823636938003, -0.8000000000000003775 ) ) ;
#11 = ORIENTED_EDGE ( 'NONE', *, *, #28, .T. ) ;
#12 = CARTESIAN_POINT ( 'NONE',  ( -148.1464518346657542, -22.31734823636938003, -0.8000000000000003775 ) ) ;
#13 = VERTEX_POINT ( 'NONE', #722 ) ;
#14 = VECTOR ( 'NONE', #486, 1000.000000000000000 ) ;
#15 = CARTESIAN_POINT ( 'NONE',  ( -150.3464518346657712, -21.31734823636938003, -3.899999999999999023 ) ) ;
#16 = FACE_OUTER_BOUND ( 'NONE', #1152, .T. ) ;
#17 = AXIS2_PLACEMENT_3D ( 'NONE', #554, #919, #72 ) ;
#18 = EDGE_CURVE ( 'NONE', #1175, #1199, #658, .T. ) ;
#19 = CARTESIAN_POINT ( 'NONE',  ( -136.7424441671156217, -24.11734823636938785, -3.899999999999999911 ) ) ;
#20 = VERTEX_POINT ( 'NONE', #1029 ) ;
#21 = CYLINDRICAL_SURFACE ( 'NONE', #546, 1.500000000000003775 ) ;
#22 = ORIENTED_EDGE ( 'NONE', *, *, #607, .F. ) ;
#23 = PLANE ( 'NONE',  #393 ) ;
#24 = LINE ( 'NONE', #597, #831 ) ;
#25 = ORIENTED_EDGE ( 'NONE', *, *, #1053, .T. ) ;
#26 = CARTESIAN_POINT ( 'NONE',  ( -148.1464518346657542, -21.81734823636938003, 0.000000000000000000 ) ) ;
#27 =( BOUNDED_CURVE ( )  B_SPLINE_CURVE ( 3, ( #178, #648, #375, #930 ),
 .UNSPECIFIED., .F., .F. ) 
 B_SPLINE_CURVE_WITH_KNOTS ( ( 4, 4 ),
 ( 1.570796326794899000, 3.141592653589776685 ),
 .UNSPECIFIED. ) 
 CURVE ( )  GEOMETRIC_REPRESENTATION_ITEM ( )  RATIONAL_B_SPLINE_CURVE ( ( 1.000000000000000000, 0.8047378541243693784, 0.8047378541243693784, 1.000000000000000000 ) ) 
 REPRESENTATION_ITEM ( '' )  );
#28 = EDGE_CURVE ( 'NONE', #1068, #452, #757, .T. ) ;
#29 = DIRECTION ( 'NONE',  ( 1.000000000000000000, 0.000000000000000000, -0.000000000000000000 ) ) ;
#30 = CARTESIAN_POINT ( 'NONE',  ( -141.1464518346657542, -23.81734823636938359, -2.299999999999999378 ) ) ;
#31 = ORIENTED_EDGE ( 'NONE', *, *, #783, .T. ) ;
#32 = EDGE_CURVE ( 'NONE', #195, #1175, #168, .T. ) ;
#33 = CARTESIAN_POINT ( 'NONE',  ( -139.6464518346657542, -23.81734823636938359, -3.100000000000000089 ) ) ;
#34 = VECTOR ( 'NONE', #339, 1000.000000000000000 ) ;
#35 = DIRECTION ( 'NONE',  ( 0.000000000000000000, -0.000000000000000000, 1.000000000000000000 ) ) ;
#36 =( GEOMETRIC_REPRESENTATION_CONTEXT ( 3 ) GLOBAL_UNCERTAINTY_ASSIGNED_CONTEXT ( ( #217 ) ) GLOBAL_UNIT_ASSIGNED_CONTEXT ( ( #723, #909, #914 ) ) REPRESENTATION_CONTEXT ( 'NONE', 'WORKASPACE' ) );
#37 = VECTOR ( 'NONE', #472, 1000.000000000000000 ) ;
#38 = CIRCLE ( 'NONE', #502, 0.9000000000001033840 ) ;
#39 = ORIENTED_EDGE ( 'NONE', *, *, #446, .T. ) ;
#40 = DIRECTION ( 'NONE',  ( 0.000000000000000000, 0.000000000000000000, 1.000000000000000000 ) ) ;
#41 = ORIENTED_EDGE ( 'NONE', *, *, #1096, .T. ) ;
#42 = DIRECTION ( 'NONE',  ( 0.000000000000000000, 0.000000000000000000, -1.000000000000000000 ) ) ;
#43 = ORIENTED_EDGE ( 'NONE', *, *, #647, .F. ) ;
#44 = CARTESIAN_POINT ( 'NONE',  ( -148.1464518346657542, -19.51734823636938287, 0.000000000000000000 ) ) ;
#45 = ORIENTED_EDGE ( 'NONE', *, *, #1053, .F. ) ;
#46 = ORIENTED_EDGE ( 'NONE', *, *, #712, .F. ) ;
#47 = APPLICATION_PROTOCOL_DEFINITION ( 'draft international standard', 'automotive_design', 1998, #67 ) ;
#48 = ORIENTED_EDGE ( 'NONE', *, *, #556, .F. ) ;
#49 = DIRECTION ( 'NONE',  ( 0.000000000000000000, -1.000000000000000000, 0.000000000000000000 ) ) ;
#50 = LINE ( 'NONE', #44, #1122 ) ;
#51 = ADVANCED_FACE ( 'NONE', ( #823 ), #1102, .F. ) ;
#52 = CARTESIAN_POINT ( 'NONE',  ( -150.3464518346657712, -22.31734823636938003, -1.899999999999999689 ) ) ;
#53 = LINE ( 'NONE', #599, #1166 ) ;
#54 = EDGE_CURVE ( 'NONE', #817, #902, #1109, .T. ) ;
#55 = EDGE_LOOP ( 'NONE', ( #223, #364, #397, #925 ) ) ;
#56 = CARTESIAN_POINT ( 'NONE',  ( -141.1464518346657542, -23.81734823636938359, -3.100000000000000089 ) ) ;
#57 = CARTESIAN_POINT ( 'NONE',  ( -134.8249821248631406, -20.13866857992903903, -1.039489194463242949 ) ) ;
#58 = AXIS2_PLACEMENT_3D ( 'NONE', #1083, #241, #152 ) ;
#59 = DIRECTION ( 'NONE',  ( 0.000000000000000000, -1.000000000000000000, 0.000000000000000000 ) ) ;
#60 = VERTEX_POINT ( 'NONE', #282 ) ;
#61 = AXIS2_PLACEMENT_3D ( 'NONE', #197, #182, #80 ) ;
#62 = APPLICATION_PROTOCOL_DEFINITION ( 'draft international standard', 'automotive_design', 1998, #1221 ) ;
#63 = ORIENTED_EDGE ( 'NONE', *, *, #8, .F. ) ;
#64 = CIRCLE ( 'NONE', #17, 1.500000000000000000 ) ;
#65 = LINE ( 'NONE', #1089, #613 ) ;
#66 = ORIENTED_EDGE ( 'NONE', *, *, #273, .T. ) ;
#67 = APPLICATION_CONTEXT ( 'automotive_design' ) ;
#68 = ORIENTED_EDGE ( 'NONE', *, *, #704, .F. ) ;
#69 = EDGE_CURVE ( 'NONE', #452, #884, #825, .T. ) ;
#70 = CARTESIAN_POINT ( 'NONE',  ( -139.6464518346657542, -23.81734823636938359, -3.100000000000000089 ) ) ;
#71 = ORIENTED_EDGE ( 'NONE', *, *, #733, .T. ) ;
#72 = DIRECTION ( 'NONE',  ( 0.000000000000000000, 0.000000000000000000, -1.000000000000000000 ) ) ;
#73 = AXIS2_PLACEMENT_3D ( 'NONE', #455, #827, #166 ) ;
#74 = DIRECTION ( 'NONE',  ( 1.000000000000000000, -0.000000000000000000, -0.000000000000000000 ) ) ;
#75 = ORIENTED_EDGE ( 'NONE', *, *, #1111, .T. ) ;
#76 = VECTOR ( 'NONE', #112, 1000.000000000000000 ) ;
#77 = CARTESIAN_POINT ( 'NONE',  ( -141.1464518346657542, -19.51734823636938287, -3.100000000000000089 ) ) ;
#78 = ADVANCED_FACE ( 'NONE', ( #661, #453 ), #353, .T. ) ;
#79 =( GEOMETRIC_REPRESENTATION_CONTEXT ( 3 ) GLOBAL_UNCERTAINTY_ASSIGNED_CONTEXT ( ( #818 ) ) GLOBAL_UNIT_ASSIGNED_CONTEXT ( ( #769, #1132, #866 ) ) REPRESENTATION_CONTEXT ( 'NONE', 'WORKASPACE' ) );
#80 = DIRECTION ( 'NONE',  ( 0.000000000000000000, 0.000000000000000000, -1.000000000000000000 ) ) ;
#81 = ORIENTED_EDGE ( 'NONE', *, *, #1220, .T. ) ;
#82 = CARTESIAN_POINT ( 'NONE',  ( -152.3909570843457857, -21.29618852303734400, -1.655049858155382969 ) ) ;
#83 = DIRECTION ( 'NONE',  ( 2.891205793294675368E-16, 0.000000000000000000, 1.000000000000000000 ) ) ;
#84 = CARTESIAN_POINT ( 'NONE',  ( -150.3464518346657997, -24.11734823636938430, -1.950000000000029932 ) ) ;
#85 = DIRECTION ( 'NONE',  ( -1.000000000000000000, 0.000000000000000000, 0.000000000000000000 ) ) ;
#86 = EDGE_CURVE ( 'NONE', #195, #415, #457, .T. ) ;
#87 = CARTESIAN_POINT ( 'NONE',  ( -141.1464518346657542, -19.81734823636938359, -2.299999999999999378 ) ) ;
#88 = FACE_OUTER_BOUND ( 'NONE', #358, .T. ) ;
#89 = FILL_AREA_STYLE_COLOUR ( '', #240 ) ;
#90 = VECTOR ( 'NONE', #994, 1000.000000000000000 ) ;
#91 = VECTOR ( 'NONE', #490, 1000.000000000000114 ) ;
#92 = FACE_OUTER_BOUND ( 'NONE', #1006, .T. ) ;
#93 = CARTESIAN_POINT ( 'NONE',  ( -137.1443679557623057, -19.51734823636938287, -3.899999999999999911 ) ) ;
#94 = EDGE_LOOP ( 'NONE', ( #127, #1156, #1097, #862 ) ) ;
#95 = CARTESIAN_POINT ( 'NONE',  ( -150.3464518346657712, -20.31734823636938003, -1.899999999999999689 ) ) ;
#96 = DIRECTION ( 'NONE',  ( 0.000000000000000000, 0.000000000000000000, 1.000000000000000000 ) ) ;
#97 = EDGE_CURVE ( 'NONE', #838, #1075, #570, .T. ) ;
#98 = LINE ( 'NONE', #389, #545 ) ;
#99 = CARTESIAN_POINT ( 'NONE',  ( -137.0084621694761324, -19.51734823636938643, -3.899999999999999911 ) ) ;
#100 = VERTEX_POINT ( 'NONE', #468 ) ;
#101 = DIRECTION ( 'NONE',  ( 0.000000000000000000, 0.000000000000000000, -1.000000000000000000 ) ) ;
#102 = ADVANCED_FACE ( 'NONE', ( #265 ), #942, .F. ) ;
#103 = DIRECTION ( 'NONE',  ( 1.000000000000000000, 0.000000000000000000, -2.891205793294675861E-16 ) ) ;
#104 = ADVANCED_BREP_SHAPE_REPRESENTATION ( '\X2\58f34f53652f6491817f\X0\', ( #173, #908 ), #36 ) ;
#105 = CARTESIAN_POINT ( 'NONE',  ( -150.3464518346657712, -22.31734823636938003, -1.899999999999999689 ) ) ;
#106 = ORIENTED_EDGE ( 'NONE', *, *, #589, .T. ) ;
#107 = FACE_BOUND ( 'NONE', #888, .T. ) ;
#108 = ORIENTED_EDGE ( 'NONE', *, *, #409, .F. ) ;
#109 = DIRECTION ( 'NONE',  ( -1.000000000000000000, -0.000000000000000000, -0.000000000000000000 ) ) ;
#110 = DIRECTION ( 'NONE',  ( -0.000000000000000000, -0.000000000000000000, -1.000000000000000000 ) ) ;
#111 = AXIS2_PLACEMENT_3D ( 'NONE', #408, #1058, #980 ) ;
#112 = DIRECTION ( 'NONE',  ( -0.2588190451025186301, 0.000000000000000000, -0.9659258262890688673 ) ) ;
#113 = ORIENTED_EDGE ( 'NONE', *, *, #826, .T. ) ;
#114 = DIRECTION ( 'NONE',  ( 1.000000000000000000, 0.000000000000000000, 0.000000000000000000 ) ) ;
#115 = VECTOR ( 'NONE', #471, 1000.000000000000000 ) ;
#116 = ORIENTED_EDGE ( 'NONE', *, *, #354, .F. ) ;
#117 = VECTOR ( 'NONE', #611, 1000.000000000000000 ) ;
#118 = CARTESIAN_POINT ( 'NONE',  ( -150.9709516345056102, -20.31734823636938003, 1.517883041479706208E-15 ) ) ;
#119 = EDGE_LOOP ( 'NONE', ( #988, #828, #778, #249 ) ) ;
#120 = ADVANCED_FACE ( 'NONE', ( #732 ), #640, .T. ) ;
#121 = DIRECTION ( 'NONE',  ( -0.000000000000000000, -0.000000000000000000, 1.000000000000000000 ) ) ;
#122 = ORIENTED_EDGE ( 'NONE', *, *, #271, .F. ) ;
#123 = DIRECTION ( 'NONE',  ( -0.2588190451025186856, 0.000000000000000000, -0.9659258262890688673 ) ) ;
#124 = CARTESIAN_POINT ( 'NONE',  ( -141.1464518346657542, -19.81734823636938359, -3.100000000000000089 ) ) ;
#125 = EDGE_CURVE ( 'NONE', #830, #817, #64, .T. ) ;
#126 = CARTESIAN_POINT ( 'NONE',  ( -136.5012898939276340, -19.51734823636938287, -1.500000000000000000 ) ) ;
#127 = ORIENTED_EDGE ( 'NONE', *, *, #929, .F. ) ;
#128 = LINE ( 'NONE', #315, #1218 ) ;
#129 = DIRECTION ( 'NONE',  ( 0.000000000000000000, 0.000000000000000000, -1.000000000000000000 ) ) ;
#130 = FACE_OUTER_BOUND ( 'NONE', #700, .T. ) ;
#131 = LINE ( 'NONE', #1060, #293 ) ;
#132 = ORIENTED_EDGE ( 'NONE', *, *, #424, .T. ) ;
#133 = DIRECTION ( 'NONE',  ( 0.2588190451025186301, 0.000000000000000000, 0.9659258262890688673 ) ) ;
#134 = ORIENTED_EDGE ( 'NONE', *, *, #820, .F. ) ;
#135 = VECTOR ( 'NONE', #1054, 1000.000000000000000 ) ;
#136 = LINE ( 'NONE', #325, #653 ) ;
#137 = AXIS2_PLACEMENT_3D ( 'NONE', #1087, #538, #742 ) ;
#138 = EDGE_LOOP ( 'NONE', ( #25, #1100, #320, #616, #39 ) ) ;
#139 = EDGE_CURVE ( 'NONE', #1135, #419, #277, .T. ) ;
#140 = LINE ( 'NONE', #30, #237 ) ;
#141 = EDGE_LOOP ( 'NONE', ( #11, #969, #834, #629, #691, #163 ) ) ;
#142 = DIRECTION ( 'NONE',  ( 0.000000000000000000, 0.000000000000000000, 1.000000000000000000 ) ) ;
#143 = ADVANCED_FACE ( 'NONE', ( #739 ), #923, .T. ) ;
#144 = PLANE ( 'NONE',  #1185 ) ;
#145 = CARTESIAN_POINT ( 'NONE',  ( -152.3464518346657712, -21.30165308057717866, 0.000000000000000000 ) ) ;
#146 = EDGE_CURVE ( 'NONE', #411, #975, #1212, .T. ) ;
#147 = EDGE_LOOP ( 'NONE', ( #174, #727 ) ) ;
#148 = VERTEX_POINT ( 'NONE', #372 ) ;
#149 = VERTEX_POINT ( 'NONE', #748 ) ;
#150 = CYLINDRICAL_SURFACE ( 'NONE', #696, 0.9000000000001372458 ) ;
#151 = DIRECTION ( 'NONE',  ( -0.000000000000000000, -0.000000000000000000, -1.000000000000000000 ) ) ;
#152 = DIRECTION ( 'NONE',  ( 0.000000000000000000, 0.000000000000000000, -1.000000000000000000 ) ) ;
#153 = ORIENTED_EDGE ( 'NONE', *, *, #430, .T. ) ;
#154 = DIRECTION ( 'NONE',  ( 0.000000000000000000, 0.000000000000000000, 1.000000000000000000 ) ) ;
#155 = ORIENTED_EDGE ( 'NONE', *, *, #1093, .F. ) ;
#156 = AXIS2_PLACEMENT_3D ( 'NONE', #1099, #534, #726 ) ;
#157 = LINE ( 'NONE', #145, #1163 ) ;
#158 = VERTEX_POINT ( 'NONE', #1121 ) ;
#159 = VECTOR ( 'NONE', #229, 1000.000000000000000 ) ;
#160 = VERTEX_POINT ( 'NONE', #849 ) ;
#161 = ADVANCED_FACE ( 'NONE', ( #16 ), #198, .T. ) ;
#162 = FACE_OUTER_BOUND ( 'NONE', #598, .T. ) ;
#163 = ORIENTED_EDGE ( 'NONE', *, *, #381, .T. ) ;
#164 = DIRECTION ( 'NONE',  ( -1.000000000000000000, 0.000000000000000000, -0.000000000000000000 ) ) ;
#165 = EDGE_CURVE ( 'NONE', #915, #1179, #292, .T. ) ;
#166 = DIRECTION ( 'NONE',  ( 0.9925461516413227603, 0.1218693434051405650, 0.000000000000000000 ) ) ;
#167 = ORIENTED_EDGE ( 'NONE', *, *, #54, .F. ) ;
#168 = LINE ( 'NONE', #175, #642 ) ;
#169 = ORIENTED_EDGE ( 'NONE', *, *, #432, .F. ) ;
#170 = EDGE_CURVE ( 'NONE', #906, #149, #387, .T. ) ;
#171 = AXIS2_PLACEMENT_3D ( 'NONE', #737, #816, #557 ) ;
#172 = CARTESIAN_POINT ( 'NONE',  ( -150.3464518346657712, -23.31734823636938359, -1.949999999999999956 ) ) ;
#173 = MANIFOLD_SOLID_BREP ( '\X2\570689d2\X0\1', #510 ) ;
#174 = ORIENTED_EDGE ( 'NONE', *, *, #69, .T. ) ;
#175 = CARTESIAN_POINT ( 'NONE',  ( -148.1464518346657542, -20.31734823636937648, -3.899999999999999911 ) ) ;
#176 = AXIS2_PLACEMENT_3D ( 'NONE', #784, #664, #573 ) ;
#177 = DIRECTION ( 'NONE',  ( 0.000000000000000000, -1.000000000000000000, 0.000000000000000000 ) ) ;
#178 = CARTESIAN_POINT ( 'NONE',  ( -135.0524011544939924, -22.61734823636938430, -1.888228567653782441 ) ) ;
#179 = DIRECTION ( 'NONE',  ( 0.9659258262890688673, 0.000000000000000000, -0.2588190451025186301 ) ) ;
#180 = EDGE_CURVE ( 'NONE', #20, #906, #965, .T. ) ;
#181 = CARTESIAN_POINT ( 'NONE',  ( -150.9709516345056102, -20.31734823636938003, 1.517883041479706208E-15 ) ) ;
#182 = DIRECTION ( 'NONE',  ( 0.000000000000000000, -1.000000000000000000, 0.000000000000000000 ) ) ;
#183 = DIRECTION ( 'NONE',  ( 0.000000000000000000, 1.000000000000000000, 0.000000000000000000 ) ) ;
#184 = CARTESIAN_POINT ( 'NONE',  ( -148.1464518346657542, -23.31734823636938359, 0.000000000000000000 ) ) ;
#185 = CARTESIAN_POINT ( 'NONE',  ( -152.0167811435147769, -22.29256492110602039, -0.8000000000000003775 ) ) ;
#186 = ORIENTED_EDGE ( 'NONE', *, *, #671, .F. ) ;
#187 = PLANE ( 'NONE',  #462 ) ;
#188 = CIRCLE ( 'NONE', #694, 1.500000000000000000 ) ;
#189 = EDGE_CURVE ( 'NONE', #561, #1061, #1059, .T. ) ;
#190 = VECTOR ( 'NONE', #386, 1000.000000000000000 ) ;
#191 = DIRECTION ( 'NONE',  ( -1.000000000000000000, 0.000000000000000000, -0.000000000000000000 ) ) ;
#192 =( BOUNDED_CURVE ( )  B_SPLINE_CURVE ( 3, ( #777, #313, #697, #1067 ),
 .UNSPECIFIED., .F., .F. ) 
 B_SPLINE_CURVE_WITH_KNOTS ( ( 4, 4 ),
 ( 5.923724430732375978, 6.642646183626796486 ),
 .UNSPECIFIED. ) 
 CURVE ( )  GEOMETRIC_REPRESENTATION_ITEM ( )  RATIONAL_B_SPLINE_CURVE ( ( 1.000000000000000000, 0.9573910713291758912, 0.9573910713291758912, 1.000000000000000000 ) ) 
 REPRESENTATION_ITEM ( '' )  );
#193 = DIRECTION ( 'NONE',  ( -0.9659258262890688673, 0.000000000000000000, 0.2588190451025181305 ) ) ;
#194 = EDGE_CURVE ( 'NONE', #981, #824, #949, .T. ) ;
#195 = VERTEX_POINT ( 'NONE', #854 ) ;
#196 = VECTOR ( 'NONE', #1014, 1000.000000000000000 ) ;
#197 = CARTESIAN_POINT ( 'NONE',  ( -150.3464518346657712, -23.31734823636938359, -1.949999999999999956 ) ) ;
#198 = CYLINDRICAL_SURFACE ( 'NONE', #1024, 0.9000000000001372458 ) ;
#199 = DIRECTION ( 'NONE',  ( -0.000000000000000000, -1.000000000000000000, -0.000000000000000000 ) ) ;
#200 = CIRCLE ( 'NONE', #776, 0.9000000000001374678 ) ;
#201 = LINE ( 'NONE', #761, #1189 ) ;
#202 = EDGE_LOOP ( 'NONE', ( #153, #548 ) ) ;
#203 = EDGE_CURVE ( 'NONE', #516, #160, #1052, .T. ) ;
#204 = CARTESIAN_POINT ( 'NONE',  ( -139.6464518346657542, -24.11734823636938785, -2.299999999999999822 ) ) ;
#205 = SURFACE_SIDE_STYLE ('',( #382 ) ) ;
#206 = DIRECTION ( 'NONE',  ( 0.000000000000000000, 0.000000000000000000, 1.000000000000000000 ) ) ;
#207 = ORIENTED_EDGE ( 'NONE', *, *, #8, .T. ) ;
#208 = PLANE ( 'NONE',  #791 ) ;
#209 = EDGE_LOOP ( 'NONE', ( #290, #1084, #1196, #582 ) ) ;
#210 = LINE ( 'NONE', #882, #714 ) ;
#211 = VECTOR ( 'NONE', #199, 1000.000000000000000 ) ;
#212 = DIRECTION ( 'NONE',  ( 0.000000000000000000, 1.000000000000000000, 0.000000000000000000 ) ) ;
#213 = VERTEX_POINT ( 'NONE', #858 ) ;
#214 = CARTESIAN_POINT ( 'NONE',  ( -150.9709516345056102, -22.16415320406303735, 0.000000000000000000 ) ) ;
#215 = VECTOR ( 'NONE', #110, 1000.000000000000000 ) ;
#216 = DIRECTION ( 'NONE',  ( -0.000000000000000000, 1.000000000000000000, -0.000000000000000000 ) ) ;
#217 = UNCERTAINTY_MEASURE_WITH_UNIT (LENGTH_MEASURE( 1.000000000000000082E-05 ), #723, 'distance_accuracy_value', 'NONE');
#218 = ADVANCED_FACE ( 'NONE', ( #394 ), #1147, .F. ) ;
#219 = LINE ( 'NONE', #19, #135 ) ;
#220 = EDGE_CURVE ( 'NONE', #957, #13, #53, .T. ) ;
#221 = VERTEX_POINT ( 'NONE', #26 ) ;
#222 = DIRECTION ( 'NONE',  ( 0.2588190451025186301, -0.000000000000000000, 0.9659258262890688673 ) ) ;
#223 = ORIENTED_EDGE ( 'NONE', *, *, #718, .F. ) ;
#224 = CARTESIAN_POINT ( 'NONE',  ( -144.0233462090480998, -21.31734823636938003, -4.800000000000000711 ) ) ;
#225 = ORIENTED_EDGE ( 'NONE', *, *, #446, .F. ) ;
#226 = ADVANCED_FACE ( 'NONE', ( #1056 ), #675, .T. ) ;
#227 = LINE ( 'NONE', #1174, #846 ) ;
#228 = ORIENTED_EDGE ( 'NONE', *, *, #718, .T. ) ;
#229 = DIRECTION ( 'NONE',  ( -0.000000000000000000, 1.000000000000000000, -0.000000000000000000 ) ) ;
#230 = CARTESIAN_POINT ( 'NONE',  ( -139.6464518346657542, -19.81734823636938359, -2.299999999999999822 ) ) ;
#231 = EDGE_CURVE ( 'NONE', #506, #1173, #361, .T. ) ;
#232 = ORIENTED_EDGE ( 'NONE', *, *, #327, .T. ) ;
#233 = DIRECTION ( 'NONE',  ( -0.2588190451025186856, 0.000000000000000000, -0.9659258262890688673 ) ) ;
#234 = ORIENTED_EDGE ( 'NONE', *, *, #220, .T. ) ;
#235 = PLANE ( 'NONE',  #847 ) ;
#236 = VECTOR ( 'NONE', #632, 1000.000000000000000 ) ;
#237 = VECTOR ( 'NONE', #504, 1000.000000000000000 ) ;
#238 = ADVANCED_FACE ( 'NONE', ( #692 ), #1162, .F. ) ;
#239 = LINE ( 'NONE', #725, #1063 ) ;
#240 = COLOUR_RGB ( '',0.7921568627450980005, 0.8196078431372548767, 0.9333333333333333481 ) ;
#241 = DIRECTION ( 'NONE',  ( 0.000000000000000000, -1.000000000000000000, 0.000000000000000000 ) ) ;
#242 = ORIENTED_EDGE ( 'NONE', *, *, #464, .T. ) ;
#243 = ORIENTED_EDGE ( 'NONE', *, *, #369, .T. ) ;
#244 = CARTESIAN_POINT ( 'NONE',  ( -150.3464518346657712, -22.31734823636938003, -3.899999999999999023 ) ) ;
#245 = FACE_BOUND ( 'NONE', #94, .T. ) ;
#246 = DIRECTION ( 'NONE',  ( 0.000000000000000000, -1.000000000000000000, 0.000000000000000000 ) ) ;
#247 = ORIENTED_EDGE ( 'NONE', *, *, #1151, .F. ) ;
#248 = CARTESIAN_POINT ( 'NONE',  ( -148.1464518346657542, -21.81734823636938003, 0.000000000000000000 ) ) ;
#249 = ORIENTED_EDGE ( 'NONE', *, *, #676, .T. ) ;
#250 = CARTESIAN_POINT ( 'NONE',  ( -135.0524011544939924, -21.01734823636938287, -1.888228567653783774 ) ) ;
#251 = CARTESIAN_POINT ( 'NONE',  ( -0.000000000000000000, -22.31734823636938003, -3.899999999999999911 ) ) ;
#252 = VERTEX_POINT ( 'NONE', #12 ) ;
#253 = ADVANCED_FACE ( 'NONE', ( #309 ), #21, .T. ) ;
#254 = ORIENTED_EDGE ( 'NONE', *, *, #1193, .T. ) ;
#255 = CIRCLE ( 'NONE', #171, 1.999999999999999112 ) ;
#256 = ADVANCED_FACE ( 'NONE', ( #1062 ), #870, .F. ) ;
#257 = DIRECTION ( 'NONE',  ( 0.000000000000000000, 0.000000000000000000, 1.000000000000000000 ) ) ;
#258 = EDGE_LOOP ( 'NONE', ( #167, #978, #1023, #819, #46, #593 ) ) ;
#259 = AXIS2_PLACEMENT_3D ( 'NONE', #881, #706, #1171 ) ;
#260 = EDGE_CURVE ( 'NONE', #1073, #892, #201, .T. ) ;
#261 = CARTESIAN_POINT ( 'NONE',  ( -148.1464518346657542, -23.31734823636938359, -3.899999999999999911 ) ) ;
#262 = CARTESIAN_POINT ( 'NONE',  ( -136.5012898939276340, -19.51734823636938287, 0.000000000000000000 ) ) ;
#263 = AXIS2_PLACEMENT_3D ( 'NONE', #535, #707, #899 ) ;
#264 = ORIENTED_EDGE ( 'NONE', *, *, #32, .F. ) ;
#265 = FACE_OUTER_BOUND ( 'NONE', #740, .T. ) ;
#266 = EDGE_LOOP ( 'NONE', ( #782, #524, #186, #537 ) ) ;
#267 = CARTESIAN_POINT ( 'NONE',  ( -141.1464518346657542, -23.81734823636938359, -2.299999999999999378 ) ) ;
#268 = ORIENTED_EDGE ( 'NONE', *, *, #1220, .F. ) ;
#269 = CARTESIAN_POINT ( 'NONE',  ( -148.1464518346657542, -21.31734823636938003, -4.800000000000000711 ) ) ;
#270 = ORIENTED_EDGE ( 'NONE', *, *, #165, .T. ) ;
#271 = EDGE_CURVE ( 'NONE', #158, #160, #487, .T. ) ;
#272 = FACE_OUTER_BOUND ( 'NONE', #1050, .T. ) ;
#273 = EDGE_CURVE ( 'NONE', #738, #506, #875, .T. ) ;
#274 = VECTOR ( 'NONE', #701, 1000.000000000000000 ) ;
#275 = DIRECTION ( 'NONE',  ( 0.000000000000000000, -1.000000000000000000, 0.000000000000000000 ) ) ;
#276 = ORIENTED_EDGE ( 'NONE', *, *, #1106, .T. ) ;
#277 = LINE ( 'NONE', #77, #37 ) ;
#278 = VECTOR ( 'NONE', #435, 1000.000000000000000 ) ;
#279 = VECTOR ( 'NONE', #109, 1000.000000000000000 ) ;
#280 = CARTESIAN_POINT ( 'NONE',  ( -141.1464518346657542, -24.11734823636938785, -2.299999999999999378 ) ) ;
#281 = DIRECTION ( 'NONE',  ( 2.891205793294675368E-16, -0.000000000000000000, 1.000000000000000000 ) ) ;
#282 = CARTESIAN_POINT ( 'NONE',  ( -141.1464518346657542, -23.81734823636938359, -3.100000000000000089 ) ) ;
#283 = DIRECTION ( 'NONE',  ( -0.000000000000000000, -1.000000000000000000, -0.000000000000000000 ) ) ;
#284 =( BOUNDED_CURVE ( )  B_SPLINE_CURVE ( 3, ( #1094, #711, #57, #250 ),
 .UNSPECIFIED., .F., .F. ) 
 B_SPLINE_CURVE_WITH_KNOTS ( ( 4, 4 ),
 ( 1.658829323902818629E-14, 1.570796326794894782 ),
 .UNSPECIFIED. ) 
 CURVE ( )  GEOMETRIC_REPRESENTATION_ITEM ( )  RATIONAL_B_SPLINE_CURVE ( ( 1.000000000000000000, 0.8047378541243693784, 0.8047378541243693784, 1.000000000000000000 ) ) 
 REPRESENTATION_ITEM ( '' )  );
#285 = ORIENTED_EDGE ( 'NONE', *, *, #622, .T. ) ;
#286 = CARTESIAN_POINT ( 'NONE',  ( -148.1464518346657542, -21.81734823636938003, -0.8000000000000003775 ) ) ;
#287 = EDGE_CURVE ( 'NONE', #1061, #335, #497, .T. ) ;
#288 = DIRECTION ( 'NONE',  ( -1.000000000000000000, 0.000000000000000000, -0.000000000000000000 ) ) ;
#289 = CARTESIAN_POINT ( 'NONE',  ( -137.1443679557623057, -24.11734823636938785, -3.899999999999999911 ) ) ;
#290 = ORIENTED_EDGE ( 'NONE', *, *, #1206, .T. ) ;
#291 = CARTESIAN_POINT ( 'NONE',  ( -141.1464518346657542, -19.51734823636938287, -3.100000000000000089 ) ) ;
#292 = LINE ( 'NONE', #401, #972 ) ;
#293 = VECTOR ( 'NONE', #873, 1000.000000000000000 ) ;
#294 = EDGE_CURVE ( 'NONE', #160, #1068, #1157, .T. ) ;
#295 = LINE ( 'NONE', #181, #751 ) ;
#296 = DIRECTION ( 'NONE',  ( 0.000000000000000000, -0.000000000000000000, 1.000000000000000000 ) ) ;
#297 = EDGE_LOOP ( 'NONE', ( #488, #808 ) ) ;
#298 = DIRECTION ( 'NONE',  ( 0.000000000000000000, -1.000000000000000000, 0.000000000000000000 ) ) ;
#299 = CARTESIAN_POINT ( 'NONE',  ( -139.6464518346657542, -23.81734823636938359, -3.100000000000000089 ) ) ;
#300 = CARTESIAN_POINT ( 'NONE',  ( -150.3464518346657712, -19.51734823636938287, -1.949999999999999956 ) ) ;
#301 = AXIS2_PLACEMENT_3D ( 'NONE', #645, #179, #1200 ) ;
#302 = ORIENTED_EDGE ( 'NONE', *, *, #422, .T. ) ;
#303 = CARTESIAN_POINT ( 'NONE',  ( -137.8813678283651996, -22.61734823636938430, -6.650520969725848275 ) ) ;
#304 = ORIENTED_EDGE ( 'NONE', *, *, #498, .F. ) ;
#305 = LINE ( 'NONE', #118, #810 ) ;
#306 = CARTESIAN_POINT ( 'NONE',  ( -150.3464518346657712, -16.17176382409753188, -1.949999999999999956 ) ) ;
#307 = DIRECTION ( 'NONE',  ( 0.000000000000000000, 0.000000000000000000, 1.000000000000000000 ) ) ;
#308 = ORIENTED_EDGE ( 'NONE', *, *, #354, .T. ) ;
#309 = FACE_OUTER_BOUND ( 'NONE', #399, .T. ) ;
#310 = VERTEX_POINT ( 'NONE', #289 ) ;
#311 = DIRECTION ( 'NONE',  ( 0.000000000000000000, 0.000000000000000000, 1.000000000000000000 ) ) ;
#312 = CIRCLE ( 'NONE', #1005, 0.9000000000001374678 ) ;
#313 = CARTESIAN_POINT ( 'NONE',  ( -152.3909570843457004, -22.33850794970136988, -2.144950141844364389 ) ) ;
#314 = ORIENTED_EDGE ( 'NONE', *, *, #1039, .T. ) ;
#315 = CARTESIAN_POINT ( 'NONE',  ( -141.1464518346657542, -19.51734823636938287, -2.299999999999999378 ) ) ;
#316 = VECTOR ( 'NONE', #49, 1000.000000000000000 ) ;
#317 = CARTESIAN_POINT ( 'NONE',  ( -139.6464518346657542, -19.81734823636938359, -3.100000000000000089 ) ) ;
#318 = VECTOR ( 'NONE', #1128, 1000.000000000000000 ) ;
#319 = ADVANCED_FACE ( 'NONE', ( #384 ), #961, .T. ) ;
#320 = ORIENTED_EDGE ( 'NONE', *, *, #327, .F. ) ;
#321 = CARTESIAN_POINT ( 'NONE',  ( -150.3464518346657712, -23.31734823636938359, -2.850000000000137312 ) ) ;
#322 = ORIENTED_EDGE ( 'NONE', *, *, #543, .T. ) ;
#323 = CARTESIAN_POINT ( 'NONE',  ( -148.1464518346657542, -19.51734823636938287, -3.899999999999999911 ) ) ;
#324 = ADVANCED_FACE ( 'NONE', ( #107, #412 ), #208, .T. ) ;
#325 = CARTESIAN_POINT ( 'NONE',  ( -0.000000000000000000, -21.31734823636938003, -3.899999999999999911 ) ) ;
#326 = ORIENTED_EDGE ( 'NONE', *, *, #900, .F. ) ;
#327 = EDGE_CURVE ( 'NONE', #13, #817, #592, .T. ) ;
#328 = CARTESIAN_POINT ( 'NONE',  ( -137.1443679557623057, -19.51734823636938287, -3.899999999999999911 ) ) ;
#329 = ORIENTED_EDGE ( 'NONE', *, *, #662, .F. ) ;
#330 = DIRECTION ( 'NONE',  ( 0.000000000000000000, -1.000000000000000000, 0.000000000000000000 ) ) ;
#331 = CARTESIAN_POINT ( 'NONE',  ( -150.3464518346657712, -19.51734823636938287, -1.049999999999862377 ) ) ;
#332 = ORIENTED_EDGE ( 'NONE', *, *, #260, .T. ) ;
#333 = EDGE_CURVE ( 'NONE', #729, #350, #507, .T. ) ;
#334 = SHAPE_DEFINITION_REPRESENTATION ( #689, #104 ) ;
#335 = VERTEX_POINT ( 'NONE', #604 ) ;
#336 = CARTESIAN_POINT ( 'NONE',  ( -134.5464518346657883, -21.01734823636938287, -1.011574398348115708E-16 ) ) ;
#337 = CIRCLE ( 'NONE', #883, 1.999999999999999112 ) ;
#338 = EDGE_CURVE ( 'NONE', #213, #149, #617, .T. ) ;
#339 = DIRECTION ( 'NONE',  ( 0.2588190451025186301, 0.000000000000000000, 0.9659258262890688673 ) ) ;
#340 = VECTOR ( 'NONE', #114, 1000.000000000000000 ) ;
#341 = LINE ( 'NONE', #1003, #945 ) ;
#342 = ORIENTED_EDGE ( 'NONE', *, *, #596, .F. ) ;
#343 = VERTEX_POINT ( 'NONE', #244 ) ;
#344 = ORIENTED_EDGE ( 'NONE', *, *, #139, .T. ) ;
#345 = DIRECTION ( 'NONE',  ( 0.000000000000000000, -0.000000000000000000, -1.000000000000000000 ) ) ;
#346 = EDGE_CURVE ( 'NONE', #915, #148, #420, .T. ) ;
#347 = PLANE ( 'NONE',  #156 ) ;
#348 = ORIENTED_EDGE ( 'NONE', *, *, #662, .T. ) ;
#349 = LINE ( 'NONE', #248, #1103 ) ;
#350 = VERTEX_POINT ( 'NONE', #428 ) ;
#351 = LINE ( 'NONE', #438, #499 ) ;
#352 = ORIENTED_EDGE ( 'NONE', *, *, #601, .T. ) ;
#353 = PLANE ( 'NONE',  #1125 ) ;
#354 = EDGE_CURVE ( 'NONE', #148, #355, #128, .T. ) ;
#355 = VERTEX_POINT ( 'NONE', #716 ) ;
#356 = VECTOR ( 'NONE', #59, 1000.000000000000000 ) ;
#357 = CARTESIAN_POINT ( 'NONE',  ( -150.3464518346657712, -19.51734823636938287, -2.850000000000137312 ) ) ;
#358 = EDGE_LOOP ( 'NONE', ( #677, #934, #1086, #492, #991, #668, #1013, #609 ) ) ;
#359 = AXIS2_PLACEMENT_3D ( 'NONE', #267, #281, #466 ) ;
#360 = CARTESIAN_POINT ( 'NONE',  ( -148.1464518346657542, -19.51734823636938287, -3.899999999999999911 ) ) ;
#361 =( BOUNDED_CURVE ( )  B_SPLINE_CURVE ( 3, ( #185, #390, #4, #214 ),
 .UNSPECIFIED., .F., .T. ) 
 B_SPLINE_CURVE_WITH_KNOTS ( ( 4, 4 ),
 ( 0.5823642378687464705, 1.253235897503378382 ),
 .UNSPECIFIED. ) 
 CURVE ( )  GEOMETRIC_REPRESENTATION_ITEM ( )  RATIONAL_B_SPLINE_CURVE ( ( 1.000000000000000000, 0.9628446216904569255, 0.9628446216904569255, 1.000000000000000000 ) ) 
 REPRESENTATION_ITEM ( '' )  );
#362 = EDGE_LOOP ( 'NONE', ( #66, #731, #71, #106 ) ) ;
#363 = CYLINDRICAL_SURFACE ( 'NONE', #58, 1.500000000000000000 ) ;
#364 = ORIENTED_EDGE ( 'NONE', *, *, #900, .T. ) ;
#365 = DIRECTION ( 'NONE',  ( 0.000000000000000000, 0.000000000000000000, 1.000000000000000000 ) ) ;
#366 = ORIENTED_EDGE ( 'NONE', *, *, #556, .T. ) ;
#367 = ADVANCED_FACE ( 'NONE', ( #517 ), #624, .F. ) ;
#368 = CYLINDRICAL_SURFACE ( 'NONE', #863, 0.9000000000001372458 ) ;
#369 = EDGE_CURVE ( 'NONE', #1061, #836, #794, .T. ) ;
#370 = DIRECTION ( 'NONE',  ( 0.000000000000000000, 0.000000000000000000, -1.000000000000000000 ) ) ;
#371 = ORIENTED_EDGE ( 'NONE', *, *, #424, .F. ) ;
#372 = CARTESIAN_POINT ( 'NONE',  ( -141.1464518346657542, -19.51734823636938287, -2.299999999999999378 ) ) ;
#373 = DIRECTION ( 'NONE',  ( -0.000000000000000000, 1.000000000000000000, -0.000000000000000000 ) ) ;
#374 = VECTOR ( 'NONE', #311, 1000.000000000000000 ) ;
#375 = CARTESIAN_POINT ( 'NONE',  ( -135.2643219530833107, -24.11734823636936653, -0.2785302901973197853 ) ) ;
#376 = CARTESIAN_POINT ( 'NONE',  ( -147.1014499841843985, -20.31734823636937648, 0.000000000000000000 ) ) ;
#377 = AXIS2_PLACEMENT_3D ( 'NONE', #299, #680, #500 ) ;
#378 = PLANE ( 'NONE',  #1042 ) ;
#379 = ORIENTED_EDGE ( 'NONE', *, *, #574, .T. ) ;
#380 = CARTESIAN_POINT ( 'NONE',  ( -148.1464518346657542, 0.000000000000000000, -3.899999999999999911 ) ) ;
#381 = EDGE_CURVE ( 'NONE', #975, #1068, #998, .T. ) ;
#382 = SURFACE_STYLE_FILL_AREA ( #477 ) ;
#383 = CARTESIAN_POINT ( 'NONE',  ( -152.3464518346657712, -21.30165308057717866, -3.899999999999999911 ) ) ;
#384 = FACE_OUTER_BOUND ( 'NONE', #962, .T. ) ;
#385 = ORIENTED_EDGE ( 'NONE', *, *, #916, .T. ) ;
#386 = DIRECTION ( 'NONE',  ( 0.000000000000000000, -1.000000000000000000, 0.000000000000000000 ) ) ;
#387 = LINE ( 'NONE', #775, #478 ) ;
#388 = ADVANCED_FACE ( 'NONE', ( #699 ), #1069, .F. ) ;
#389 = CARTESIAN_POINT ( 'NONE',  ( -147.1014499841843985, -23.31734823636938714, 0.000000000000000000 ) ) ;
#390 = CARTESIAN_POINT ( 'NONE',  ( -151.7660665375560143, -22.26178103830142163, -0.4192945868276761190 ) ) ;
#391 = ORIENTED_EDGE ( 'NONE', *, *, #1093, .T. ) ;
#392 = LINE ( 'NONE', #204, #657 ) ;
#393 = AXIS2_PLACEMENT_3D ( 'NONE', #1164, #29, #1076 ) ;
#394 = FACE_OUTER_BOUND ( 'NONE', #454, .T. ) ;
#395 = AXIS2_PLACEMENT_3D ( 'NONE', #1134, #667, #296 ) ;
#396 = DIRECTION ( 'NONE',  ( 0.000000000000000000, 0.000000000000000000, -1.000000000000000000 ) ) ;
#397 = ORIENTED_EDGE ( 'NONE', *, *, #32, .T. ) ;
#398 = DIRECTION ( 'NONE',  ( 0.000000000000000000, -0.000000000000000000, 1.000000000000000000 ) ) ;
#399 = EDGE_LOOP ( 'NONE', ( #45, #1197, #1010, #1090, #603 ) ) ;
#400 = DIRECTION ( 'NONE',  ( 0.000000000000000000, 1.000000000000000000, 0.000000000000000000 ) ) ;
#401 = CARTESIAN_POINT ( 'NONE',  ( -141.1464518346657542, -19.81734823636938359, -2.299999999999999378 ) ) ;
#402 = ADVANCED_FACE ( 'NONE', ( #610 ), #150, .T. ) ;
#403 = DIRECTION ( 'NONE',  ( 0.2588190451025186301, 0.000000000000000000, 0.9659258262890688673 ) ) ;
#404 = ORIENTED_EDGE ( 'NONE', *, *, #1118, .T. ) ;
#405 = DIRECTION ( 'NONE',  ( 0.000000000000000000, -1.000000000000000000, 0.000000000000000000 ) ) ;
#406 = ADVANCED_FACE ( 'NONE', ( #889 ), #235, .F. ) ;
#407 = VERTEX_POINT ( 'NONE', #532 ) ;
#408 = CARTESIAN_POINT ( 'NONE',  ( -139.6464518346657542, -23.81734823636938359, -2.299999999999999822 ) ) ;
#409 = EDGE_CURVE ( 'NONE', #975, #516, #896, .T. ) ;
#410 = LINE ( 'NONE', #990, #614 ) ;
#411 = VERTEX_POINT ( 'NONE', #806 ) ;
#412 = FACE_OUTER_BOUND ( 'NONE', #1182, .T. ) ;
#413 = DIRECTION ( 'NONE',  ( 0.000000000000000000, 1.000000000000000000, 0.000000000000000000 ) ) ;
#414 =( BOUNDED_CURVE ( )  B_SPLINE_CURVE ( 3, ( #804, #1181, #728, #894 ),
 .UNSPECIFIED., .F., .F. ) 
 B_SPLINE_CURVE_WITH_KNOTS ( ( 4, 4 ),
 ( 4.712388980384691450, 6.021385919380439766 ),
 .UNSPECIFIED. ) 
 CURVE ( )  GEOMETRIC_REPRESENTATION_ITEM ( )  RATIONAL_B_SPLINE_CURVE ( ( 1.000000000000000000, 0.8622355601941565917, 0.8622355601941565917, 1.000000000000000000 ) ) 
 REPRESENTATION_ITEM ( '' )  );
#415 = VERTEX_POINT ( 'NONE', #1183 ) ;
#416 = VECTOR ( 'NONE', #1169, 1000.000000000000000 ) ;
#417 = EDGE_CURVE ( 'NONE', #1079, #100, #989, .T. ) ;
#418 = LINE ( 'NONE', #792, #1140 ) ;
#419 = VERTEX_POINT ( 'NONE', #291 ) ;
#420 = LINE ( 'NONE', #979, #159 ) ;
#421 = CIRCLE ( 'NONE', #1105, 1.999999999999999112 ) ;
#422 = EDGE_CURVE ( 'NONE', #838, #1073, #503, .T. ) ;
#423 = CARTESIAN_POINT ( 'NONE',  ( -136.1130613262738223, -19.51734823636938287, -0.05111126056640173665 ) ) ;
#424 = EDGE_CURVE ( 'NONE', #1028, #415, #421, .T. ) ;
#425 = EDGE_LOOP ( 'NONE', ( #983, #108, #544, #1001, #329 ) ) ;
#426 = CARTESIAN_POINT ( 'NONE',  ( -135.9953405740994015, -21.01734823636938287, 0.3882285676537780561 ) ) ;
#427 = ORIENTED_EDGE ( 'NONE', *, *, #86, .F. ) ;
#428 = CARTESIAN_POINT ( 'NONE',  ( -135.0524011544939924, -21.01734823636938287, -1.888228567653783774 ) ) ;
#429 = CARTESIAN_POINT ( 'NONE',  ( -148.1464518346657542, -20.31734823636937648, -3.899999999999999911 ) ) ;
#430 = EDGE_CURVE ( 'NONE', #892, #1075, #38, .T. ) ;
#431 = ORIENTED_EDGE ( 'NONE', *, *, #449, .T. ) ;
#432 = EDGE_CURVE ( 'NONE', #415, #634, #560, .T. ) ;
#433 = DIRECTION ( 'NONE',  ( 0.9925461516413227603, 0.1218693434051405788, -0.000000000000000000 ) ) ;
#434 = ORIENTED_EDGE ( 'NONE', *, *, #1015, .T. ) ;
#435 = DIRECTION ( 'NONE',  ( -1.000000000000000000, -0.000000000000000000, -0.000000000000000000 ) ) ;
#436 = PRODUCT_RELATED_PRODUCT_CATEGORY ( 'part', '', ( #529 ) ) ;
#437 = DIRECTION ( 'NONE',  ( -1.000000000000000000, -0.000000000000000000, -0.000000000000000000 ) ) ;
#438 = CARTESIAN_POINT ( 'NONE',  ( -152.2186250486533083, -22.31734823636938003, -4.800000000000000711 ) ) ;
#439 = VERTEX_POINT ( 'NONE', #666 ) ;
#440 = ORIENTED_EDGE ( 'NONE', *, *, #203, .T. ) ;
#441 = VECTOR ( 'NONE', #151, 1000.000000000000000 ) ;
#442 = LINE ( 'NONE', #619, #34 ) ;
#443 = CIRCLE ( 'NONE', #61, 0.9000000000001372458 ) ;
#444 = CARTESIAN_POINT ( 'NONE',  ( -147.1014499841843985, -23.31734823636938714, 0.000000000000000000 ) ) ;
#445 = ORIENTED_EDGE ( 'NONE', *, *, #464, .F. ) ;
#446 = EDGE_CURVE ( 'NONE', #957, #310, #853, .T. ) ;
#447 = PRODUCT_CONTEXT ( 'NONE', #1221, 'mechanical' ) ;
#448 = EDGE_LOOP ( 'NONE', ( #113, #542, #434, #880, #348, #1002 ) ) ;
#449 = EDGE_CURVE ( 'NONE', #995, #779, #938, .T. ) ;
#450 = ADVANCED_FACE ( 'NONE', ( #583 ), #1032, .T. ) ;
#451 = CARTESIAN_POINT ( 'NONE',  ( -152.0167811435147769, -22.31734823636938003, -0.8000000000000003775 ) ) ;
#452 = VERTEX_POINT ( 'NONE', #476 ) ;
#453 = FACE_OUTER_BOUND ( 'NONE', #527, .T. ) ;
#454 = EDGE_LOOP ( 'NONE', ( #6, #702, #134, #805 ) ) ;
#455 = CARTESIAN_POINT ( 'NONE',  ( -148.1464518346657542, -21.81734823636938003, -3.899999999999999911 ) ) ;
#456 = EDGE_LOOP ( 'NONE', ( #242, #558, #623, #856 ) ) ;
#457 = LINE ( 'NONE', #835, #318 ) ;
#458 = VECTOR ( 'NONE', #437, 1000.000000000000000 ) ;
#459 = AXIS2_PLACEMENT_3D ( 'NONE', #521, #1160, #396 ) ;
#460 = CARTESIAN_POINT ( 'NONE',  ( -150.3464518346657712, -20.31734823636938003, -1.049999999999862377 ) ) ;
#461 = ORIENTED_EDGE ( 'NONE', *, *, #1146, .T. ) ;
#462 = AXIS2_PLACEMENT_3D ( 'NONE', #577, #950, #864 ) ;
#463 = CARTESIAN_POINT ( 'NONE',  ( -148.1464518346657542, -24.11734823636938785, -3.899999999999999911 ) ) ;
#464 = EDGE_CURVE ( 'NONE', #1073, #838, #443, .T. ) ;
#465 = EDGE_CURVE ( 'NONE', #1044, #411, #1027, .T. ) ;
#466 = DIRECTION ( 'NONE',  ( 1.000000000000000000, 0.000000000000000000, -2.891205793294675368E-16 ) ) ;
#467 = ORIENTED_EDGE ( 'NONE', *, *, #294, .F. ) ;
#468 = CARTESIAN_POINT ( 'NONE',  ( -150.3464518346657712, -23.31734823636938359, -3.899999999999999911 ) ) ;
#469 = EDGE_LOOP ( 'NONE', ( #508, #591, #612, #116 ) ) ;
#470 = PLANE ( 'NONE',  #787 ) ;
#471 = DIRECTION ( 'NONE',  ( 0.2588190451025186301, 0.000000000000000000, 0.9659258262890688673 ) ) ;
#472 = DIRECTION ( 'NONE',  ( -1.000000000000000000, -0.000000000000000000, -0.000000000000000000 ) ) ;
#473 = EDGE_CURVE ( 'NONE', #355, #1135, #1046, .T. ) ;
#474 = DIRECTION ( 'NONE',  ( 0.000000000000000000, -1.000000000000000000, 0.000000000000000000 ) ) ;
#475 = CIRCLE ( 'NONE', #1191, 1.999999999999999112 ) ;
#476 = CARTESIAN_POINT ( 'NONE',  ( -152.2186250486530525, -21.31734823636938003, -1.196460763831507013 ) ) ;
#477 = FILL_AREA_STYLE ('',( #89 ) ) ;
#478 = VECTOR ( 'NONE', #1047, 1000.000000000000000 ) ;
#479 = CARTESIAN_POINT ( 'NONE',  ( -152.2186250486530525, -21.31734823636938003, -4.800000000000000711 ) ) ;
#480 = CARTESIAN_POINT ( 'NONE',  ( -152.5464518346657883, -19.51734823636938287, -3.899999999999999911 ) ) ;
#481 = ORIENTED_EDGE ( 'NONE', *, *, #1167, .T. ) ;
#482 = DIRECTION ( 'NONE',  ( 0.000000000000000000, 0.000000000000000000, -1.000000000000000000 ) ) ;
#483 = EDGE_CURVE ( 'NONE', #1170, #830, #27, .T. ) ;
#484 = DIRECTION ( 'NONE',  ( -0.2588190451025186301, 0.000000000000000000, -0.9659258262890688673 ) ) ;
#485 = DIRECTION ( 'NONE',  ( 1.000000000000000000, -0.000000000000000000, -0.000000000000000000 ) ) ;
#486 = DIRECTION ( 'NONE',  ( -0.000000000000000000, 1.000000000000000000, -0.000000000000000000 ) ) ;
#487 =( BOUNDED_CURVE ( )  B_SPLINE_CURVE ( 3, ( #513, #1036, #946, #685 ),
 .UNSPECIFIED., .F., .F. ) 
 B_SPLINE_CURVE_WITH_KNOTS ( ( 4, 4 ),
 ( 1.888356756086414734, 2.559228415721047423 ),
 .UNSPECIFIED. ) 
 CURVE ( )  GEOMETRIC_REPRESENTATION_ITEM ( )  RATIONAL_B_SPLINE_CURVE ( ( 1.000000000000000000, 0.9628446216904569255, 0.9628446216904569255, 1.000000000000000000 ) ) 
 REPRESENTATION_ITEM ( '' )  );
#488 = ORIENTED_EDGE ( 'NONE', *, *, #194, .F. ) ;
#489 = CARTESIAN_POINT ( 'NONE',  ( -152.0167811435147769, -22.29256492110602039, -0.8000000000000003775 ) ) ;
#490 = DIRECTION ( 'NONE',  ( -0.9925461516413219831, 0.1218693434051478508, -0.000000000000000000 ) ) ;
#491 = CARTESIAN_POINT ( 'NONE',  ( -136.8737190760315912, -24.10021342237454434, -3.899999999999999911 ) ) ;
#492 = ORIENTED_EDGE ( 'NONE', *, *, #1167, .F. ) ;
#493 = CARTESIAN_POINT ( 'NONE',  ( -148.1464518346657542, -23.31734823636938359, -3.899999999999999911 ) ) ;
#494 = ADVANCED_FACE ( 'NONE', ( #2 ), #1126, .F. ) ;
#495 = EDGE_LOOP ( 'NONE', ( #893, #302, #332, #247 ) ) ;
#496 = CARTESIAN_POINT ( 'NONE',  ( -152.5464518346657883, -20.31734823636938003, -3.899999999999999911 ) ) ;
#497 =( BOUNDED_CURVE ( )  B_SPLINE_CURVE ( 3, ( #93, #99, #851, #1225 ),
 .UNSPECIFIED., .F., .T. ) 
 B_SPLINE_CURVE_WITH_KNOTS ( ( 4, 4 ),
 ( 1.570796326794896558, 1.832595714594039249 ),
 .UNSPECIFIED. ) 
 CURVE ( )  GEOMETRIC_REPRESENTATION_ITEM ( )  RATIONAL_B_SPLINE_CURVE ( ( 1.000000000000000000, 0.9942965742492072545, 0.9942965742492072545, 1.000000000000000000 ) ) 
 REPRESENTATION_ITEM ( '' )  );
#498 = EDGE_CURVE ( 'NONE', #343, #100, #758, .T. ) ;
#499 = VECTOR ( 'NONE', #257, 1000.000000000000000 ) ;
#500 = DIRECTION ( 'NONE',  ( -1.000000000000000000, 0.000000000000000000, -0.000000000000000000 ) ) ;
#501 = EDGE_CURVE ( 'NONE', #506, #516, #569, .T. ) ;
#502 = AXIS2_PLACEMENT_3D ( 'NONE', #84, #275, #1018 ) ;
#503 = CIRCLE ( 'NONE', #1045, 0.9000000000001372458 ) ;
#504 = DIRECTION ( 'NONE',  ( -1.000000000000000000, -0.000000000000000000, 2.891205793294675861E-16 ) ) ;
#505 = ADVANCED_FACE ( 'NONE', ( #88 ), #848, .T. ) ;
#506 = VERTEX_POINT ( 'NONE', #489 ) ;
#507 = LINE ( 'NONE', #336, #1065 ) ;
#508 = ORIENTED_EDGE ( 'NONE', *, *, #1117, .F. ) ;
#509 = DIRECTION ( 'NONE',  ( -0.000000000000000000, -0.000000000000000000, 1.000000000000000000 ) ) ;
#510 = CLOSED_SHELL ( 'NONE', ( #763, #936, #78, #1008, #964, #256, #324, #682, #627, #120, #226, #161, #402, #450, #505, #641, #540, #238, #143, #367, #102, #985, #555, #911, #319, #494, #551, #218, #406, #388, #878, #789, #5, #933, #51, #720, #1214, #253, #1115, #841 ) ) ;
#511 = DIRECTION ( 'NONE',  ( -0.9659258262890688673, 0.000000000000000000, 0.2588190451025180749 ) ) ;
#512 = VERTEX_POINT ( 'NONE', #1131 ) ;
#513 = CARTESIAN_POINT ( 'NONE',  ( -150.9709516345056102, -21.47054326867570140, 0.000000000000000000 ) ) ;
#514 = FACE_OUTER_BOUND ( 'NONE', #812, .T. ) ;
#515 = CARTESIAN_POINT ( 'NONE',  ( -147.1014499841843985, -20.31734823636937648, 0.000000000000000000 ) ) ;
#516 = VERTEX_POINT ( 'NONE', #286 ) ;
#517 = FACE_OUTER_BOUND ( 'NONE', #684, .T. ) ;
#518 = LINE ( 'NONE', #1172, #441 ) ;
#519 = EDGE_LOOP ( 'NONE', ( #531, #43, #1208, #788 ) ) ;
#520 = VECTOR ( 'NONE', #602, 1000.000000000000000 ) ;
#521 = CARTESIAN_POINT ( 'NONE',  ( -150.3464518346657997, -24.11734823636938430, -1.950000000000029932 ) ) ;
#522 = ORIENTED_EDGE ( 'NONE', *, *, #543, .F. ) ;
#523 = CARTESIAN_POINT ( 'NONE',  ( -150.3464518346657712, -16.17176382409753188, -1.949999999999999956 ) ) ;
#524 = ORIENTED_EDGE ( 'NONE', *, *, #1180, .F. ) ;
#525 = VECTOR ( 'NONE', #958, 1000.000000000000000 ) ;
#526 = LINE ( 'NONE', #124, #374 ) ;
#527 = EDGE_LOOP ( 'NONE', ( #314, #575, #243, #228, #639 ) ) ;
#528 = ORIENTED_EDGE ( 'NONE', *, *, #585, .F. ) ;
#529 = PRODUCT ( '\X2\58f34f53652f6491817f\X0\', '\X2\58f34f53652f6491817f\X0\', '', ( #447 ) ) ;
#530 = CARTESIAN_POINT ( 'NONE',  ( -150.9709516345056102, -23.31734823636938359, 1.517883041479706208E-15 ) ) ;
#531 = ORIENTED_EDGE ( 'NONE', *, *, #473, .T. ) ;
#532 = CARTESIAN_POINT ( 'NONE',  ( -152.2186250486533083, -22.31734823636938003, -2.603539236167827120 ) ) ;
#533 = FACE_OUTER_BOUND ( 'NONE', #55, .T. ) ;
#534 = DIRECTION ( 'NONE',  ( 0.1218693434051405927, -0.9925461516413229823, 0.000000000000000000 ) ) ;
#535 = CARTESIAN_POINT ( 'NONE',  ( -152.3464518346657712, -21.30165308057717866, -3.899999999999999911 ) ) ;
#536 = FACE_OUTER_BOUND ( 'NONE', #258, .T. ) ;
#537 = ORIENTED_EDGE ( 'NONE', *, *, #1020, .T. ) ;
#538 = DIRECTION ( 'NONE',  ( 0.000000000000000000, -1.000000000000000000, 0.000000000000000000 ) ) ;
#539 = DIRECTION ( 'NONE',  ( 0.000000000000000000, -1.000000000000000000, 0.000000000000000000 ) ) ;
#540 = ADVANCED_FACE ( 'NONE', ( #1038 ), #187, .F. ) ;
#541 = PLANE ( 'NONE',  #73 ) ;
#542 = ORIENTED_EDGE ( 'NONE', *, *, #886, .T. ) ;
#543 = EDGE_CURVE ( 'NONE', #213, #724, #971, .T. ) ;
#544 = ORIENTED_EDGE ( 'NONE', *, *, #146, .F. ) ;
#545 = VECTOR ( 'NONE', #764, 1000.000000000000000 ) ;
#546 = AXIS2_PLACEMENT_3D ( 'NONE', #303, #123, #193 ) ;
#547 = DIRECTION ( 'NONE',  ( -0.9925461516413219831, 0.1218693434051478647, -0.000000000000000000 ) ) ;
#548 = ORIENTED_EDGE ( 'NONE', *, *, #1151, .T. ) ;
#549 = DIRECTION ( 'NONE',  ( 1.000000000000000000, 0.000000000000000000, 0.000000000000000000 ) ) ;
#550 = ORIENTED_EDGE ( 'NONE', *, *, #203, .F. ) ;
#551 = ADVANCED_FACE ( 'NONE', ( #514 ), #588, .F. ) ;
#552 = PLANE ( 'NONE',  #1204 ) ;
#553 = EDGE_LOOP ( 'NONE', ( #371, #1143, #264, #1158 ) ) ;
#554 = CARTESIAN_POINT ( 'NONE',  ( -136.5012898939276340, -24.11734823636938785, -1.500000000000000000 ) ) ;
#555 = ADVANCED_FACE ( 'NONE', ( #976 ), #23, .F. ) ;
#556 = EDGE_CURVE ( 'NONE', #1028, #158, #305, .T. ) ;
#557 = DIRECTION ( 'NONE',  ( 0.000000000000000000, 0.000000000000000000, 1.000000000000000000 ) ) ;
#558 = ORIENTED_EDGE ( 'NONE', *, *, #97, .T. ) ;
#559 = CARTESIAN_POINT ( 'NONE',  ( -150.3464518346657712, -16.17176382409753188, -1.049999999999862377 ) ) ;
#560 = LINE ( 'NONE', #837, #190 ) ;
#561 = VERTEX_POINT ( 'NONE', #423 ) ;
#562 = VECTOR ( 'NONE', #484, 1000.000000000000000 ) ;
#563 = DIRECTION ( 'NONE',  ( 0.000000000000000000, 1.000000000000000000, 0.000000000000000000 ) ) ;
#564 = ORIENTED_EDGE ( 'NONE', *, *, #346, .F. ) ;
#565 = CARTESIAN_POINT ( 'NONE',  ( -136.7424441671156217, -24.06623697580299037, -3.899999999999999911 ) ) ;
#566 = CARTESIAN_POINT ( 'NONE',  ( -148.1464518346657542, -24.11734823636938785, -3.899999999999999911 ) ) ;
#567 = CARTESIAN_POINT ( 'NONE',  ( -152.2186250486530525, -21.31734823636938003, -1.196460763831507013 ) ) ;
#568 = DIRECTION ( 'NONE',  ( 0.000000000000000000, 0.000000000000000000, -1.000000000000000000 ) ) ;
#569 = LINE ( 'NONE', #1210, #832 ) ;
#570 = LINE ( 'NONE', #559, #196 ) ;
#571 = EDGE_CURVE ( 'NONE', #1179, #355, #679, .T. ) ;
#572 = FACE_OUTER_BOUND ( 'NONE', #1130, .T. ) ;
#573 = DIRECTION ( 'NONE',  ( 0.000000000000000000, -0.000000000000000000, -1.000000000000000000 ) ) ;
#574 = EDGE_CURVE ( 'NONE', #149, #1192, #392, .T. ) ;
#575 = ORIENTED_EDGE ( 'NONE', *, *, #189, .T. ) ;
#576 = VECTOR ( 'NONE', #129, 1000.000000000000000 ) ;
#577 = CARTESIAN_POINT ( 'NONE',  ( -144.0233462090480998, -21.31734823636938003, -0.8000000000000003775 ) ) ;
#578 = DIRECTION ( 'NONE',  ( 0.000000000000000000, 1.000000000000000000, 0.000000000000000000 ) ) ;
#579 = AXIS2_PLACEMENT_3D ( 'NONE', #984, #1074, #133 ) ;
#580 = CARTESIAN_POINT ( 'NONE',  ( -150.3464518346657712, -16.17176382409753188, -1.949999999999999956 ) ) ;
#581 = DIRECTION ( 'NONE',  ( 0.2588190451025186301, 0.000000000000000000, 0.9659258262890688673 ) ) ;
#582 = ORIENTED_EDGE ( 'NONE', *, *, #1111, .F. ) ;
#583 = FACE_OUTER_BOUND ( 'NONE', #202, .T. ) ;
#584 = CARTESIAN_POINT ( 'NONE',  ( -137.1443679557623057, -24.11734823636938785, -3.899999999999999911 ) ) ;
#585 = EDGE_CURVE ( 'NONE', #335, #729, #951, .T. ) ;
#586 = DIRECTION ( 'NONE',  ( -0.000000000000000000, 1.000000000000000000, -0.000000000000000000 ) ) ;
#587 = ORIENTED_EDGE ( 'NONE', *, *, #749, .T. ) ;
#588 = PLANE ( 'NONE',  #111 ) ;
#589 = EDGE_CURVE ( 'NONE', #252, #738, #963, .T. ) ;
#590 = LINE ( 'NONE', #966, #76 ) ;
#591 = ORIENTED_EDGE ( 'NONE', *, *, #139, .F. ) ;
#592 = LINE ( 'NONE', #968, #340 ) ;
#593 = ORIENTED_EDGE ( 'NONE', *, *, #1039, .F. ) ;
#594 = PLANE ( 'NONE',  #973 ) ;
#595 = VECTOR ( 'NONE', #74, 1000.000000000000000 ) ;
#596 = EDGE_CURVE ( 'NONE', #634, #411, #136, .T. ) ;
#597 = CARTESIAN_POINT ( 'NONE',  ( -141.1464518346657542, -19.51734823636938287, -3.100000000000000089 ) ) ;
#598 = EDGE_LOOP ( 'NONE', ( #308, #628, #1149, #651 ) ) ;
#599 = CARTESIAN_POINT ( 'NONE',  ( -148.1464518346657542, -24.11734823636938785, -3.899999999999999911 ) ) ;
#600 = CARTESIAN_POINT ( 'NONE',  ( -136.7424441671156217, -19.56845949693577680, -3.899999999999999911 ) ) ;
#601 = EDGE_CURVE ( 'NONE', #743, #981, #210, .T. ) ;
#602 = DIRECTION ( 'NONE',  ( -0.000000000000000000, -1.000000000000000000, -0.000000000000000000 ) ) ;
#603 = ORIENTED_EDGE ( 'NONE', *, *, #483, .T. ) ;
#604 = CARTESIAN_POINT ( 'NONE',  ( -136.7424441671156217, -19.56845949693577680, -3.899999999999999911 ) ) ;
#605 = CARTESIAN_POINT ( 'NONE',  ( -148.1464518346657542, -22.31734823636938003, -4.800000000000000711 ) ) ;
#606 = ORIENTED_EDGE ( 'NONE', *, *, #647, .T. ) ;
#607 = EDGE_CURVE ( 'NONE', #439, #915, #526, .T. ) ;
#608 = LINE ( 'NONE', #683, #520 ) ;
#609 = ORIENTED_EDGE ( 'NONE', *, *, #916, .F. ) ;
#610 = FACE_OUTER_BOUND ( 'NONE', #495, .T. ) ;
#611 = DIRECTION ( 'NONE',  ( -1.000000000000000000, -0.000000000000000000, -0.000000000000000000 ) ) ;
#612 = ORIENTED_EDGE ( 'NONE', *, *, #473, .F. ) ;
#613 = VECTOR ( 'NONE', #898, 1000.000000000000000 ) ;
#614 = VECTOR ( 'NONE', #121, 1000.000000000000000 ) ;
#615 = CARTESIAN_POINT ( 'NONE',  ( -150.3464518346657712, -24.11734823636938430, -1.049999999999926326 ) ) ;
#616 = ORIENTED_EDGE ( 'NONE', *, *, #220, .F. ) ;
#617 = LINE ( 'NONE', #33, #867 ) ;
#618 = VECTOR ( 'NONE', #872, 1000.000000000000000 ) ;
#619 = CARTESIAN_POINT ( 'NONE',  ( -148.1464518346657542, -19.51734823636937932, -3.899999999999999911 ) ) ;
#620 = CYLINDRICAL_SURFACE ( 'NONE', #9, 0.9000000000001372458 ) ;
#621 = PLANE ( 'NONE',  #263 ) ;
#622 = EDGE_CURVE ( 'NONE', #1175, #1028, #890, .T. ) ;
#623 = ORIENTED_EDGE ( 'NONE', *, *, #430, .F. ) ;
#624 = PLANE ( 'NONE',  #579 ) ;
#625 = CARTESIAN_POINT ( 'NONE',  ( -141.1464518346657542, -19.81734823636938359, -3.100000000000000089 ) ) ;
#626 = CARTESIAN_POINT ( 'NONE',  ( -150.3464518346657712, -23.31734823636938359, -1.049999999999862377 ) ) ;
#627 = ADVANCED_FACE ( 'NONE', ( #774, #1153 ), #594, .T. ) ;
#628 = ORIENTED_EDGE ( 'NONE', *, *, #571, .F. ) ;
#629 = ORIENTED_EDGE ( 'NONE', *, *, #596, .T. ) ;
#630 = CARTESIAN_POINT ( 'NONE',  ( -136.5012898939276340, 0.000000000000000000, -1.500000000000000000 ) ) ;
#631 = ORIENTED_EDGE ( 'NONE', *, *, #465, .T. ) ;
#632 = DIRECTION ( 'NONE',  ( -1.000000000000000000, 0.000000000000000000, 0.000000000000000000 ) ) ;
#633 = ORIENTED_EDGE ( 'NONE', *, *, #449, .F. ) ;
#634 = VERTEX_POINT ( 'NONE', #15 ) ;
#635 = PRODUCT_DEFINITION ( 'Êú', '', #865, #681 ) ;
#636 = VECTOR ( 'NONE', #485, 1000.000000000000000 ) ;
#637 = MECHANICAL_DESIGN_GEOMETRIC_PRESENTATION_REPRESENTATION (  '', ( #654 ), #79 ) ;
#638 = DIRECTION ( 'NONE',  ( -0.000000000000000000, -1.000000000000000000, -0.000000000000000000 ) ) ;
#639 = ORIENTED_EDGE ( 'NONE', *, *, #695, .F. ) ;
#640 = PLANE ( 'NONE',  #935 ) ;
#641 = ADVANCED_FACE ( 'NONE', ( #1064 ), #877, .F. ) ;
#642 = VECTOR ( 'NONE', #1216, 1000.000000000000000 ) ;
#643 = CARTESIAN_POINT ( 'NONE',  ( -135.2935554276820085, -22.61734823636938430, -2.788228567653785017 ) ) ;
#644 = EDGE_LOOP ( 'NONE', ( #344, #713, #68, #606 ) ) ;
#645 = CARTESIAN_POINT ( 'NONE',  ( -148.1464518346657542, -23.31734823636938714, -3.899999999999999911 ) ) ;
#646 = ORIENTED_EDGE ( 'NONE', *, *, #69, .F. ) ;
#647 = EDGE_CURVE ( 'NONE', #512, #1135, #786, .T. ) ;
#648 = CARTESIAN_POINT ( 'NONE',  ( -134.8249821248631406, -23.49602789280972814, -1.039489194463242283 ) ) ;
#649 = ORIENTED_EDGE ( 'NONE', *, *, #501, .F. ) ;
#650 = DIRECTION ( 'NONE',  ( -1.387778780781446307E-14, 0.000000000000000000, 1.000000000000000000 ) ) ;
#651 = ORIENTED_EDGE ( 'NONE', *, *, #346, .T. ) ;
#652 = CYLINDRICAL_SURFACE ( 'NONE', #907, 1.999999999999999112 ) ;
#653 = VECTOR ( 'NONE', #687, 1000.000000000000000 ) ;
#654 = STYLED_ITEM ( 'NONE', ( #1154 ), #173 ) ;
#655 = CARTESIAN_POINT ( 'NONE',  ( -139.6464518346657542, -19.51734823636938287, -3.100000000000000089 ) ) ;
#656 = ORIENTED_EDGE ( 'NONE', *, *, #943, .T. ) ;
#657 = VECTOR ( 'NONE', #509, 1000.000000000000000 ) ;
#658 = LINE ( 'NONE', #376, #1031 ) ;
#659 = DIRECTION ( 'NONE',  ( 0.000000000000000000, 0.000000000000000000, -1.000000000000000000 ) ) ;
#660 = CARTESIAN_POINT ( 'NONE',  ( -150.3464518346657712, -20.31734823636938003, -3.899999999999999023 ) ) ;
#661 = FACE_BOUND ( 'NONE', #469, .T. ) ;
#662 = EDGE_CURVE ( 'NONE', #252, #1044, #1070, .T. ) ;
#663 = CARTESIAN_POINT ( 'NONE',  ( -150.9709516345056102, -20.31734823636938003, 1.517883041479706208E-15 ) ) ;
#664 = DIRECTION ( 'NONE',  ( 0.000000000000000000, -1.000000000000000000, 0.000000000000000000 ) ) ;
#665 = ORIENTED_EDGE ( 'NONE', *, *, #1017, .F. ) ;
#666 = CARTESIAN_POINT ( 'NONE',  ( -141.1464518346657542, -19.81734823636938359, -3.100000000000000089 ) ) ;
#667 = DIRECTION ( 'NONE',  ( -0.000000000000000000, 1.000000000000000000, 0.000000000000000000 ) ) ;
#668 = ORIENTED_EDGE ( 'NONE', *, *, #498, .T. ) ;
#669 = CIRCLE ( 'NONE', #926, 0.9000000000001374678 ) ;
#670 = DIRECTION ( 'NONE',  ( -0.000000000000000000, -0.000000000000000000, -1.000000000000000000 ) ) ;
#671 = EDGE_CURVE ( 'NONE', #948, #60, #518, .T. ) ;
#672 = CARTESIAN_POINT ( 'NONE',  ( -144.1450636119961928, -22.30865693229191749, -0.8000000000000003775 ) ) ;
#673 = PRESENTATION_LAYER_ASSIGNMENT (  '', '', ( #654 ) ) ;
#674 = CARTESIAN_POINT ( 'NONE',  ( -137.0084621694761324, -24.11734823636938785, -3.899999999999999911 ) ) ;
#675 = PLANE ( 'NONE',  #717 ) ;
#676 = EDGE_CURVE ( 'NONE', #724, #1192, #239, .T. ) ;
#677 = ORIENTED_EDGE ( 'NONE', *, *, #231, .F. ) ;
#678 = AXIS2_PLACEMENT_3D ( 'NONE', #1114, #1209, #844 ) ;
#679 = LINE ( 'NONE', #230, #814 ) ;
#680 = DIRECTION ( 'NONE',  ( 0.000000000000000000, 0.000000000000000000, -1.000000000000000000 ) ) ;
#681 = PRODUCT_DEFINITION_CONTEXT ( 'detailed design', #67, 'design' ) ;
#682 = ADVANCED_FACE ( 'NONE', ( #815, #245 ), #144, .T. ) ;
#683 = CARTESIAN_POINT ( 'NONE',  ( -148.1464518346657542, -24.11734823636938785, -3.899999999999999911 ) ) ;
#684 = EDGE_LOOP ( 'NONE', ( #461, #75, #785, #793 ) ) ;
#685 = CARTESIAN_POINT ( 'NONE',  ( -152.0167811435147769, -21.34213155163270770, -0.8000000000000003775 ) ) ;
#686 = ORIENTED_EDGE ( 'NONE', *, *, #1096, .F. ) ;
#687 = DIRECTION ( 'NONE',  ( 1.000000000000000000, -0.000000000000000000, 0.000000000000000000 ) ) ;
#688 = CARTESIAN_POINT ( 'NONE',  ( -141.1464518346657542, -24.11734823636938785, -3.100000000000000089 ) ) ;
#689 = PRODUCT_DEFINITION_SHAPE ( 'NONE', 'NONE',  #635 ) ;
#690 = DIRECTION ( 'NONE',  ( -0.000000000000000000, -1.000000000000000000, -0.000000000000000000 ) ) ;
#691 = ORIENTED_EDGE ( 'NONE', *, *, #146, .T. ) ;
#692 = FACE_OUTER_BOUND ( 'NONE', #448, .T. ) ;
#693 = DIRECTION ( 'NONE',  ( 0.000000000000000000, -1.000000000000000000, 0.000000000000000000 ) ) ;
#694 = AXIS2_PLACEMENT_3D ( 'NONE', #126, #212, #307 ) ;
#695 = EDGE_CURVE ( 'NONE', #902, #1199, #50, .T. ) ;
#696 = AXIS2_PLACEMENT_3D ( 'NONE', #523, #330, #42 ) ;
#697 = CARTESIAN_POINT ( 'NONE',  ( -152.3909570843457004, -22.33850794970136988, -1.655049858155635878 ) ) ;
#698 = ORIENTED_EDGE ( 'NONE', *, *, #886, .F. ) ;
#699 = FACE_OUTER_BOUND ( 'NONE', #1113, .T. ) ;
#700 = EDGE_LOOP ( 'NONE', ( #967, #550, #404, #852 ) ) ;
#701 = DIRECTION ( 'NONE',  ( -0.000000000000000000, 1.000000000000000000, -0.000000000000000000 ) ) ;
#702 = ORIENTED_EDGE ( 'NONE', *, *, #338, .F. ) ;
#703 = CARTESIAN_POINT ( 'NONE',  ( -148.1464518346657542, -22.31734823636938003, -3.899999999999999911 ) ) ;
#704 = EDGE_CURVE ( 'NONE', #512, #439, #1088, .T. ) ;
#705 = ORIENTED_EDGE ( 'NONE', *, *, #1118, .F. ) ;
#706 = DIRECTION ( 'NONE',  ( 0.000000000000000000, 1.000000000000000000, 0.000000000000000000 ) ) ;
#707 = DIRECTION ( 'NONE',  ( 0.1218693434051478508, 0.9925461516413219831, 0.000000000000000000 ) ) ;
#708 =( BOUNDED_CURVE ( )  B_SPLINE_CURVE ( 3, ( #565, #491, #674, #584 ),
 .UNSPECIFIED., .F., .F. ) 
 B_SPLINE_CURVE_WITH_KNOTS ( ( 4, 4 ),
 ( 4.450589592585546761, 4.712388980384689674 ),
 .UNSPECIFIED. ) 
 CURVE ( )  GEOMETRIC_REPRESENTATION_ITEM ( )  RATIONAL_B_SPLINE_CURVE ( ( 1.000000000000000000, 0.9942965742492072545, 0.9942965742492072545, 1.000000000000000000 ) ) 
 REPRESENTATION_ITEM ( '' )  );
#709 = VERTEX_POINT ( 'NONE', #331 ) ;
#710 = DIRECTION ( 'NONE',  ( 1.000000000000000000, 0.000000000000000000, -2.891205793294675861E-16 ) ) ;
#711 = CARTESIAN_POINT ( 'NONE',  ( -135.2643219530833107, -19.51734823636939709, -0.2785302901973197298 ) ) ;
#712 = EDGE_CURVE ( 'NONE', #561, #350, #284, .T. ) ;
#713 = ORIENTED_EDGE ( 'NONE', *, *, #1034, .F. ) ;
#714 = VECTOR ( 'NONE', #693, 1000.000000000000000 ) ;
#715 = ORIENTED_EDGE ( 'NONE', *, *, #802, .F. ) ;
#716 = CARTESIAN_POINT ( 'NONE',  ( -139.6464518346657542, -19.51734823636938287, -2.299999999999999822 ) ) ;
#717 = AXIS2_PLACEMENT_3D ( 'NONE', #480, #1049, #398 ) ;
#718 = EDGE_CURVE ( 'NONE', #836, #1199, #442, .T. ) ;
#719 = LINE ( 'NONE', #1177, #90 ) ;
#720 = ADVANCED_FACE ( 'NONE', ( #533 ), #1184, .T. ) ;
#721 = CARTESIAN_POINT ( 'NONE',  ( -150.3464518346657712, -16.17176382409753188, -1.049999999999862377 ) ) ;
#722 = CARTESIAN_POINT ( 'NONE',  ( -147.1014499841843985, -24.11734823636938785, 0.000000000000000000 ) ) ;
#723 =( LENGTH_UNIT ( ) NAMED_UNIT ( * ) SI_UNIT ( .MILLI., .METRE. ) );
#724 = VERTEX_POINT ( 'NONE', #801 ) ;
#725 = CARTESIAN_POINT ( 'NONE',  ( -139.6464518346657542, -23.81734823636938359, -2.299999999999999822 ) ) ;
#726 = DIRECTION ( 'NONE',  ( 0.9925461516413227603, 0.1218693434051405650, 0.000000000000000000 ) ) ;
#727 = ORIENTED_EDGE ( 'NONE', *, *, #947, .F. ) ;
#728 = CARTESIAN_POINT ( 'NONE',  ( -136.0364173490247026, -23.88350378892792847, -3.900000000000001243 ) ) ;
#729 = VERTEX_POINT ( 'NONE', #1081 ) ;
#730 = DIRECTION ( 'NONE',  ( 0.000000000000000000, 0.000000000000000000, -1.000000000000000000 ) ) ;
#731 = ORIENTED_EDGE ( 'NONE', *, *, #501, .T. ) ;
#732 = FACE_OUTER_BOUND ( 'NONE', #822, .T. ) ;
#733 = EDGE_CURVE ( 'NONE', #516, #252, #719, .T. ) ;
#734 = CARTESIAN_POINT ( 'NONE',  ( 0.000000000000000000, 0.000000000000000000, 0.000000000000000000 ) ) ;
#735 = ORIENTED_EDGE ( 'NONE', *, *, #876, .F. ) ;
#736 = AXIS2_PLACEMENT_3D ( 'NONE', #463, #85, #365 ) ;
#737 = CARTESIAN_POINT ( 'NONE',  ( -150.3464518346657712, -21.31734823636938003, -1.899999999999999689 ) ) ;
#738 = VERTEX_POINT ( 'NONE', #451 ) ;
#739 = FACE_OUTER_BOUND ( 'NONE', #425, .T. ) ;
#740 = EDGE_LOOP ( 'NONE', ( #1016, #564, #22, #874 ) ) ;
#741 = CARTESIAN_POINT ( 'NONE',  ( -147.1014499841843985, -19.51734823636937932, 0.000000000000000000 ) ) ;
#742 = DIRECTION ( 'NONE',  ( 0.000000000000000000, 0.000000000000000000, -1.000000000000000000 ) ) ;
#743 = VERTEX_POINT ( 'NONE', #357 ) ;
#744 = CARTESIAN_POINT ( 'NONE',  ( -150.3464518346657712, -21.31734823636938003, -1.899999999999999689 ) ) ;
#745 = DIRECTION ( 'NONE',  ( 0.1218693434051478508, 0.9925461516413219831, 0.000000000000000000 ) ) ;
#746 = CARTESIAN_POINT ( 'NONE',  ( -148.1464518346657542, -23.31734823636938714, -3.899999999999999911 ) ) ;
#747 = ORIENTED_EDGE ( 'NONE', *, *, #417, .T. ) ;
#748 = CARTESIAN_POINT ( 'NONE',  ( -139.6464518346657542, -24.11734823636938785, -3.100000000000000089 ) ) ;
#749 = EDGE_CURVE ( 'NONE', #1179, #512, #65, .T. ) ;
#750 = CARTESIAN_POINT ( 'NONE',  ( -135.0524011544939924, -24.11734823636938785, -1.888228567653783774 ) ) ;
#751 = VECTOR ( 'NONE', #474, 1000.000000000000000 ) ;
#752 = VECTOR ( 'NONE', #670, 1000.000000000000000 ) ;
#753 = DIRECTION ( 'NONE',  ( 1.000000000000000000, 0.000000000000000000, 0.000000000000000000 ) ) ;
#754 = CARTESIAN_POINT ( 'NONE',  ( -152.3909570843457857, -21.29618852303734400, -2.144950141844616631 ) ) ;
#755 = CARTESIAN_POINT ( 'NONE',  ( 0.000000000000000000, 0.000000000000000000, 0.000000000000000000 ) ) ;
#756 = ORIENTED_EDGE ( 'NONE', *, *, #18, .F. ) ;
#757 = CIRCLE ( 'NONE', #956, 1.999999999999999112 ) ;
#758 = LINE ( 'NONE', #660, #525 ) ;
#759 = CARTESIAN_POINT ( 'NONE',  ( -150.3464518346657712, -20.31734823636938003, -1.949999999999999956 ) ) ;
#760 = CARTESIAN_POINT ( 'NONE',  ( -141.1464518346657542, -19.81734823636938359, -3.100000000000000089 ) ) ;
#761 = CARTESIAN_POINT ( 'NONE',  ( -150.3464518346657712, -16.17176382409753188, -2.850000000000137312 ) ) ;
#762 = ORIENTED_EDGE ( 'NONE', *, *, #783, .F. ) ;
#763 = ADVANCED_FACE ( 'NONE', ( #1012 ), #620, .T. ) ;
#764 = DIRECTION ( 'NONE',  ( -0.000000000000000000, -1.000000000000000000, -0.000000000000000000 ) ) ;
#765 = DIRECTION ( 'NONE',  ( 1.000000000000000000, 0.000000000000000000, 0.000000000000000000 ) ) ;
#766 = ORIENTED_EDGE ( 'NONE', *, *, #943, .F. ) ;
#767 = AXIS2_PLACEMENT_3D ( 'NONE', #426, #233, #511 ) ;
#768 = CARTESIAN_POINT ( 'NONE',  ( -136.0364173490247026, -19.75119268381084225, -3.900000000000001243 ) ) ;
#769 =( LENGTH_UNIT ( ) NAMED_UNIT ( * ) SI_UNIT ( .MILLI., .METRE. ) );
#770 = CARTESIAN_POINT ( 'NONE',  ( -141.1464518346657542, -19.81734823636938359, -3.100000000000000089 ) ) ;
#771 = ORIENTED_EDGE ( 'NONE', *, *, #1193, .F. ) ;
#772 = DIRECTION ( 'NONE',  ( 0.000000000000000000, -0.000000000000000000, -1.000000000000000000 ) ) ;
#773 = VERTEX_POINT ( 'NONE', #643 ) ;
#774 = FACE_OUTER_BOUND ( 'NONE', #553, .T. ) ;
#775 = CARTESIAN_POINT ( 'NONE',  ( -139.6464518346657542, -24.11734823636938785, -3.100000000000000089 ) ) ;
#776 = AXIS2_PLACEMENT_3D ( 'NONE', #1077, #809, #1188 ) ;
#777 = CARTESIAN_POINT ( 'NONE',  ( -152.2186250486533083, -22.31734823636938003, -2.603539236167827120 ) ) ;
#778 = ORIENTED_EDGE ( 'NONE', *, *, #1127, .F. ) ;
#779 = VERTEX_POINT ( 'NONE', #444 ) ;
#780 = CARTESIAN_POINT ( 'NONE',  ( -135.4762886145570633, -20.31132141827846027, -3.470198105300493552 ) ) ;
#781 = CARTESIAN_POINT ( 'NONE',  ( -139.6464518346657542, -19.51734823636938287, -3.100000000000000089 ) ) ;
#782 = ORIENTED_EDGE ( 'NONE', *, *, #180, .T. ) ;
#783 = EDGE_CURVE ( 'NONE', #709, #824, #905, .T. ) ;
#784 = CARTESIAN_POINT ( 'NONE',  ( -144.0233462090480998, -22.31734823636938003, -4.800000000000000711 ) ) ;
#785 = ORIENTED_EDGE ( 'NONE', *, *, #333, .T. ) ;
#786 = LINE ( 'NONE', #317, #274 ) ;
#787 = AXIS2_PLACEMENT_3D ( 'NONE', #755, #954, #191 ) ;
#788 = ORIENTED_EDGE ( 'NONE', *, *, #571, .T. ) ;
#789 = ADVANCED_FACE ( 'NONE', ( #912 ), #541, .F. ) ;
#790 = AXIS2_PLACEMENT_3D ( 'NONE', #630, #811, #154 ) ;
#791 = AXIS2_PLACEMENT_3D ( 'NONE', #493, #861, #772 ) ;
#792 = CARTESIAN_POINT ( 'NONE',  ( -141.1464518346657542, -23.81734823636938359, -3.100000000000000089 ) ) ;
#793 = ORIENTED_EDGE ( 'NONE', *, *, #953, .T. ) ;
#794 = LINE ( 'NONE', #323, #278 ) ;
#795 = DIRECTION ( 'NONE',  ( 0.000000000000000000, -0.000000000000000000, 1.000000000000000000 ) ) ;
#796 = ORIENTED_EDGE ( 'NONE', *, *, #1127, .T. ) ;
#797 = FACE_OUTER_BOUND ( 'NONE', #1019, .T. ) ;
#798 = ORIENTED_EDGE ( 'NONE', *, *, #1017, .T. ) ;
#799 = DIRECTION ( 'NONE',  ( -0.000000000000000000, -1.000000000000000000, -0.000000000000000000 ) ) ;
#800 = VERTEX_POINT ( 'NONE', #821 ) ;
#801 = CARTESIAN_POINT ( 'NONE',  ( -139.6464518346657542, -23.81734823636938359, -2.299999999999999822 ) ) ;
#802 = EDGE_CURVE ( 'NONE', #884, #634, #255, .T. ) ;
#803 = ORIENTED_EDGE ( 'NONE', *, *, #54, .T. ) ;
#804 = CARTESIAN_POINT ( 'NONE',  ( -135.2935554276820085, -22.61734823636938430, -2.788228567653785017 ) ) ;
#805 = ORIENTED_EDGE ( 'NONE', *, *, #1180, .T. ) ;
#806 = CARTESIAN_POINT ( 'NONE',  ( -148.1464518346657542, -21.31734823636938003, -3.899999999999999911 ) ) ;
#807 = LINE ( 'NONE', #251, #236 ) ;
#808 = ORIENTED_EDGE ( 'NONE', *, *, #1066, .F. ) ;
#809 = DIRECTION ( 'NONE',  ( -0.000000000000000000, -1.000000000000000000, -0.000000000000000000 ) ) ;
#810 = VECTOR ( 'NONE', #298, 1000.000000000000000 ) ;
#811 = DIRECTION ( 'NONE',  ( 0.000000000000000000, 1.000000000000000000, 0.000000000000000000 ) ) ;
#812 = EDGE_LOOP ( 'NONE', ( #379, #922, #522, #1037 ) ) ;
#813 = AXIS2_PLACEMENT_3D ( 'NONE', #7, #857, #1112 ) ;
#814 = VECTOR ( 'NONE', #216, 1000.000000000000000 ) ;
#815 = FACE_OUTER_BOUND ( 'NONE', #138, .T. ) ;
#816 = DIRECTION ( 'NONE',  ( -0.000000000000000000, -1.000000000000000000, -0.000000000000000000 ) ) ;
#817 = VERTEX_POINT ( 'NONE', #921 ) ;
#818 = UNCERTAINTY_MEASURE_WITH_UNIT (LENGTH_MEASURE( 1.000000000000000082E-05 ), #769, 'distance_accuracy_value', 'NONE');
#819 = ORIENTED_EDGE ( 'NONE', *, *, #953, .F. ) ;
#820 = EDGE_CURVE ( 'NONE', #60, #213, #1107, .T. ) ;
#821 = CARTESIAN_POINT ( 'NONE',  ( -136.7424441671156217, -24.06623697580299037, -3.899999999999999911 ) ) ;
#822 = EDGE_LOOP ( 'NONE', ( #1057, #918, #276, #895, #225, #155, #268, #304, #871, #631, #342, #169, #427, #326 ) ) ;
#823 = FACE_OUTER_BOUND ( 'NONE', #1168, .T. ) ;
#824 = VERTEX_POINT ( 'NONE', #460 ) ;
#825 =( BOUNDED_CURVE ( )  B_SPLINE_CURVE ( 3, ( #567, #82, #754, #1205 ),
 .UNSPECIFIED., .F., .F. ) 
 B_SPLINE_CURVE_WITH_KNOTS ( ( 4, 4 ),
 ( 2.782131777142227591, 3.501053530037358641 ),
 .UNSPECIFIED. ) 
 CURVE ( )  GEOMETRIC_REPRESENTATION_ITEM ( )  RATIONAL_B_SPLINE_CURVE ( ( 1.000000000000000000, 0.9573910713290925134, 0.9573910713290925134, 1.000000000000000000 ) ) 
 REPRESENTATION_ITEM ( '' )  );
#826 = EDGE_CURVE ( 'NONE', #343, #407, #337, .T. ) ;
#827 = DIRECTION ( 'NONE',  ( 0.1218693434051405927, -0.9925461516413229823, 0.000000000000000000 ) ) ;
#828 = ORIENTED_EDGE ( 'NONE', *, *, #1020, .F. ) ;
#829 = DIRECTION ( 'NONE',  ( -0.000000000000000000, 1.000000000000000000, -0.000000000000000000 ) ) ;
#830 = VERTEX_POINT ( 'NONE', #1195 ) ;
#831 = VECTOR ( 'NONE', #206, 1000.000000000000000 ) ;
#832 = VECTOR ( 'NONE', #941, 1000.000000000000114 ) ;
#833 = DIRECTION ( 'NONE',  ( 0.000000000000000000, 0.000000000000000000, -1.000000000000000000 ) ) ;
#834 = ORIENTED_EDGE ( 'NONE', *, *, #802, .T. ) ;
#835 = CARTESIAN_POINT ( 'NONE',  ( -152.5464518346657883, -20.31734823636938003, -3.899999999999999911 ) ) ;
#836 = VERTEX_POINT ( 'NONE', #1202 ) ;
#837 = CARTESIAN_POINT ( 'NONE',  ( -150.3464518346657712, -20.31734823636938003, -3.899999999999999023 ) ) ;
#838 = VERTEX_POINT ( 'NONE', #626 ) ;
#839 = CARTESIAN_POINT ( 'NONE',  ( 0.000000000000000000, 0.000000000000000000, -3.899999999999999911 ) ) ;
#840 = EDGE_LOOP ( 'NONE', ( #481, #698 ) ) ;
#841 = ADVANCED_FACE ( 'NONE', ( #1000 ), #363, .T. ) ;
#842 = LINE ( 'NONE', #750, #211 ) ;
#843 = DIRECTION ( 'NONE',  ( 0.000000000000000000, -1.000000000000000000, 0.000000000000000000 ) ) ;
#844 = DIRECTION ( 'NONE',  ( 0.000000000000000000, 0.000000000000000000, 1.000000000000000000 ) ) ;
#845 = LINE ( 'NONE', #280, #924 ) ;
#846 = VECTOR ( 'NONE', #403, 1000.000000000000000 ) ;
#847 = AXIS2_PLACEMENT_3D ( 'NONE', #56, #992, #142 ) ;
#848 = CYLINDRICAL_SURFACE ( 'NONE', #1144, 1.999999999999999112 ) ;
#849 = CARTESIAN_POINT ( 'NONE',  ( -152.0167811435147769, -21.34213155163270770, -0.8000000000000003775 ) ) ;
#850 = CARTESIAN_POINT ( 'NONE',  ( -148.1464518346657542, -24.11734823636938785, -3.899999999999999911 ) ) ;
#851 = CARTESIAN_POINT ( 'NONE',  ( -136.8737190760315912, -19.53448305036422639, -3.899999999999999911 ) ) ;
#852 = ORIENTED_EDGE ( 'NONE', *, *, #876, .T. ) ;
#853 = LINE ( 'NONE', #566, #885 ) ;
#854 = CARTESIAN_POINT ( 'NONE',  ( -148.1464518346657542, -20.31734823636937648, -3.899999999999999911 ) ) ;
#855 = CARTESIAN_POINT ( 'NONE',  ( -150.3464518346657712, -20.31734823636938003, -2.850000000000137312 ) ) ;
#856 = ORIENTED_EDGE ( 'NONE', *, *, #260, .F. ) ;
#857 = DIRECTION ( 'NONE',  ( 0.000000000000000000, -1.000000000000000000, 0.000000000000000000 ) ) ;
#858 = CARTESIAN_POINT ( 'NONE',  ( -139.6464518346657542, -23.81734823636938359, -3.100000000000000089 ) ) ;
#859 = DIRECTION ( 'NONE',  ( -1.387778780781446307E-14, 0.000000000000000000, -1.000000000000000000 ) ) ;
#860 = ORIENTED_EDGE ( 'NONE', *, *, #601, .F. ) ;
#861 = DIRECTION ( 'NONE',  ( 0.000000000000000000, -1.000000000000000000, 0.000000000000000000 ) ) ;
#862 = ORIENTED_EDGE ( 'NONE', *, *, #180, .F. ) ;
#863 = AXIS2_PLACEMENT_3D ( 'NONE', #580, #940, #659 ) ;
#864 = DIRECTION ( 'NONE',  ( 1.000000000000000000, 0.000000000000000000, 0.000000000000000000 ) ) ;
#865 = PRODUCT_DEFINITION_FORMATION_WITH_SPECIFIED_SOURCE ( '‰ª', '', #529, .NOT_KNOWN. ) ;
#866 =( NAMED_UNIT ( * ) SI_UNIT ( $, .STERADIAN. ) SOLID_ANGLE_UNIT ( ) );
#867 = VECTOR ( 'NONE', #799, 1000.000000000000000 ) ;
#868 = CARTESIAN_POINT ( 'NONE',  ( -135.0524011544939924, -22.61734823636938430, -1.888228567653782441 ) ) ;
#869 = ORIENTED_EDGE ( 'NONE', *, *, #422, .F. ) ;
#870 = PLANE ( 'NONE',  #1085 ) ;
#871 = ORIENTED_EDGE ( 'NONE', *, *, #891, .F. ) ;
#872 = DIRECTION ( 'NONE',  ( -0.000000000000000000, -0.000000000000000000, 1.000000000000000000 ) ) ;
#873 = DIRECTION ( 'NONE',  ( 0.000000000000000000, 1.000000000000000000, 0.000000000000000000 ) ) ;
#874 = ORIENTED_EDGE ( 'NONE', *, *, #1034, .T. ) ;
#875 = LINE ( 'NONE', #1150, #14 ) ;
#876 = EDGE_CURVE ( 'NONE', #221, #158, #157, .T. ) ;
#877 = PLANE ( 'NONE',  #970 ) ;
#878 = ADVANCED_FACE ( 'NONE', ( #1095 ), #347, .F. ) ;
#879 = CARTESIAN_POINT ( 'NONE',  ( -139.6464518346657542, -19.81734823636938359, -2.299999999999999822 ) ) ;
#880 = ORIENTED_EDGE ( 'NONE', *, *, #589, .F. ) ;
#881 = CARTESIAN_POINT ( 'NONE',  ( 0.000000000000000000, -23.81734823636938359, 0.000000000000000000 ) ) ;
#882 = CARTESIAN_POINT ( 'NONE',  ( -150.3464518346657712, -16.17176382409753188, -2.850000000000137312 ) ) ;
#883 = AXIS2_PLACEMENT_3D ( 'NONE', #52, #1207, #833 ) ;
#884 = VERTEX_POINT ( 'NONE', #1198 ) ;
#885 = VECTOR ( 'NONE', #753, 1000.000000000000000 ) ;
#886 = EDGE_CURVE ( 'NONE', #407, #1040, #351, .T. ) ;
#887 = DIRECTION ( 'NONE',  ( -0.000000000000000000, -1.000000000000000000, -0.000000000000000000 ) ) ;
#888 = EDGE_LOOP ( 'NONE', ( #445, #869 ) ) ;
#889 = FACE_OUTER_BOUND ( 'NONE', #266, .T. ) ;
#890 = LINE ( 'NONE', #1051, #279 ) ;
#891 = EDGE_CURVE ( 'NONE', #1044, #343, #807, .T. ) ;
#892 = VERTEX_POINT ( 'NONE', #1186 ) ;
#893 = ORIENTED_EDGE ( 'NONE', *, *, #97, .F. ) ;
#894 = CARTESIAN_POINT ( 'NONE',  ( -136.7424441671156217, -24.06623697580299037, -3.899999999999999911 ) ) ;
#895 = ORIENTED_EDGE ( 'NONE', *, *, #927, .T. ) ;
#896 = LINE ( 'NONE', #903, #316 ) ;
#897 = DIRECTION ( 'NONE',  ( -0.9659258262890688673, 0.000000000000000000, 0.2588190451025186301 ) ) ;
#898 = DIRECTION ( 'NONE',  ( -0.000000000000000000, -0.000000000000000000, -1.000000000000000000 ) ) ;
#899 = DIRECTION ( 'NONE',  ( -0.9925461516413219831, 0.1218693434051478508, 0.000000000000000000 ) ) ;
#900 = EDGE_CURVE ( 'NONE', #836, #195, #341, .T. ) ;
#901 = DIRECTION ( 'NONE',  ( 0.000000000000000000, 0.000000000000000000, 1.000000000000000000 ) ) ;
#902 = VERTEX_POINT ( 'NONE', #262 ) ;
#903 = CARTESIAN_POINT ( 'NONE',  ( -148.1464518346657542, -21.31734823636938003, -0.8000000000000003775 ) ) ;
#904 = DIRECTION ( 'NONE',  ( -0.000000000000000000, -1.000000000000000000, -0.000000000000000000 ) ) ;
#905 = LINE ( 'NONE', #721, #356 ) ;
#906 = VERTEX_POINT ( 'NONE', #1009 ) ;
#907 = AXIS2_PLACEMENT_3D ( 'NONE', #1048, #177, #1224 ) ;
#908 = AXIS2_PLACEMENT_3D ( 'NONE', #734, #901, #549 ) ;
#909 =( NAMED_UNIT ( * ) PLANE_ANGLE_UNIT ( ) SI_UNIT ( $, .RADIAN. ) );
#910 = ORIENTED_EDGE ( 'NONE', *, *, #712, .T. ) ;
#911 = ADVANCED_FACE ( 'NONE', ( #162 ), #552, .F. ) ;
#912 = FACE_OUTER_BOUND ( 'NONE', #1098, .T. ) ;
#913 = ORIENTED_EDGE ( 'NONE', *, *, #704, .T. ) ;
#914 =( NAMED_UNIT ( * ) SI_UNIT ( $, .STERADIAN. ) SOLID_ANGLE_UNIT ( ) );
#915 = VERTEX_POINT ( 'NONE', #1116 ) ;
#916 = EDGE_CURVE ( 'NONE', #1173, #1079, #295, .T. ) ;
#917 = CARTESIAN_POINT ( 'NONE',  ( -150.3464518346657712, -16.17176382409753188, -1.949999999999999956 ) ) ;
#918 = ORIENTED_EDGE ( 'NONE', *, *, #287, .T. ) ;
#919 = DIRECTION ( 'NONE',  ( 0.000000000000000000, -1.000000000000000000, 0.000000000000000000 ) ) ;
#920 = LINE ( 'NONE', #261, #1165 ) ;
#921 = CARTESIAN_POINT ( 'NONE',  ( -136.5012898939276340, -24.11734823636938785, 0.000000000000000000 ) ) ;
#922 = ORIENTED_EDGE ( 'NONE', *, *, #676, .F. ) ;
#923 = PLANE ( 'NONE',  #736 ) ;
#924 = VECTOR ( 'NONE', #1025, 1000.000000000000000 ) ;
#925 = ORIENTED_EDGE ( 'NONE', *, *, #18, .T. ) ;
#926 = AXIS2_PLACEMENT_3D ( 'NONE', #300, #690, #982 ) ;
#927 = EDGE_CURVE ( 'NONE', #800, #310, #708, .T. ) ;
#928 = AXIS2_PLACEMENT_3D ( 'NONE', #759, #578, #96 ) ;
#929 = EDGE_CURVE ( 'NONE', #1192, #20, #845, .T. ) ;
#930 = CARTESIAN_POINT ( 'NONE',  ( -136.1130613262738223, -24.11734823636938785, -0.05111126056640217380 ) ) ;
#931 = ORIENTED_EDGE ( 'NONE', *, *, #607, .T. ) ;
#932 = CARTESIAN_POINT ( 'NONE',  ( -136.5012898939276340, 0.000000000000000000, 0.000000000000000000 ) ) ;
#933 = ADVANCED_FACE ( 'NONE', ( #3 ), #960, .F. ) ;
#934 = ORIENTED_EDGE ( 'NONE', *, *, #273, .F. ) ;
#935 = AXIS2_PLACEMENT_3D ( 'NONE', #839, #1011, #164 ) ;
#936 = ADVANCED_FACE ( 'NONE', ( #92 ), #368, .T. ) ;
#937 = CARTESIAN_POINT ( 'NONE',  ( -148.1464518346657542, -23.31734823636938714, -3.899999999999999911 ) ) ;
#938 = LINE ( 'NONE', #746, #115 ) ;
#939 = DIRECTION ( 'NONE',  ( 0.000000000000000000, -0.000000000000000000, 1.000000000000000000 ) ) ;
#940 = DIRECTION ( 'NONE',  ( 0.000000000000000000, -1.000000000000000000, 0.000000000000000000 ) ) ;
#941 = DIRECTION ( 'NONE',  ( 0.9925461516413227603, 0.1218693434051405650, 0.000000000000000000 ) ) ;
#942 = PLANE ( 'NONE',  #678 ) ;
#943 = EDGE_CURVE ( 'NONE', #1079, #779, #1139, .T. ) ;
#944 = DIRECTION ( 'NONE',  ( 1.000000000000000000, 0.000000000000000000, -2.891205793294675368E-16 ) ) ;
#945 = VECTOR ( 'NONE', #638, 1000.000000000000000 ) ;
#946 = CARTESIAN_POINT ( 'NONE',  ( -151.7660665375560143, -21.37291543443731001, -0.4192945868276767851 ) ) ;
#947 = EDGE_CURVE ( 'NONE', #452, #884, #1213, .T. ) ;
#948 = VERTEX_POINT ( 'NONE', #1041 ) ;
#949 = CIRCLE ( 'NONE', #928, 0.9000000000001374678 ) ;
#950 = DIRECTION ( 'NONE',  ( -0.000000000000000000, 0.000000000000000000, 1.000000000000000000 ) ) ;
#951 =( BOUNDED_CURVE ( )  B_SPLINE_CURVE ( 3, ( #600, #768, #780, #986 ),
 .UNSPECIFIED., .F., .F. ) 
 B_SPLINE_CURVE_WITH_KNOTS ( ( 4, 4 ),
 ( 0.2617993877991468543, 1.570796326794895004 ),
 .UNSPECIFIED. ) 
 CURVE ( )  GEOMETRIC_REPRESENTATION_ITEM ( )  RATIONAL_B_SPLINE_CURVE ( ( 1.000000000000000000, 0.8622355601941565917, 0.8622355601941565917, 1.000000000000000000 ) ) 
 REPRESENTATION_ITEM ( '' )  );
#952 = DIRECTION ( 'NONE',  ( 0.000000000000000000, 0.000000000000000000, -1.000000000000000000 ) ) ;
#953 = EDGE_CURVE ( 'NONE', #350, #1170, #842, .T. ) ;
#954 = DIRECTION ( 'NONE',  ( 0.000000000000000000, 0.000000000000000000, -1.000000000000000000 ) ) ;
#955 = CARTESIAN_POINT ( 'NONE',  ( -144.0233462090480998, -21.31734823636938003, -0.8000000000000003775 ) ) ;
#956 = AXIS2_PLACEMENT_3D ( 'NONE', #744, #1033, #650 ) ;
#957 = VERTEX_POINT ( 'NONE', #850 ) ;
#958 = DIRECTION ( 'NONE',  ( 0.000000000000000000, -1.000000000000000000, 0.000000000000000000 ) ) ;
#959 = DIRECTION ( 'NONE',  ( 0.000000000000000000, -1.000000000000000000, 0.000000000000000000 ) ) ;
#960 = PLANE ( 'NONE',  #1082 ) ;
#961 = PLANE ( 'NONE',  #395 ) ;
#962 = EDGE_LOOP ( 'NONE', ( #931, #270, #587, #913 ) ) ;
#963 = LINE ( 'NONE', #1159, #117 ) ;
#964 = ADVANCED_FACE ( 'NONE', ( #272 ), #652, .T. ) ;
#965 = LINE ( 'NONE', #688, #215 ) ;
#966 = CARTESIAN_POINT ( 'NONE',  ( -135.5914536851471723, -22.61734823636938430, -3.900000000000001688 ) ) ;
#967 = ORIENTED_EDGE ( 'NONE', *, *, #271, .T. ) ;
#968 = CARTESIAN_POINT ( 'NONE',  ( -148.1464518346657542, -24.11734823636938785, 0.000000000000000000 ) ) ;
#969 = ORIENTED_EDGE ( 'NONE', *, *, #947, .T. ) ;
#970 = AXIS2_PLACEMENT_3D ( 'NONE', #224, #413, #795 ) ;
#971 = LINE ( 'NONE', #1145, #618 ) ;
#972 = VECTOR ( 'NONE', #103, 1000.000000000000000 ) ;
#973 = AXIS2_PLACEMENT_3D ( 'NONE', #496, #400, #35 ) ;
#974 = CYLINDRICAL_SURFACE ( 'NONE', #767, 1.500000000000003775 ) ;
#975 = VERTEX_POINT ( 'NONE', #1030 ) ;
#976 = FACE_OUTER_BOUND ( 'NONE', #519, .T. ) ;
#977 = CARTESIAN_POINT ( 'NONE',  ( -150.9709516345056102, -22.16415320406303735, 0.000000000000000000 ) ) ;
#978 = ORIENTED_EDGE ( 'NONE', *, *, #125, .F. ) ;
#979 = CARTESIAN_POINT ( 'NONE',  ( -141.1464518346657542, -19.81734823636938359, -2.299999999999999378 ) ) ;
#980 = DIRECTION ( 'NONE',  ( 0.000000000000000000, 0.000000000000000000, -1.000000000000000000 ) ) ;
#981 = VERTEX_POINT ( 'NONE', #855 ) ;
#982 = DIRECTION ( 'NONE',  ( 0.000000000000000000, 0.000000000000000000, 1.000000000000000000 ) ) ;
#983 = ORIENTED_EDGE ( 'NONE', *, *, #733, .F. ) ;
#984 = CARTESIAN_POINT ( 'NONE',  ( -134.5464518346657883, -24.11734823636938785, 0.000000000000000000 ) ) ;
#985 = ADVANCED_FACE ( 'NONE', ( #1219 ), #378, .F. ) ;
#986 = CARTESIAN_POINT ( 'NONE',  ( -135.2935554276820085, -21.01734823636938287, -2.788228567653785017 ) ) ;
#987 = CIRCLE ( 'NONE', #459, 0.9000000000001033840 ) ;
#988 = ORIENTED_EDGE ( 'NONE', *, *, #929, .T. ) ;
#989 = CIRCLE ( 'NONE', #137, 1.999999999999999112 ) ;
#990 = CARTESIAN_POINT ( 'NONE',  ( -148.1464518346657542, -21.81734823636938003, -3.899999999999999911 ) ) ;
#991 = ORIENTED_EDGE ( 'NONE', *, *, #826, .F. ) ;
#992 = DIRECTION ( 'NONE',  ( -1.000000000000000000, 0.000000000000000000, 0.000000000000000000 ) ) ;
#993 = DIRECTION ( 'NONE',  ( 0.2588190451025186301, 0.000000000000000000, 0.9659258262890688673 ) ) ;
#994 = DIRECTION ( 'NONE',  ( 0.000000000000000000, -1.000000000000000000, 0.000000000000000000 ) ) ;
#995 = VERTEX_POINT ( 'NONE', #937 ) ;
#996 = ORIENTED_EDGE ( 'NONE', *, *, #671, .T. ) ;
#997 = ORIENTED_EDGE ( 'NONE', *, *, #287, .F. ) ;
#998 = LINE ( 'NONE', #1176, #1026 ) ;
#999 = DIRECTION ( 'NONE',  ( -1.000000000000000000, -0.000000000000000000, -0.000000000000000000 ) ) ;
#1000 = FACE_OUTER_BOUND ( 'NONE', #209, .T. ) ;
#1001 = ORIENTED_EDGE ( 'NONE', *, *, #465, .F. ) ;
#1002 = ORIENTED_EDGE ( 'NONE', *, *, #891, .T. ) ;
#1003 = CARTESIAN_POINT ( 'NONE',  ( -148.1464518346657542, -20.31734823636938003, -3.899999999999999911 ) ) ;
#1004 = ORIENTED_EDGE ( 'NONE', *, *, #695, .T. ) ;
#1005 = AXIS2_PLACEMENT_3D ( 'NONE', #1072, #1148, #40 ) ;
#1006 = EDGE_LOOP ( 'NONE', ( #207, #31, #1178, #860 ) ) ;
#1007 = VECTOR ( 'NONE', #586, 1000.000000000000000 ) ;
#1008 = ADVANCED_FACE ( 'NONE', ( #572 ), #470, .F. ) ;
#1009 = CARTESIAN_POINT ( 'NONE',  ( -141.1464518346657542, -24.11734823636938785, -3.100000000000000089 ) ) ;
#1010 = ORIENTED_EDGE ( 'NONE', *, *, #1206, .F. ) ;
#1011 = DIRECTION ( 'NONE',  ( 0.000000000000000000, 0.000000000000000000, -1.000000000000000000 ) ) ;
#1012 = FACE_OUTER_BOUND ( 'NONE', #456, .T. ) ;
#1013 = ORIENTED_EDGE ( 'NONE', *, *, #417, .F. ) ;
#1014 = DIRECTION ( 'NONE',  ( 0.000000000000000000, -1.000000000000000000, 0.000000000000000000 ) ) ;
#1015 = EDGE_CURVE ( 'NONE', #1040, #738, #475, .T. ) ;
#1016 = ORIENTED_EDGE ( 'NONE', *, *, #1117, .T. ) ;
#1017 = EDGE_CURVE ( 'NONE', #779, #13, #98, .T. ) ;
#1018 = DIRECTION ( 'NONE',  ( 0.000000000000000000, 0.000000000000000000, -1.000000000000000000 ) ) ;
#1019 = EDGE_LOOP ( 'NONE', ( #910, #1161, #528, #997, #1201 ) ) ;
#1020 = EDGE_CURVE ( 'NONE', #948, #20, #1124, .T. ) ;
#1021 = DIRECTION ( 'NONE',  ( 0.000000000000000000, -0.000000000000000000, 1.000000000000000000 ) ) ;
#1022 = ORIENTED_EDGE ( 'NONE', *, *, #432, .T. ) ;
#1023 = ORIENTED_EDGE ( 'NONE', *, *, #483, .F. ) ;
#1024 = AXIS2_PLACEMENT_3D ( 'NONE', #306, #959, #952 ) ;
#1025 = DIRECTION ( 'NONE',  ( -1.000000000000000000, -0.000000000000000000, 2.891205793294675861E-16 ) ) ;
#1026 = VECTOR ( 'NONE', #1080, 1000.000000000000000 ) ;
#1027 = LINE ( 'NONE', #380, #1123 ) ;
#1028 = VERTEX_POINT ( 'NONE', #663 ) ;
#1029 = CARTESIAN_POINT ( 'NONE',  ( -141.1464518346657542, -24.11734823636938785, -2.299999999999998934 ) ) ;
#1030 = CARTESIAN_POINT ( 'NONE',  ( -148.1464518346657542, -21.31734823636938003, -0.8000000000000003775 ) ) ;
#1031 = VECTOR ( 'NONE', #829, 1000.000000000000000 ) ;
#1032 = PLANE ( 'NONE',  #813 ) ;
#1033 = DIRECTION ( 'NONE',  ( -0.000000000000000000, -1.000000000000000000, -0.000000000000000000 ) ) ;
#1034 = EDGE_CURVE ( 'NONE', #439, #419, #1155, .T. ) ;
#1035 = DIRECTION ( 'NONE',  ( -0.9925461516413219831, 0.1218693434051478508, 0.000000000000000000 ) ) ;
#1036 = CARTESIAN_POINT ( 'NONE',  ( -151.4040041357071971, -21.41737110746775841, -0.1423374738529142591 ) ) ;
#1037 = ORIENTED_EDGE ( 'NONE', *, *, #338, .T. ) ;
#1038 = FACE_OUTER_BOUND ( 'NONE', #362, .T. ) ;
#1039 = EDGE_CURVE ( 'NONE', #902, #561, #188, .T. ) ;
#1040 = VERTEX_POINT ( 'NONE', #1078 ) ;
#1041 = CARTESIAN_POINT ( 'NONE',  ( -141.1464518346657542, -23.81734823636938359, -2.299999999999999378 ) ) ;
#1042 = AXIS2_PLACEMENT_3D ( 'NONE', #760, #1133, #288 ) ;
#1043 = DIRECTION ( 'NONE',  ( -0.000000000000000000, 0.000000000000000000, 1.000000000000000000 ) ) ;
#1044 = VERTEX_POINT ( 'NONE', #703 ) ;
#1045 = AXIS2_PLACEMENT_3D ( 'NONE', #172, #843, #370 ) ;
#1046 = LINE ( 'NONE', #655, #752 ) ;
#1047 = DIRECTION ( 'NONE',  ( 1.000000000000000000, -0.000000000000000000, -0.000000000000000000 ) ) ;
#1048 = CARTESIAN_POINT ( 'NONE',  ( -150.3464518346657712, -20.31734823636938003, -1.899999999999999689 ) ) ;
#1049 = DIRECTION ( 'NONE',  ( 0.000000000000000000, 1.000000000000000000, 0.000000000000000000 ) ) ;
#1050 = EDGE_LOOP ( 'NONE', ( #122, #48, #132, #1022, #715, #646, #1108, #467 ) ) ;
#1051 = CARTESIAN_POINT ( 'NONE',  ( -152.5464518346657883, -20.31734823636938003, 0.000000000000000000 ) ) ;
#1052 = LINE ( 'NONE', #672, #91 ) ;
#1053 = EDGE_CURVE ( 'NONE', #310, #830, #227, .T. ) ;
#1054 = DIRECTION ( 'NONE',  ( 0.000000000000000000, -1.000000000000000000, -0.000000000000000000 ) ) ;
#1055 = EDGE_LOOP ( 'NONE', ( #1, #440, #1211, #1120 ) ) ;
#1056 = FACE_OUTER_BOUND ( 'NONE', #1071, .T. ) ;
#1057 = ORIENTED_EDGE ( 'NONE', *, *, #369, .F. ) ;
#1058 = DIRECTION ( 'NONE',  ( 1.000000000000000000, -0.000000000000000000, 0.000000000000000000 ) ) ;
#1059 = LINE ( 'NONE', #1137, #562 ) ;
#1060 = CARTESIAN_POINT ( 'NONE',  ( -135.2935554276820085, -19.51734823636938287, -2.788228567653783241 ) ) ;
#1061 = VERTEX_POINT ( 'NONE', #328 ) ;
#1062 = FACE_OUTER_BOUND ( 'NONE', #1055, .T. ) ;
#1063 = VECTOR ( 'NONE', #904, 1000.000000000000000 ) ;
#1064 = FACE_OUTER_BOUND ( 'NONE', #141, .T. ) ;
#1065 = VECTOR ( 'NONE', #222, 1000.000000000000000 ) ;
#1066 = EDGE_CURVE ( 'NONE', #824, #981, #312, .T. ) ;
#1067 = CARTESIAN_POINT ( 'NONE',  ( -152.2186250486533083, -22.31734823636938003, -1.196460763832172258 ) ) ;
#1068 = VERTEX_POINT ( 'NONE', #10 ) ;
#1069 = PLANE ( 'NONE',  #259 ) ;
#1070 = LINE ( 'NONE', #605, #576 ) ;
#1071 = EDGE_LOOP ( 'NONE', ( #63, #686 ) ) ;
#1072 = CARTESIAN_POINT ( 'NONE',  ( -150.3464518346657712, -20.31734823636938003, -1.949999999999999956 ) ) ;
#1073 = VERTEX_POINT ( 'NONE', #321 ) ;
#1074 = DIRECTION ( 'NONE',  ( -0.9659258262890688673, 0.000000000000000000, 0.2588190451025186301 ) ) ;
#1075 = VERTEX_POINT ( 'NONE', #615 ) ;
#1076 = DIRECTION ( 'NONE',  ( -0.000000000000000000, 0.000000000000000000, -1.000000000000000000 ) ) ;
#1077 = CARTESIAN_POINT ( 'NONE',  ( -150.3464518346657712, -19.51734823636938287, -1.949999999999999956 ) ) ;
#1078 = CARTESIAN_POINT ( 'NONE',  ( -152.2186250486533083, -22.31734823636938003, -1.196460763832172258 ) ) ;
#1079 = VERTEX_POINT ( 'NONE', #530 ) ;
#1080 = DIRECTION ( 'NONE',  ( -1.000000000000000000, -0.000000000000000000, -0.000000000000000000 ) ) ;
#1081 = CARTESIAN_POINT ( 'NONE',  ( -135.2935554276820085, -21.01734823636938287, -2.788228567653785017 ) ) ;
#1082 = AXIS2_PLACEMENT_3D ( 'NONE', #383, #745, #1035 ) ;
#1083 = CARTESIAN_POINT ( 'NONE',  ( -136.7424441671156217, -24.11734823636938785, -2.399999999999999911 ) ) ;
#1084 = ORIENTED_EDGE ( 'NONE', *, *, #1106, .F. ) ;
#1085 = AXIS2_PLACEMENT_3D ( 'NONE', #955, #1043, #765 ) ;
#1086 = ORIENTED_EDGE ( 'NONE', *, *, #1015, .F. ) ;
#1087 = CARTESIAN_POINT ( 'NONE',  ( -150.3464518346657712, -23.31734823636938359, -1.899999999999999689 ) ) ;
#1088 = LINE ( 'NONE', #625, #458 ) ;
#1089 = CARTESIAN_POINT ( 'NONE',  ( -139.6464518346657542, -19.81734823636938359, -3.100000000000000089 ) ) ;
#1090 = ORIENTED_EDGE ( 'NONE', *, *, #1146, .F. ) ;
#1091 = CARTESIAN_POINT ( 'NONE',  ( -139.6464518346657542, -24.11734823636938785, -2.299999999999999822 ) ) ;
#1092 = ORIENTED_EDGE ( 'NONE', *, *, #231, .T. ) ;
#1093 = EDGE_CURVE ( 'NONE', #995, #957, #608, .T. ) ;
#1094 = CARTESIAN_POINT ( 'NONE',  ( -136.1130613262738223, -19.51734823636938287, -0.05111126056640173665 ) ) ;
#1095 = FACE_OUTER_BOUND ( 'NONE', #840, .T. ) ;
#1096 = EDGE_CURVE ( 'NONE', #709, #743, #669, .T. ) ;
#1097 = ORIENTED_EDGE ( 'NONE', *, *, #170, .F. ) ;
#1098 = EDGE_LOOP ( 'NONE', ( #1092, #254, #705, #649 ) ) ;
#1099 = CARTESIAN_POINT ( 'NONE',  ( -148.1464518346657542, -21.81734823636938003, -3.899999999999999911 ) ) ;
#1100 = ORIENTED_EDGE ( 'NONE', *, *, #125, .T. ) ;
#1101 = VECTOR ( 'NONE', #568, 1000.000000000000000 ) ;
#1102 = PLANE ( 'NONE',  #301 ) ;
#1103 = VECTOR ( 'NONE', #433, 1000.000000000000341 ) ;
#1104 = CYLINDRICAL_SURFACE ( 'NONE', #790, 1.500000000000000000 ) ;
#1105 = AXIS2_PLACEMENT_3D ( 'NONE', #1119, #1215, #482 ) ;
#1106 = EDGE_CURVE ( 'NONE', #335, #800, #219, .T. ) ;
#1107 = LINE ( 'NONE', #70, #595 ) ;
#1108 = ORIENTED_EDGE ( 'NONE', *, *, #28, .F. ) ;
#1109 = LINE ( 'NONE', #932, #1190 ) ;
#1110 = DIRECTION ( 'NONE',  ( 1.000000000000000000, -0.000000000000000000, -0.000000000000000000 ) ) ;
#1111 = EDGE_CURVE ( 'NONE', #773, #729, #131, .T. ) ;
#1112 = DIRECTION ( 'NONE',  ( 0.000000000000000000, -0.000000000000000000, -1.000000000000000000 ) ) ;
#1113 = EDGE_LOOP ( 'NONE', ( #796, #996, #1203, #322 ) ) ;
#1114 = CARTESIAN_POINT ( 'NONE',  ( -141.1464518346657542, -19.81734823636938359, -3.100000000000000089 ) ) ;
#1115 = ADVANCED_FACE ( 'NONE', ( #797 ), #974, .T. ) ;
#1116 = CARTESIAN_POINT ( 'NONE',  ( -141.1464518346657542, -19.81734823636938359, -2.299999999999999378 ) ) ;
#1117 = EDGE_CURVE ( 'NONE', #419, #148, #24, .T. ) ;
#1118 = EDGE_CURVE ( 'NONE', #516, #221, #410, .T. ) ;
#1119 = CARTESIAN_POINT ( 'NONE',  ( -150.3464518346657712, -20.31734823636938003, -1.899999999999999689 ) ) ;
#1120 = ORIENTED_EDGE ( 'NONE', *, *, #381, .F. ) ;
#1121 = CARTESIAN_POINT ( 'NONE',  ( -150.9709516345056102, -21.47054326867570140, 0.000000000000000000 ) ) ;
#1122 = VECTOR ( 'NONE', #999, 1000.000000000000000 ) ;
#1123 = VECTOR ( 'NONE', #1222, 1000.000000000000000 ) ;
#1124 = LINE ( 'NONE', #1129, #1217 ) ;
#1125 = AXIS2_PLACEMENT_3D ( 'NONE', #360, #563, #939 ) ;
#1126 = PLANE ( 'NONE',  #359 ) ;
#1127 = EDGE_CURVE ( 'NONE', #724, #948, #140, .T. ) ;
#1128 = DIRECTION ( 'NONE',  ( -1.000000000000000000, -0.000000000000000000, -0.000000000000000000 ) ) ;
#1129 = CARTESIAN_POINT ( 'NONE',  ( -141.1464518346657542, -23.81734823636938359, -2.299999999999999378 ) ) ;
#1130 = EDGE_LOOP ( 'NONE', ( #232, #803, #1004, #756, #285, #366, #735, #771, #385, #656, #798 ) ) ;
#1131 = CARTESIAN_POINT ( 'NONE',  ( -139.6464518346657542, -19.81734823636938359, -3.100000000000000089 ) ) ;
#1132 =( NAMED_UNIT ( * ) PLANE_ANGLE_UNIT ( ) SI_UNIT ( $, .RADIAN. ) );
#1133 = DIRECTION ( 'NONE',  ( 0.000000000000000000, 0.000000000000000000, -1.000000000000000000 ) ) ;
#1134 = CARTESIAN_POINT ( 'NONE',  ( 0.000000000000000000, -19.81734823636938359, 0.000000000000000000 ) ) ;
#1135 = VERTEX_POINT ( 'NONE', #781 ) ;
#1136 = DIRECTION ( 'NONE',  ( 0.000000000000000000, -1.000000000000000000, 0.000000000000000000 ) ) ;
#1137 = CARTESIAN_POINT ( 'NONE',  ( -137.0403424245807571, -19.51734823636938287, -3.511771432346221022 ) ) ;
#1138 = AXIS2_PLACEMENT_3D ( 'NONE', #429, #897, #993 ) ;
#1139 = LINE ( 'NONE', #184, #636 ) ;
#1140 = VECTOR ( 'NONE', #887, 1000.000000000000000 ) ;
#1141 = CARTESIAN_POINT ( 'NONE',  ( -152.0167811435147769, -20.31734823636938003, -0.8000000000000003775 ) ) ;
#1142 = VECTOR ( 'NONE', #1021, 1000.000000000000000 ) ;
#1143 = ORIENTED_EDGE ( 'NONE', *, *, #622, .F. ) ;
#1144 = AXIS2_PLACEMENT_3D ( 'NONE', #95, #1136, #101 ) ;
#1145 = CARTESIAN_POINT ( 'NONE',  ( -139.6464518346657542, -23.81734823636938359, -2.299999999999999822 ) ) ;
#1146 = EDGE_CURVE ( 'NONE', #1170, #773, #590, .T. ) ;
#1147 = PLANE ( 'NONE',  #377 ) ;
#1148 = DIRECTION ( 'NONE',  ( 0.000000000000000000, 1.000000000000000000, 0.000000000000000000 ) ) ;
#1149 = ORIENTED_EDGE ( 'NONE', *, *, #165, .F. ) ;
#1150 = CARTESIAN_POINT ( 'NONE',  ( -152.0167811435147769, -20.31734823636938003, -0.8000000000000003775 ) ) ;
#1151 = EDGE_CURVE ( 'NONE', #1075, #892, #987, .T. ) ;
#1152 = EDGE_LOOP ( 'NONE', ( #762, #41, #352, #1187 ) ) ;
#1153 = FACE_BOUND ( 'NONE', #297, .T. ) ;
#1154 = PRESENTATION_STYLE_ASSIGNMENT (( #1223 ) ) ;
#1155 = LINE ( 'NONE', #770, #416 ) ;
#1156 = ORIENTED_EDGE ( 'NONE', *, *, #574, .F. ) ;
#1157 = LINE ( 'NONE', #1141, #1007 ) ;
#1158 = ORIENTED_EDGE ( 'NONE', *, *, #86, .T. ) ;
#1159 = CARTESIAN_POINT ( 'NONE',  ( -144.0233462090480998, -22.31734823636938003, -0.8000000000000003775 ) ) ;
#1160 = DIRECTION ( 'NONE',  ( 0.000000000000000000, -1.000000000000000000, 0.000000000000000000 ) ) ;
#1161 = ORIENTED_EDGE ( 'NONE', *, *, #333, .F. ) ;
#1162 = PLANE ( 'NONE',  #176 ) ;
#1163 = VECTOR ( 'NONE', #547, 1000.000000000000114 ) ;
#1164 = CARTESIAN_POINT ( 'NONE',  ( -139.6464518346657542, -19.81734823636938359, -3.100000000000000089 ) ) ;
#1165 = VECTOR ( 'NONE', #1110, 1000.000000000000000 ) ;
#1166 = VECTOR ( 'NONE', #581, 1000.000000000000000 ) ;
#1167 = EDGE_CURVE ( 'NONE', #407, #1040, #192, .T. ) ;
#1168 = EDGE_LOOP ( 'NONE', ( #234, #665, #633, #391 ) ) ;
#1169 = DIRECTION ( 'NONE',  ( -0.000000000000000000, 1.000000000000000000, -0.000000000000000000 ) ) ;
#1170 = VERTEX_POINT ( 'NONE', #868 ) ;
#1171 = DIRECTION ( 'NONE',  ( 0.000000000000000000, -0.000000000000000000, 1.000000000000000000 ) ) ;
#1172 = CARTESIAN_POINT ( 'NONE',  ( -141.1464518346657542, -23.81734823636938359, -3.100000000000000089 ) ) ;
#1173 = VERTEX_POINT ( 'NONE', #977 ) ;
#1174 = CARTESIAN_POINT ( 'NONE',  ( -135.9953405740994015, -24.11734823636938785, 0.3882285676537772789 ) ) ;
#1175 = VERTEX_POINT ( 'NONE', #515 ) ;
#1176 = CARTESIAN_POINT ( 'NONE',  ( -144.0233462090480998, -21.31734823636938003, -0.8000000000000003775 ) ) ;
#1177 = CARTESIAN_POINT ( 'NONE',  ( -148.1464518346657542, -21.31734823636938003, -0.8000000000000003775 ) ) ;
#1178 = ORIENTED_EDGE ( 'NONE', *, *, #1066, .T. ) ;
#1179 = VERTEX_POINT ( 'NONE', #879 ) ;
#1180 = EDGE_CURVE ( 'NONE', #60, #906, #418, .T. ) ;
#1181 = CARTESIAN_POINT ( 'NONE',  ( -135.4762886145570633, -23.32337505446030335, -3.470198105300493996 ) ) ;
#1182 = EDGE_LOOP ( 'NONE', ( #766, #747, #81, #431 ) ) ;
#1183 = CARTESIAN_POINT ( 'NONE',  ( -150.3464518346657712, -20.31734823636938003, -3.899999999999999023 ) ) ;
#1184 = PLANE ( 'NONE',  #1138 ) ;
#1185 = AXIS2_PLACEMENT_3D ( 'NONE', #1194, #539, #345 ) ;
#1186 = CARTESIAN_POINT ( 'NONE',  ( -150.3464518346657997, -24.11734823636938430, -2.850000000000133316 ) ) ;
#1187 = ORIENTED_EDGE ( 'NONE', *, *, #194, .T. ) ;
#1188 = DIRECTION ( 'NONE',  ( 0.000000000000000000, 0.000000000000000000, 1.000000000000000000 ) ) ;
#1189 = VECTOR ( 'NONE', #405, 1000.000000000000000 ) ;
#1190 = VECTOR ( 'NONE', #183, 1000.000000000000000 ) ;
#1191 = AXIS2_PLACEMENT_3D ( 'NONE', #105, #373, #859 ) ;
#1192 = VERTEX_POINT ( 'NONE', #1091 ) ;
#1193 = EDGE_CURVE ( 'NONE', #1173, #221, #349, .T. ) ;
#1194 = CARTESIAN_POINT ( 'NONE',  ( -148.1464518346657542, -24.11734823636938785, -3.899999999999999911 ) ) ;
#1195 = CARTESIAN_POINT ( 'NONE',  ( -136.1130613262738223, -24.11734823636938785, -0.05111126056640217380 ) ) ;
#1196 = ORIENTED_EDGE ( 'NONE', *, *, #585, .T. ) ;
#1197 = ORIENTED_EDGE ( 'NONE', *, *, #927, .F. ) ;
#1198 = CARTESIAN_POINT ( 'NONE',  ( -152.2186250486530525, -21.31734823636938003, -2.603539236168492366 ) ) ;
#1199 = VERTEX_POINT ( 'NONE', #741 ) ;
#1200 = DIRECTION ( 'NONE',  ( -0.2588190451025186301, 0.000000000000000000, -0.9659258262890688673 ) ) ;
#1201 = ORIENTED_EDGE ( 'NONE', *, *, #189, .F. ) ;
#1202 = CARTESIAN_POINT ( 'NONE',  ( -148.1464518346657542, -19.51734823636937932, -3.899999999999999911 ) ) ;
#1203 = ORIENTED_EDGE ( 'NONE', *, *, #820, .T. ) ;
#1204 = AXIS2_PLACEMENT_3D ( 'NONE', #87, #83, #944 ) ;
#1205 = CARTESIAN_POINT ( 'NONE',  ( -152.2186250486530525, -21.31734823636938003, -2.603539236168492366 ) ) ;
#1206 = EDGE_CURVE ( 'NONE', #773, #800, #414, .T. ) ;
#1207 = DIRECTION ( 'NONE',  ( -0.000000000000000000, 1.000000000000000000, -0.000000000000000000 ) ) ;
#1208 = ORIENTED_EDGE ( 'NONE', *, *, #749, .F. ) ;
#1209 = DIRECTION ( 'NONE',  ( -1.000000000000000000, 0.000000000000000000, 0.000000000000000000 ) ) ;
#1210 = CARTESIAN_POINT ( 'NONE',  ( -144.0241026641963629, -21.31118740358487074, -0.8000000000000003775 ) ) ;
#1211 = ORIENTED_EDGE ( 'NONE', *, *, #294, .T. ) ;
#1212 = LINE ( 'NONE', #269, #1142 ) ;
#1213 = LINE ( 'NONE', #479, #1101 ) ;
#1214 = ADVANCED_FACE ( 'NONE', ( #536 ), #1104, .T. ) ;
#1215 = DIRECTION ( 'NONE',  ( -0.000000000000000000, -1.000000000000000000, 0.000000000000000000 ) ) ;
#1216 = DIRECTION ( 'NONE',  ( 0.2588190451025186301, 0.000000000000000000, 0.9659258262890688673 ) ) ;
#1217 = VECTOR ( 'NONE', #283, 1000.000000000000000 ) ;
#1218 = VECTOR ( 'NONE', #710, 1000.000000000000000 ) ;
#1219 = FACE_OUTER_BOUND ( 'NONE', #644, .T. ) ;
#1220 = EDGE_CURVE ( 'NONE', #100, #995, #920, .T. ) ;
#1221 = APPLICATION_CONTEXT ( 'automotive_design' ) ;
#1222 = DIRECTION ( 'NONE',  ( 0.000000000000000000, 1.000000000000000000, 0.000000000000000000 ) ) ;
#1223 = SURFACE_STYLE_USAGE ( .BOTH. , #205 ) ;
#1224 = DIRECTION ( 'NONE',  ( 0.000000000000000000, 0.000000000000000000, -1.000000000000000000 ) ) ;
#1225 = CARTESIAN_POINT ( 'NONE',  ( -136.7424441671156217, -19.56845949693577680, -3.899999999999999911 ) ) ;
ENDSEC;
END-ISO-10303-21;
