ISO-10303-21;
HEADER;
FILE_DESCRIPTION (( 'STEP AP214' ),
    '1' );
FILE_NAME ('ÐÂ°´¼ü.STEP',
    '2026-08-05T10:06:09',
    ( '' ),
    ( '' ),
    'SwSTEP 2.0',
    'SolidWorks 2025',
    '' );
FILE_SCHEMA (( 'AUTOMOTIVE_DESIGN' ));
ENDSEC;

DATA;
#1 = CARTESIAN_POINT ( 'NONE',  ( -30.13615781419466799, 3.200000000000000178, 2.000000000000000000 ) ) ;
#2 = EDGE_CURVE ( 'NONE', #1072, #362, #978, .T. ) ;
#3 = ORIENTED_EDGE ( 'NONE', *, *, #896, .F. ) ;
#4 = EDGE_CURVE ( 'NONE', #898, #210, #354, .T. ) ;
#5 = EDGE_CURVE ( 'NONE', #9, #525, #255, .T. ) ;
#6 = CARTESIAN_POINT ( 'NONE',  ( -12.55065786131999594, 3.200000000000000178, -2.100000000000000533 ) ) ;
#7 = CARTESIAN_POINT ( 'NONE',  ( -12.07925334052896460, 3.200000000000000178, -1.766666666666667052 ) ) ;
#8 = CARTESIAN_POINT ( 'NONE',  ( -19.86740919481999512, 0.000000000000000000, 2.500000000000000000 ) ) ;
#9 = VERTEX_POINT ( 'NONE', #243 ) ;
#10 = EDGE_CURVE ( 'NONE', #661, #1104, #34, .T. ) ;
#11 = PLANE ( 'NONE',  #964 ) ;
#12 = EDGE_CURVE ( 'NONE', #887, #9, #154, .T. ) ;
#13 = CIRCLE ( 'NONE', #1119, 0.5000000000000000000 ) ;
#14 = CARTESIAN_POINT ( 'NONE',  ( -29.05065786131999772, 3.200000000000000178, 0.2999999999999999334 ) ) ;
#15 = VECTOR ( 'NONE', #1114, 1000.000000000000000 ) ;
#16 = LINE ( 'NONE', #292, #317 ) ;
#17 = VERTEX_POINT ( 'NONE', #1070 ) ;
#18 = PRODUCT_DEFINITION_CONTEXT ( 'detailed design', #1115, 'design' ) ;
#19 = CARTESIAN_POINT ( 'NONE',  ( -20.26740919481999725, 0.000000000000000000, 2.500000000000000000 ) ) ;
#20 = CARTESIAN_POINT ( 'NONE',  ( -26.75065786131999701, 3.200000000000000178, -2.099999999999999201 ) ) ;
#21 = LINE ( 'NONE', #296, #687 ) ;
#22 = EDGE_LOOP ( 'NONE', ( #528, #1144, #359, #636 ) ) ;
#23 = DIRECTION ( 'NONE',  ( -0.000000000000000000, 1.000000000000000000, -0.000000000000000000 ) ) ;
#24 = CARTESIAN_POINT ( 'NONE',  ( -27.24199545231976316, 0.008662409000235567896, -1.710287430208816462 ) ) ;
#25 = LINE ( 'NONE', #947, #476 ) ;
#26 = CARTESIAN_POINT ( 'NONE',  ( -8.550657861319995945, 3.200000000000000178, -2.526875299633993202E-15 ) ) ;
#27 = VERTEX_POINT ( 'NONE', #602 ) ;
#28 = UNCERTAINTY_MEASURE_WITH_UNIT (LENGTH_MEASURE( 1.000000000000000082E-05 ), #762, 'distance_accuracy_value', 'NONE');
#29 = CARTESIAN_POINT ( 'NONE',  ( -18.05065786131999417, 3.200000000000000178, -1.100000000000000089 ) ) ;
#30 = CARTESIAN_POINT ( 'NONE',  ( -27.25065786132000056, 3.200000000000000178, -1.100000000000000311 ) ) ;
#31 = FACE_OUTER_BOUND ( 'NONE', #197, .T. ) ;
#32 = VECTOR ( 'NONE', #501, 1000.000000000000000 ) ;
#33 = CARTESIAN_POINT ( 'NONE',  ( -20.33644429894690475, 3.200000000000000178, -1.099999999999999867 ) ) ;
#34 = B_SPLINE_CURVE_WITH_KNOTS ( 'NONE', 3,
 ( #986, #1184, #259, #613 ),
 .UNSPECIFIED., .F., .F.,
 ( 4, 4 ),
 ( 0.000000000000000000, 0.0001857180827017266785 ),
 .UNSPECIFIED. ) ;
#35 = ORIENTED_EDGE ( 'NONE', *, *, #772, .F. ) ;
#36 = LINE ( 'NONE', #29, #763 ) ;
#37 = CARTESIAN_POINT ( 'NONE',  ( -11.35065786131999666, 3.200000000000000178, 0.7999999999999974909 ) ) ;
#38 = FACE_OUTER_BOUND ( 'NONE', #519, .T. ) ;
#39 = EDGE_CURVE ( 'NONE', #928, #730, #63, .T. ) ;
#40 = CARTESIAN_POINT ( 'NONE',  ( -12.55065786131999594, 2.700000000000000178, -2.100000000000000533 ) ) ;
#41 = DIRECTION ( 'NONE',  ( 0.000000000000000000, 0.000000000000000000, -1.000000000000000000 ) ) ;
#42 = DIRECTION ( 'NONE',  ( 1.000000000000000000, 0.000000000000000000, -7.228014483236694583E-17 ) ) ;
#43 = DIRECTION ( 'NONE',  ( 1.224646799147352468E-16, -0.000000000000000000, 1.000000000000000000 ) ) ;
#44 =( BOUNDED_CURVE ( )  B_SPLINE_CURVE ( 3, ( #635, #1201, #361, #84 ),
 .UNSPECIFIED., .F., .T. ) 
 B_SPLINE_CURVE_WITH_KNOTS ( ( 4, 4 ),
 ( 0.3398369094541248137, 1.570796326794896558 ),
 .UNSPECIFIED. ) 
 CURVE ( )  GEOMETRIC_REPRESENTATION_ITEM ( )  RATIONAL_B_SPLINE_CURVE ( ( 1.000000000000000000, 0.8776643872851512818, 0.8776643872851512818, 1.000000000000000000 ) ) 
 REPRESENTATION_ITEM ( '' )  );
#45 = SURFACE_STYLE_FILL_AREA ( #1154 ) ;
#46 = AXIS2_PLACEMENT_3D ( 'NONE', #457, #823, #839 ) ;
#47 = CARTESIAN_POINT ( 'NONE',  ( -10.55065786131999594, 0.000000000000000000, -1.100000000000000311 ) ) ;
#48 = PLANE ( 'NONE',  #860 ) ;
#49 = ORIENTED_EDGE ( 'NONE', *, *, #590, .F. ) ;
#50 = MECHANICAL_DESIGN_GEOMETRIC_PRESENTATION_REPRESENTATION (  '', ( #601 ), #550 ) ;
#51 = VECTOR ( 'NONE', #199, 1000.000000000000000 ) ;
#52 = CARTESIAN_POINT ( 'NONE',  ( -11.13644429894690013, 0.000000000000000000, -1.100000000000000311 ) ) ;
#53 = CARTESIAN_POINT ( 'NONE',  ( -18.09884601990864894, 0.000000000000000000, -1.599999999999999867 ) ) ;
#54 = ADVANCED_FACE ( 'NONE', ( #792 ), #993, .T. ) ;
#55 = ORIENTED_EDGE ( 'NONE', *, *, #419, .T. ) ;
#56 = CARTESIAN_POINT ( 'NONE',  ( -30.13615781419466799, 3.200000000000000178, 2.000000000000000000 ) ) ;
#57 = CARTESIAN_POINT ( 'NONE',  ( -28.16487142369309282, 3.200000000000000178, -1.100000000000000089 ) ) ;
#58 = VERTEX_POINT ( 'NONE', #885 ) ;
#59 = EDGE_CURVE ( 'NONE', #112, #217, #518, .T. ) ;
#60 = ORIENTED_EDGE ( 'NONE', *, *, #905, .F. ) ;
#61 = LINE ( 'NONE', #593, #469 ) ;
#62 = VERTEX_POINT ( 'NONE', #1169 ) ;
#63 = LINE ( 'NONE', #437, #1061 ) ;
#64 = ORIENTED_EDGE ( 'NONE', *, *, #826, .T. ) ;
#65 = ORIENTED_EDGE ( 'NONE', *, *, #485, .T. ) ;
#66 = AXIS2_PLACEMENT_3D ( 'NONE', #565, #755, #751 ) ;
#67 = DIRECTION ( 'NONE',  ( 0.000000000000000000, 0.000000000000000000, -1.000000000000000000 ) ) ;
#68 = ORIENTED_EDGE ( 'NONE', *, *, #958, .T. ) ;
#69 = CARTESIAN_POINT ( 'NONE',  ( -11.35065786131999666, 3.200000000000000178, 0.7999999999999974909 ) ) ;
#70 = CARTESIAN_POINT ( 'NONE',  ( -8.550657861319995945, 3.200000000000000178, -2.526875299633993202E-15 ) ) ;
#71 = EDGE_LOOP ( 'NONE', ( #1035, #684, #78, #794 ) ) ;
#72 = ORIENTED_EDGE ( 'NONE', *, *, #737, .T. ) ;
#73 = CARTESIAN_POINT ( 'NONE',  ( -12.05932027032023157, 3.191337590999764995, -1.710287430208816906 ) ) ;
#74 = FACE_OUTER_BOUND ( 'NONE', #1164, .T. ) ;
#75 = VERTEX_POINT ( 'NONE', #426 ) ;
#76 = CARTESIAN_POINT ( 'NONE',  ( -12.15234509500745297, 0.1016872336874555666, -1.973401367628909941 ) ) ;
#77 = CARTESIAN_POINT ( 'NONE',  ( -29.05065786131999772, 3.200000000000000178, 0.2999999999999999334 ) ) ;
#78 = ORIENTED_EDGE ( 'NONE', *, *, #228, .F. ) ;
#79 = ORIENTED_EDGE ( 'NONE', *, *, #315, .T. ) ;
#80 = DIRECTION ( 'NONE',  ( -0.000000000000000000, -1.000000000000000000, -0.000000000000000000 ) ) ;
#81 = CARTESIAN_POINT ( 'NONE',  ( -29.87564120425210135, 3.200000000000000178, 0.9443304420898058771 ) ) ;
#82 = ORIENTED_EDGE ( 'NONE', *, *, #852, .T. ) ;
#83 = LINE ( 'NONE', #973, #963 ) ;
#84 = CARTESIAN_POINT ( 'NONE',  ( -21.75065786131999701, 0.5000000000000000000, -2.099999999999999645 ) ) ;
#85 = EDGE_CURVE ( 'NONE', #112, #117, #799, .T. ) ;
#86 = ORIENTED_EDGE ( 'NONE', *, *, #132, .F. ) ;
#87 = CARTESIAN_POINT ( 'NONE',  ( -12.07925334052896282, 3.171404520791031967, -1.766666666666667274 ) ) ;
#88 = AXIS2_PLACEMENT_3D ( 'NONE', #784, #686, #1065 ) ;
#89 = CARTESIAN_POINT ( 'NONE',  ( -27.25065786132000056, 0.000000000000000000, -1.100000000000000311 ) ) ;
#90 = ORIENTED_EDGE ( 'NONE', *, *, #506, .T. ) ;
#91 = CYLINDRICAL_SURFACE ( 'NONE', #800, 0.5000000000000000000 ) ;
#92 = VECTOR ( 'NONE', #381, 1000.000000000000000 ) ;
#93 = FACE_OUTER_BOUND ( 'NONE', #795, .T. ) ;
#94 = ORIENTED_EDGE ( 'NONE', *, *, #765, .T. ) ;
#95 = EDGE_CURVE ( 'NONE', #100, #564, #579, .T. ) ;
#96 = CARTESIAN_POINT ( 'NONE',  ( -8.550657861319997721, 0.000000000000000000, 0.7999999999999974909 ) ) ;
#97 = CARTESIAN_POINT ( 'NONE',  ( -12.33138259788453439, 0.2807247365645373915, -2.100000000000000533 ) ) ;
#98 = DIRECTION ( 'NONE',  ( 1.000000000000000000, 0.000000000000000000, -7.228014483236694583E-17 ) ) ;
#99 = ADVANCED_FACE ( 'NONE', ( #767 ), #1135, .F. ) ;
#100 = VERTEX_POINT ( 'NONE', #941 ) ;
#101 = EDGE_CURVE ( 'NONE', #831, #1104, #953, .T. ) ;
#102 = DIRECTION ( 'NONE',  ( -0.000000000000000000, -1.000000000000000000, -0.000000000000000000 ) ) ;
#103 = CARTESIAN_POINT ( 'NONE',  ( -27.29884601990865178, 0.000000000000000000, -1.599999999999998979 ) ) ;
#104 = DIRECTION ( 'NONE',  ( 0.000000000000000000, 0.000000000000000000, -1.000000000000000000 ) ) ;
#105 = ORIENTED_EDGE ( 'NONE', *, *, #640, .F. ) ;
#106 = FACE_OUTER_BOUND ( 'NONE', #956, .T. ) ;
#107 = DIRECTION ( 'NONE',  ( 1.000000000000000000, 0.000000000000000000, 0.000000000000000000 ) ) ;
#108 = VECTOR ( 'NONE', #926, 1000.000000000000000 ) ;
#109 = VECTOR ( 'NONE', #1062, 1000.000000000000000 ) ;
#110 = PLANE ( 'NONE',  #591 ) ;
#111 = VECTOR ( 'NONE', #719, 1000.000000000000000 ) ;
#112 = VERTEX_POINT ( 'NONE', #1051 ) ;
#113 = DIRECTION ( 'NONE',  ( 1.000000000000000000, 0.000000000000000000, 0.000000000000000000 ) ) ;
#114 = FACE_OUTER_BOUND ( 'NONE', #1165, .T. ) ;
#115 = LINE ( 'NONE', #1038, #237 ) ;
#116 = CARTESIAN_POINT ( 'NONE',  ( -29.05065786131999772, 0.000000000000000000, 0.2999999999999999334 ) ) ;
#117 = VERTEX_POINT ( 'NONE', #404 ) ;
#118 = APPLICATION_CONTEXT ( 'automotive_design' ) ;
#119 = DIRECTION ( 'NONE',  ( 1.000000000000000000, 0.000000000000000000, 0.000000000000000000 ) ) ;
#120 = DIRECTION ( 'NONE',  ( 0.000000000000000000, -1.000000000000000000, 0.000000000000000000 ) ) ;
#121 = CARTESIAN_POINT ( 'NONE',  ( -21.53138259788453368, 2.919275263435462175, -2.099999999999999645 ) ) ;
#122 = LINE ( 'NONE', #781, #527 ) ;
#123 = ORIENTED_EDGE ( 'NONE', *, *, #143, .T. ) ;
#124 = ADVANCED_FACE ( 'NONE', ( #491 ), #110, .F. ) ;
#125 = CARTESIAN_POINT ( 'NONE',  ( -19.36740919481999512, 3.200000000000000178, 0.000000000000000000 ) ) ;
#126 = EDGE_CURVE ( 'NONE', #618, #759, #575, .T. ) ;
#127 = CARTESIAN_POINT ( 'NONE',  ( -20.33644429894690475, 0.000000000000000000, -2.100000000000000089 ) ) ;
#128 = CARTESIAN_POINT ( 'NONE',  ( -26.75065786131999701, 2.700000000000000178, -2.099999999999999201 ) ) ;
#129 = VECTOR ( 'NONE', #165, 1000.000000000000000 ) ;
#130 = ORIENTED_EDGE ( 'NONE', *, *, #607, .T. ) ;
#131 = EDGE_CURVE ( 'NONE', #513, #171, #25, .T. ) ;
#132 = EDGE_CURVE ( 'NONE', #793, #597, #849, .T. ) ;
#133 = FACE_OUTER_BOUND ( 'NONE', #158, .T. ) ;
#134 = DIRECTION ( 'NONE',  ( 0.000000000000000000, 0.000000000000000000, -1.000000000000000000 ) ) ;
#135 = CARTESIAN_POINT ( 'NONE',  ( -18.96487142369308998, 3.200000000000000178, -2.100000000000000089 ) ) ;
#136 = EDGE_CURVE ( 'NONE', #754, #178, #21, .T. ) ;
#137 = CARTESIAN_POINT ( 'NONE',  ( -12.00246970273133940, 0.000000000000000000, -1.600000000000000755 ) ) ;
#138 = DIRECTION ( 'NONE',  ( 1.000000000000000000, -0.000000000000000000, -7.228014483236694583E-17 ) ) ;
#139 = CARTESIAN_POINT ( 'NONE',  ( -27.22206238211103013, 3.171404520791031523, -1.766666666666667052 ) ) ;
#140 = ORIENTED_EDGE ( 'NONE', *, *, #774, .F. ) ;
#141 = SHAPE_DEFINITION_REPRESENTATION ( #748, #903 ) ;
#142 = PLANE ( 'NONE',  #205 ) ;
#143 = EDGE_CURVE ( 'NONE', #201, #696, #583, .T. ) ;
#144 = VECTOR ( 'NONE', #573, 1000.000000000000000 ) ;
#145 = ORIENTED_EDGE ( 'NONE', *, *, #937, .T. ) ;
#146 = AXIS2_PLACEMENT_3D ( 'NONE', #30, #386, #752 ) ;
#147 = DIRECTION ( 'NONE',  ( 0.000000000000000000, 0.000000000000000000, -1.000000000000000000 ) ) ;
#148 = DIRECTION ( 'NONE',  ( 0.7071067811865445751, -0.000000000000000000, 0.7071067811865505703 ) ) ;
#149 = ORIENTED_EDGE ( 'NONE', *, *, #1171, .F. ) ;
#150 = ORIENTED_EDGE ( 'NONE', *, *, #1124, .T. ) ;
#151 = B_SPLINE_CURVE_WITH_KNOTS ( 'NONE', 3,
 ( #544, #997, #73, #87 ),
 .UNSPECIFIED., .F., .F.,
 ( 4, 4 ),
 ( 0.000000000000000000, 0.0001857180827017249709 ),
 .UNSPECIFIED. ) ;
#152 = CARTESIAN_POINT ( 'NONE',  ( -21.75065786131999701, 0.5000000000000000000, -2.099999999999999645 ) ) ;
#153 = ORIENTED_EDGE ( 'NONE', *, *, #131, .T. ) ;
#154 = LINE ( 'NONE', #789, #930 ) ;
#155 = ORIENTED_EDGE ( 'NONE', *, *, #960, .F. ) ;
#156 = VERTEX_POINT ( 'NONE', #959 ) ;
#157 = CARTESIAN_POINT ( 'NONE',  ( -18.96487142369308998, 0.000000000000000000, -1.100000000000000089 ) ) ;
#158 = EDGE_LOOP ( 'NONE', ( #708, #1177, #916, #1198 ) ) ;
#159 = CARTESIAN_POINT ( 'NONE',  ( -17.55065786131999417, 2.700000000000000178, -2.100000000000000089 ) ) ;
#160 = DIRECTION ( 'NONE',  ( 0.000000000000000000, -1.000000000000000000, -0.000000000000000000 ) ) ;
#161 = EDGE_CURVE ( 'NONE', #439, #420, #115, .T. ) ;
#162 = EDGE_LOOP ( 'NONE', ( #718, #155, #901, #701 ) ) ;
#163 = ORIENTED_EDGE ( 'NONE', *, *, #649, .T. ) ;
#164 = VECTOR ( 'NONE', #173, 1000.000000000000000 ) ;
#165 = DIRECTION ( 'NONE',  ( -1.000000000000000000, 0.000000000000000000, 7.228014483236694583E-17 ) ) ;
#166 = CARTESIAN_POINT ( 'NONE',  ( -24.99935997849108915, 3.200000000000000178, -3.931950783671144478 ) ) ;
#167 = ORIENTED_EDGE ( 'NONE', *, *, #256, .T. ) ;
#168 = CYLINDRICAL_SURFACE ( 'NONE', #587, 0.5000000000000000000 ) ;
#169 = DIRECTION ( 'NONE',  ( 0.000000000000000000, -1.000000000000000000, 0.000000000000000000 ) ) ;
#170 = ORIENTED_EDGE ( 'NONE', *, *, #512, .T. ) ;
#171 = VERTEX_POINT ( 'NONE', #1045 ) ;
#172 = DIRECTION ( 'NONE',  ( 0.000000000000000000, 0.000000000000000000, 1.000000000000000000 ) ) ;
#173 = DIRECTION ( 'NONE',  ( 0.000000000000000000, -1.000000000000000000, 0.000000000000000000 ) ) ;
#174 = ORIENTED_EDGE ( 'NONE', *, *, #1079, .T. ) ;
#175 = FACE_OUTER_BOUND ( 'NONE', #516, .T. ) ;
#176 = B_SPLINE_CURVE_WITH_KNOTS ( 'NONE', 3,
 ( #1123, #299, #951, #745 ),
 .UNSPECIFIED., .F., .F.,
 ( 4, 4 ),
 ( 4.336808689942017255E-19, 0.0001857180827017264617 ),
 .UNSPECIFIED. ) ;
#177 = DIRECTION ( 'NONE',  ( 0.000000000000000000, 0.000000000000000000, 1.000000000000000000 ) ) ;
#178 = VERTEX_POINT ( 'NONE', #667 ) ;
#179 = CARTESIAN_POINT ( 'NONE',  ( -12.05065786131999594, 2.700000000000000178, -2.100000000000000533 ) ) ;
#180 = DIRECTION ( 'NONE',  ( 0.000000000000000000, 0.000000000000000000, 1.000000000000000000 ) ) ;
#181 = ORIENTED_EDGE ( 'NONE', *, *, #733, .F. ) ;
#182 = EDGE_CURVE ( 'NONE', #156, #1186, #218, .T. ) ;
#183 = ADVANCED_FACE ( 'NONE', ( #31 ), #400, .F. ) ;
#184 = DIRECTION ( 'NONE',  ( 1.000000000000000000, -0.000000000000000000, -7.228014483236694583E-17 ) ) ;
#185 = ORIENTED_EDGE ( 'NONE', *, *, #429, .F. ) ;
#186 = CARTESIAN_POINT ( 'NONE',  ( -11.35065786131999666, 3.200000000000000178, 0.7999999999999974909 ) ) ;
#187 = CIRCLE ( 'NONE', #720, 1.000000000000000000 ) ;
#188 = EDGE_CURVE ( 'NONE', #1112, #661, #1054, .T. ) ;
#189 = DIRECTION ( 'NONE',  ( 0.000000000000000000, -1.000000000000000000, -0.000000000000000000 ) ) ;
#190 = VECTOR ( 'NONE', #561, 1000.000000000000000 ) ;
#191 = EDGE_CURVE ( 'NONE', #521, #178, #1029, .T. ) ;
#192 = CARTESIAN_POINT ( 'NONE',  ( -21.25065786131999701, 0.5000000000000000000, -1.599999999999999423 ) ) ;
#193 = VERTEX_POINT ( 'NONE', #196 ) ;
#194 = CARTESIAN_POINT ( 'NONE',  ( -27.25065786132000056, 0.5000000000000000000, -2.099999999999999201 ) ) ;
#195 = CARTESIAN_POINT ( 'NONE',  ( -8.550657861319995945, 0.000000000000000000, -2.526875299633993202E-15 ) ) ;
#196 = CARTESIAN_POINT ( 'NONE',  ( -21.27925334052896744, 0.02859547920896885961, -1.766666666666667274 ) ) ;
#197 = EDGE_LOOP ( 'NONE', ( #1087, #610, #286, #629, #836, #982 ) ) ;
#198 = CARTESIAN_POINT ( 'NONE',  ( -10.55065786131999594, 3.200000000000000178, -2.281945939804522511E-15 ) ) ;
#199 = DIRECTION ( 'NONE',  ( 2.168404344971008868E-15, 0.000000000000000000, -1.000000000000000000 ) ) ;
#200 = CARTESIAN_POINT ( 'NONE',  ( -28.25141826616866325, 3.200000000000000178, 0.000000000000000000 ) ) ;
#201 = VERTEX_POINT ( 'NONE', #830 ) ;
#202 = EDGE_CURVE ( 'NONE', #270, #156, #562, .T. ) ;
#203 = CARTESIAN_POINT ( 'NONE',  ( -20.33644429894690475, 3.200000000000000178, -1.099999999999999867 ) ) ;
#204 = CYLINDRICAL_SURFACE ( 'NONE', #589, 0.5000000000000000000 ) ;
#205 = AXIS2_PLACEMENT_3D ( 'NONE', #985, #969, #42 ) ;
#206 = AXIS2_PLACEMENT_3D ( 'NONE', #125, #566, #957 ) ;
#207 = CARTESIAN_POINT ( 'NONE',  ( -21.27925334052896744, 3.171404520791031523, -1.766666666666667274 ) ) ;
#208 = AXIS2_PLACEMENT_3D ( 'NONE', #360, #596, #554 ) ;
#209 = CARTESIAN_POINT ( 'NONE',  ( -18.02206238211102374, 0.02859547920896875206, -1.766666666666667718 ) ) ;
#210 = VERTEX_POINT ( 'NONE', #374 ) ;
#211 = CARTESIAN_POINT ( 'NONE',  ( -20.33644429894690475, 0.000000000000000000, -1.099999999999999867 ) ) ;
#212 = CARTESIAN_POINT ( 'NONE',  ( -18.09884601990864894, 0.000000000000000000, -1.599999999999999867 ) ) ;
#213 = VECTOR ( 'NONE', #160, 1000.000000000000000 ) ;
#214 = DIRECTION ( 'NONE',  ( -0.000000000000000000, 1.000000000000000000, -0.000000000000000000 ) ) ;
#215 = EDGE_CURVE ( 'NONE', #75, #9, #747, .T. ) ;
#216 = CARTESIAN_POINT ( 'NONE',  ( -19.36740919481999512, 3.200000000000000178, 0.7999999999999950484 ) ) ;
#217 = VERTEX_POINT ( 'NONE', #279 ) ;
#218 = CIRCLE ( 'NONE', #481, 1.000000000000000000 ) ;
#219 =( NAMED_UNIT ( * ) PLANE_ANGLE_UNIT ( ) SI_UNIT ( $, .RADIAN. ) );
#220 = ADVANCED_FACE ( 'NONE', ( #288 ), #1010, .T. ) ;
#221 = DIRECTION ( 'NONE',  ( 0.000000000000000000, 0.000000000000000000, -1.000000000000000000 ) ) ;
#222 = EDGE_CURVE ( 'NONE', #1080, #328, #548, .T. ) ;
#223 = DIRECTION ( 'NONE',  ( 1.000000000000000000, 0.000000000000000000, 0.000000000000000000 ) ) ;
#224 = CARTESIAN_POINT ( 'NONE',  ( -18.96487142369308998, 3.200000000000000178, -1.100000000000000089 ) ) ;
#225 = EDGE_LOOP ( 'NONE', ( #535, #803, #86, #355 ) ) ;
#226 = DIRECTION ( 'NONE',  ( -0.000000000000000000, 1.000000000000000000, -0.000000000000000000 ) ) ;
#227 = PRESENTATION_STYLE_ASSIGNMENT (( #314 ) ) ;
#228 = EDGE_CURVE ( 'NONE', #991, #1194, #13, .T. ) ;
#229 = FACE_OUTER_BOUND ( 'NONE', #446, .T. ) ;
#230 = ADVANCED_FACE ( 'NONE', ( #465 ), #644, .F. ) ;
#231 = VECTOR ( 'NONE', #1176, 1000.000000000000000 ) ;
#232 = AXIS2_PLACEMENT_3D ( 'NONE', #664, #494, #1036 ) ;
#233 = CARTESIAN_POINT ( 'NONE',  ( -11.35065786131999666, 0.000000000000000000, 0.7999999999999974909 ) ) ;
#234 = LINE ( 'NONE', #333, #663 ) ;
#235 = DIRECTION ( 'NONE',  ( -1.000000000000000000, 0.000000000000000000, 1.445602896647339163E-16 ) ) ;
#236 = ORIENTED_EDGE ( 'NONE', *, *, #676, .T. ) ;
#237 = VECTOR ( 'NONE', #757, 1000.000000000000000 ) ;
#238 = FACE_OUTER_BOUND ( 'NONE', #705, .T. ) ;
#239 = CARTESIAN_POINT ( 'NONE',  ( -26.75065786131999701, 2.700000000000000178, -2.099999999999999201 ) ) ;
#240 = AXIS2_PLACEMENT_3D ( 'NONE', #656, #1034, #1125 ) ;
#241 = EDGE_LOOP ( 'NONE', ( #293, #185, #713, #1189, #1118, #149 ) ) ;
#242 = DIRECTION ( 'NONE',  ( -0.000000000000000000, -1.000000000000000000, -0.000000000000000000 ) ) ;
#243 = CARTESIAN_POINT ( 'NONE',  ( -29.05065786131999772, 0.000000000000000000, 0.2999999999999999334 ) ) ;
#244 = ORIENTED_EDGE ( 'NONE', *, *, #1153, .F. ) ;
#245 = PRESENTATION_LAYER_ASSIGNMENT (  '', '', ( #601 ) ) ;
#246 = ORIENTED_EDGE ( 'NONE', *, *, #937, .F. ) ;
#247 = ORIENTED_EDGE ( 'NONE', *, *, #467, .F. ) ;
#248 = VECTOR ( 'NONE', #23, 1000.000000000000000 ) ;
#249 = DIRECTION ( 'NONE',  ( -1.000000000000000000, 0.000000000000000000, 0.000000000000000000 ) ) ;
#250 = CARTESIAN_POINT ( 'NONE',  ( -29.05065786131999772, 0.000000000000000000, 0.2999999999999999334 ) ) ;
#251 = ORIENTED_EDGE ( 'NONE', *, *, #520, .F. ) ;
#252 = ORIENTED_EDGE ( 'NONE', *, *, #10, .T. ) ;
#253 = EDGE_CURVE ( 'NONE', #513, #521, #16, .T. ) ;
#254 = PRODUCT_RELATED_PRODUCT_CATEGORY ( 'part', '', ( #845 ) ) ;
#255 = B_SPLINE_CURVE_WITH_KNOTS ( 'NONE', 2,
 ( #250, #608, #882 ),
 .UNSPECIFIED., .F., .F.,
 ( 3, 3 ),
 ( 0.000000000000000000, 1.000000000000000000 ),
 .UNSPECIFIED. ) ;
#256 = EDGE_CURVE ( 'NONE', #754, #991, #643, .T. ) ;
#257 = DIRECTION ( 'NONE',  ( -0.000000000000000000, -1.000000000000000000, -0.000000000000000000 ) ) ;
#258 = ORIENTED_EDGE ( 'NONE', *, *, #315, .F. ) ;
#259 = CARTESIAN_POINT ( 'NONE',  ( -21.25932027032023441, 3.191337590999764551, -1.710287430208817128 ) ) ;
#260 = EDGE_LOOP ( 'NONE', ( #1073, #894, #1172, #258 ) ) ;
#261 = ORIENTED_EDGE ( 'NONE', *, *, #126, .T. ) ;
#262 = LINE ( 'NONE', #1197, #925 ) ;
#263 = ORIENTED_EDGE ( 'NONE', *, *, #12, .F. ) ;
#264 = DIRECTION ( 'NONE',  ( 0.000000000000000000, 0.000000000000000000, -1.000000000000000000 ) ) ;
#265 = DIRECTION ( 'NONE',  ( -1.000000000000000000, 0.000000000000000000, 1.224646799147352468E-16 ) ) ;
#266 = VERTEX_POINT ( 'NONE', #1191 ) ;
#267 = EDGE_LOOP ( 'NONE', ( #435, #347, #710, #558 ) ) ;
#268 = CARTESIAN_POINT ( 'NONE',  ( -11.35065786131999666, 0.000000000000000000, -1.841073092111475347E-15 ) ) ;
#269 = PLANE ( 'NONE',  #680 ) ;
#270 = VERTEX_POINT ( 'NONE', #1111 ) ;
#271 = LINE ( 'NONE', #910, #365 ) ;
#272 = DIRECTION ( 'NONE',  ( -0.7071067811865505703, -0.000000000000000000, 0.7071067811865444641 ) ) ;
#273 = ORIENTED_EDGE ( 'NONE', *, *, #641, .T. ) ;
#274 = PLANE ( 'NONE',  #1175 ) ;
#275 = EDGE_CURVE ( 'NONE', #887, #439, #817, .T. ) ;
#276 = DIRECTION ( 'NONE',  ( 0.000000000000000000, -1.000000000000000000, 0.000000000000000000 ) ) ;
#277 = VERTEX_POINT ( 'NONE', #628 ) ;
#278 = CARTESIAN_POINT ( 'NONE',  ( -12.55065786131999594, 2.700000000000000178, -2.100000000000000533 ) ) ;
#279 = CARTESIAN_POINT ( 'NONE',  ( -28.16487142369309282, 0.000000000000000000, -1.100000000000000089 ) ) ;
#280 = ORIENTED_EDGE ( 'NONE', *, *, #1027, .T. ) ;
#281 = B_SPLINE_CURVE_WITH_KNOTS ( 'NONE', 3,
 ( #578, #477, #307, #377 ),
 .UNSPECIFIED., .F., .F.,
 ( 4, 4 ),
 ( 2.194714508423963179E-19, 0.0001857180827017266785 ),
 .UNSPECIFIED. ) ;
#282 = DIRECTION ( 'NONE',  ( -1.000000000000000000, 0.000000000000000000, 7.228014483236694583E-17 ) ) ;
#283 = EDGE_CURVE ( 'NONE', #626, #1194, #1116, .T. ) ;
#284 = CARTESIAN_POINT ( 'NONE',  ( -12.15234509500744942, 3.098312766312544930, -1.973401367628910386 ) ) ;
#285 = LINE ( 'NONE', #451, #877 ) ;
#286 = ORIENTED_EDGE ( 'NONE', *, *, #1137, .F. ) ;
#287 = CARTESIAN_POINT ( 'NONE',  ( -8.550657861319997721, 3.200000000000000178, 0.7999999999999974909 ) ) ;
#288 = FACE_OUTER_BOUND ( 'NONE', #723, .T. ) ;
#289 = ORIENTED_EDGE ( 'NONE', *, *, #858, .T. ) ;
#290 = FACE_OUTER_BOUND ( 'NONE', #1081, .T. ) ;
#291 = DIRECTION ( 'NONE',  ( -1.000000000000000000, 0.000000000000000000, 6.776263578034400247E-17 ) ) ;
#292 = CARTESIAN_POINT ( 'NONE',  ( -18.56740919481999441, 0.000000000000000000, -1.837226093735097718E-16 ) ) ;
#293 = ORIENTED_EDGE ( 'NONE', *, *, #958, .F. ) ;
#294 = PLANE ( 'NONE',  #623 ) ;
#295 = FACE_OUTER_BOUND ( 'NONE', #241, .T. ) ;
#296 = CARTESIAN_POINT ( 'NONE',  ( -19.36740919481999512, 0.000000000000000000, 3.000000000000000000 ) ) ;
#297 = ORIENTED_EDGE ( 'NONE', *, *, #918, .T. ) ;
#298 = CARTESIAN_POINT ( 'NONE',  ( -30.13615781419466799, 0.000000000000000000, 2.000000000000000000 ) ) ;
#299 = CARTESIAN_POINT ( 'NONE',  ( -27.24199545231976316, 3.191337590999764551, -1.710287430208816462 ) ) ;
#300 = EDGE_CURVE ( 'NONE', #193, #449, #44, .T. ) ;
#301 = AXIS2_PLACEMENT_3D ( 'NONE', #880, #417, #977 ) ;
#302 = PRODUCT_DEFINITION_FORMATION_WITH_SPECIFIED_SOURCE ( 'ä»', '', #845, .NOT_KNOWN. ) ;
#303 = DIRECTION ( 'NONE',  ( 0.000000000000000000, 0.000000000000000000, -1.000000000000000000 ) ) ;
#304 = CARTESIAN_POINT ( 'NONE',  ( -29.05065786131999772, 3.200000000000000178, 0.2999999999999999334 ) ) ;
#305 = ORIENTED_EDGE ( 'NONE', *, *, #4, .T. ) ;
#306 = DIRECTION ( 'NONE',  ( -1.000000000000000000, 0.000000000000000000, 6.776263578034400247E-17 ) ) ;
#307 = CARTESIAN_POINT ( 'NONE',  ( -21.23392897971682913, 7.221983858942506769E-17, -1.654489066108239426 ) ) ;
#308 = EDGE_CURVE ( 'NONE', #806, #513, #285, .T. ) ;
#309 = EDGE_CURVE ( 'NONE', #17, #962, #370, .T. ) ;
#310 =( NAMED_UNIT ( * ) SI_UNIT ( $, .STERADIAN. ) SOLID_ANGLE_UNIT ( ) );
#311 = ORIENTED_EDGE ( 'NONE', *, *, #731, .T. ) ;
#312 = ADVANCED_FACE ( 'NONE', ( #93 ), #461, .T. ) ;
#313 = APPLICATION_PROTOCOL_DEFINITION ( 'draft international standard', 'automotive_design', 1998, #118 ) ;
#314 = SURFACE_STYLE_USAGE ( .BOTH. , #1055 ) ;
#315 = EDGE_CURVE ( 'NONE', #117, #75, #262, .T. ) ;
#316 = CARTESIAN_POINT ( 'NONE',  ( -30.13615781419466799, 3.200000000000000178, 2.000000000000000000 ) ) ;
#317 = VECTOR ( 'NONE', #721, 1000.000000000000000 ) ;
#318 = CARTESIAN_POINT ( 'NONE',  ( -18.56740919481999441, 0.000000000000000000, -1.837226093735097718E-16 ) ) ;
#319 = LINE ( 'NONE', #606, #1001 ) ;
#320 = AXIS2_PLACEMENT_3D ( 'NONE', #1163, #691, #1056 ) ;
#321 = DIRECTION ( 'NONE',  ( -0.000000000000000000, 1.000000000000000000, 0.000000000000000000 ) ) ;
#322 = AXIS2_PLACEMENT_3D ( 'NONE', #436, #1094, #264 ) ;
#323 = DIRECTION ( 'NONE',  ( 0.000000000000000000, 0.000000000000000000, 1.000000000000000000 ) ) ;
#324 = CARTESIAN_POINT ( 'NONE',  ( -28.25141826616866325, 3.200000000000000178, 0.000000000000000000 ) ) ;
#325 = CYLINDRICAL_SURFACE ( 'NONE', #301, 0.5000000000000000000 ) ;
#326 = LINE ( 'NONE', #486, #783 ) ;
#327 = ADVANCED_FACE ( 'NONE', ( #717 ), #269, .T. ) ;
#328 = VERTEX_POINT ( 'NONE', #631 ) ;
#329 = DIRECTION ( 'NONE',  ( 0.000000000000000000, 0.000000000000000000, 1.000000000000000000 ) ) ;
#330 = DIRECTION ( 'NONE',  ( -0.000000000000000000, -1.000000000000000000, -0.000000000000000000 ) ) ;
#331 = ORIENTED_EDGE ( 'NONE', *, *, #433, .T. ) ;
#332 = VERTEX_POINT ( 'NONE', #448 ) ;
#333 = CARTESIAN_POINT ( 'NONE',  ( -21.27925334052896744, 3.200000000000000178, -1.766666666666667052 ) ) ;
#334 = EDGE_LOOP ( 'NONE', ( #150, #906, #280, #594, #1127, #72, #612, #581, #430, #64, #1041, #174, #442, #261, #273, #487, #153, #163, #1011, #82, #609, #913, #123, #289, #1162, #653 ) ) ;
#335 = ADVANCED_FACE ( 'NONE', ( #441 ), #611, .T. ) ;
#336 = ORIENTED_EDGE ( 'NONE', *, *, #101, .T. ) ;
#337 = VECTOR ( 'NONE', #668, 1000.000000000000000 ) ;
#338 = VERTEX_POINT ( 'NONE', #157 ) ;
#339 = AXIS2_PLACEMENT_3D ( 'NONE', #950, #1031, #842 ) ;
#340 = EDGE_CURVE ( 'NONE', #759, #754, #1007, .T. ) ;
#341 = ADVANCED_FACE ( 'NONE', ( #539 ), #897, .F. ) ;
#342 = LINE ( 'NONE', #791, #698 ) ;
#343 = ORIENTED_EDGE ( 'NONE', *, *, #467, .T. ) ;
#344 = ADVANCED_FACE ( 'NONE', ( #358 ), #1108, .F. ) ;
#345 = CARTESIAN_POINT ( 'NONE',  ( -27.25065786132000056, 3.200000000000000178, -1.100000000000000311 ) ) ;
#346 = ORIENTED_EDGE ( 'NONE', *, *, #690, .T. ) ;
#347 = ORIENTED_EDGE ( 'NONE', *, *, #460, .F. ) ;
#348 = EDGE_CURVE ( 'NONE', #962, #523, #819, .T. ) ;
#349 = CARTESIAN_POINT ( 'NONE',  ( -19.36740919481999512, 3.200000000000000178, 2.500000000000000000 ) ) ;
#350 = EDGE_LOOP ( 'NONE', ( #371, #912, #876, #90 ) ) ;
#351 = CARTESIAN_POINT ( 'NONE',  ( -18.02206238211102374, 3.171404520791031523, -1.766666666666667718 ) ) ;
#352 = CARTESIAN_POINT ( 'NONE',  ( -18.02206238211102374, 0.02859547920896875206, -1.766666666666667718 ) ) ;
#353 = ORIENTED_EDGE ( 'NONE', *, *, #191, .F. ) ;
#354 = B_SPLINE_CURVE_WITH_KNOTS ( 'NONE', 3,
 ( #53, #418, #414, #352 ),
 .UNSPECIFIED., .F., .F.,
 ( 4, 4 ),
 ( 0.000000000000000000, 0.0001857180827017268683 ),
 .UNSPECIFIED. ) ;
#355 = ORIENTED_EDGE ( 'NONE', *, *, #960, .T. ) ;
#356 = VECTOR ( 'NONE', #272, 1000.000000000000114 ) ;
#357 = CARTESIAN_POINT ( 'NONE',  ( -21.06740919481999441, 3.200000000000000178, 0.000000000000000000 ) ) ;
#358 = FACE_OUTER_BOUND ( 'NONE', #334, .T. ) ;
#359 = ORIENTED_EDGE ( 'NONE', *, *, #634, .F. ) ;
#360 = CARTESIAN_POINT ( 'NONE',  ( -19.86740919481999512, 3.200000000000000178, 2.500000000000000000 ) ) ;
#361 = CARTESIAN_POINT ( 'NONE',  ( -21.53138259788453368, 0.2807247365645381132, -2.099999999999999645 ) ) ;
#362 = VERTEX_POINT ( 'NONE', #531 ) ;
#363 = VERTEX_POINT ( 'NONE', #908 ) ;
#364 = ADVANCED_FACE ( 'NONE', ( #74 ), #434, .T. ) ;
#365 = VECTOR ( 'NONE', #189, 1000.000000000000000 ) ;
#366 = VECTOR ( 'NONE', #530, 1000.000000000000000 ) ;
#367 = DIRECTION ( 'NONE',  ( 0.000000000000000000, -1.000000000000000000, 0.000000000000000000 ) ) ;
#368 = DIRECTION ( 'NONE',  ( 0.000000000000000000, -1.000000000000000000, 0.000000000000000000 ) ) ;
#369 = ORIENTED_EDGE ( 'NONE', *, *, #222, .F. ) ;
#370 = LINE ( 'NONE', #729, #108 ) ;
#371 = ORIENTED_EDGE ( 'NONE', *, *, #640, .T. ) ;
#372 = DIRECTION ( 'NONE',  ( 1.000000000000000000, 0.000000000000000000, -1.445602896647339903E-16 ) ) ;
#373 = CARTESIAN_POINT ( 'NONE',  ( -11.13644429894690013, 3.200000000000000178, -1.100000000000000311 ) ) ;
#374 = CARTESIAN_POINT ( 'NONE',  ( -18.02206238211102374, 0.02859547920896875206, -1.766666666666667718 ) ) ;
#375 = ORIENTED_EDGE ( 'NONE', *, *, #892, .F. ) ;
#376 = CARTESIAN_POINT ( 'NONE',  ( -29.87564120425210135, 3.200000000000000178, -1.599999999999998979 ) ) ;
#377 = CARTESIAN_POINT ( 'NONE',  ( -21.20246970273134224, 0.000000000000000000, -1.599999999999999423 ) ) ;
#378 = CARTESIAN_POINT ( 'NONE',  ( -21.25065786131999701, 0.000000000000000000, -1.599999999999999423 ) ) ;
#379 = VERTEX_POINT ( 'NONE', #545 ) ;
#380 = EDGE_CURVE ( 'NONE', #217, #75, #1188, .T. ) ;
#381 = DIRECTION ( 'NONE',  ( -0.000000000000000000, -1.000000000000000000, -0.000000000000000000 ) ) ;
#382 = AXIS2_PLACEMENT_3D ( 'NONE', #508, #874, #134 ) ;
#383 = CIRCLE ( 'NONE', #824, 1.000000000000000000 ) ;
#384 = DIRECTION ( 'NONE',  ( 0.000000000000000000, -1.000000000000000000, 0.000000000000000000 ) ) ;
#385 = EDGE_LOOP ( 'NONE', ( #425, #1023, #1090, #246 ) ) ;
#386 = DIRECTION ( 'NONE',  ( 2.409338161078899674E-16, -0.000000000000000000, 1.000000000000000000 ) ) ;
#387 = DIRECTION ( 'NONE',  ( 1.000000000000000000, 0.000000000000000000, -1.445602896647339163E-16 ) ) ;
#388 = ORIENTED_EDGE ( 'NONE', *, *, #892, .T. ) ;
#389 = LINE ( 'NONE', #198, #1076 ) ;
#390 = LINE ( 'NONE', #287, #51 ) ;
#391 = CARTESIAN_POINT ( 'NONE',  ( -10.55065786131999594, 3.200000000000000178, -1.100000000000000311 ) ) ;
#392 = DIRECTION ( 'NONE',  ( 1.000000000000000000, 0.000000000000000000, -1.224646799147352468E-16 ) ) ;
#393 = EDGE_LOOP ( 'NONE', ( #343, #346, #999, #971 ) ) ;
#394 = AXIS2_PLACEMENT_3D ( 'NONE', #741, #556, #932 ) ;
#395 = EDGE_CURVE ( 'NONE', #991, #618, #1092, .T. ) ;
#396 = DIRECTION ( 'NONE',  ( 0.000000000000000000, -1.000000000000000000, 0.000000000000000000 ) ) ;
#397 = LINE ( 'NONE', #843, #665 ) ;
#398 = AXIS2_PLACEMENT_3D ( 'NONE', #81, #276, #998 ) ;
#399 = VECTOR ( 'NONE', #282, 1000.000000000000000 ) ;
#400 = CYLINDRICAL_SURFACE ( 'NONE', #240, 1.000000000000000000 ) ;
#401 = ORIENTED_EDGE ( 'NONE', *, *, #340, .F. ) ;
#402 = ADVANCED_FACE ( 'NONE', ( #455 ), #704, .F. ) ;
#403 = DIRECTION ( 'NONE',  ( -1.000000000000000000, 0.000000000000000000, -0.000000000000000000 ) ) ;
#404 = CARTESIAN_POINT ( 'NONE',  ( -29.05065786131999772, 3.200000000000000178, -1.099999999999999867 ) ) ;
#405 = LINE ( 'NONE', #875, #646 ) ;
#406 = LINE ( 'NONE', #298, #902 ) ;
#407 = DIRECTION ( 'NONE',  ( 1.000000000000000000, 0.000000000000000000, 0.000000000000000000 ) ) ;
#408 = CARTESIAN_POINT ( 'NONE',  ( -21.25065786131999701, 2.700000000000000178, -2.099999999999999645 ) ) ;
#409 = LINE ( 'NONE', #233, #1039 ) ;
#410 = CYLINDRICAL_SURFACE ( 'NONE', #88, 0.5000000000000000000 ) ;
#411 = CARTESIAN_POINT ( 'NONE',  ( -30.15787457074687339, 0.000000000000000000, 0.7386608841796118430 ) ) ;
#412 = ORIENTED_EDGE ( 'NONE', *, *, #1083, .T. ) ;
#413 = FACE_OUTER_BOUND ( 'NONE', #385, .T. ) ;
#414 = CARTESIAN_POINT ( 'NONE',  ( -18.04199545231976032, 0.008662409000235560957, -1.710287430208817350 ) ) ;
#415 = EDGE_LOOP ( 'NONE', ( #632, #669, #904, #813 ) ) ;
#416 = EDGE_CURVE ( 'NONE', #420, #100, #61, .T. ) ;
#417 = DIRECTION ( 'NONE',  ( 0.000000000000000000, -1.000000000000000000, -0.000000000000000000 ) ) ;
#418 = CARTESIAN_POINT ( 'NONE',  ( -18.06738674292316560, 7.591519308353036723E-19, -1.654489066108239426 ) ) ;
#419 = EDGE_CURVE ( 'NONE', #1104, #193, #234, .T. ) ;
#420 = VERTEX_POINT ( 'NONE', #796 ) ;
#421 = ORIENTED_EDGE ( 'NONE', *, *, #512, .F. ) ;
#422 = EDGE_CURVE ( 'NONE', #217, #270, #489, .T. ) ;
#423 = ADVANCED_FACE ( 'NONE', ( #238 ), #142, .F. ) ;
#424 = DIRECTION ( 'NONE',  ( 0.000000000000000000, -1.000000000000000000, 0.000000000000000000 ) ) ;
#425 = ORIENTED_EDGE ( 'NONE', *, *, #1088, .F. ) ;
#426 = CARTESIAN_POINT ( 'NONE',  ( -29.05065786131999772, 0.000000000000000000, -1.099999999999999867 ) ) ;
#427 = ORIENTED_EDGE ( 'NONE', *, *, #681, .F. ) ;
#428 = AXIS2_PLACEMENT_3D ( 'NONE', #1060, #972, #595 ) ;
#429 = EDGE_CURVE ( 'NONE', #277, #62, #319, .T. ) ;
#430 = ORIENTED_EDGE ( 'NONE', *, *, #416, .T. ) ;
#431 = CIRCLE ( 'NONE', #927, 0.5000000000000000000 ) ;
#432 = DIRECTION ( 'NONE',  ( 1.000000000000000000, 0.000000000000000000, 0.000000000000000000 ) ) ;
#433 = EDGE_CURVE ( 'NONE', #707, #831, #682, .T. ) ;
#434 = CYLINDRICAL_SURFACE ( 'NONE', #1174, 0.5000000000000000000 ) ;
#435 = ORIENTED_EDGE ( 'NONE', *, *, #774, .T. ) ;
#436 = CARTESIAN_POINT ( 'NONE',  ( -20.26740919481999725, 3.200000000000000178, 0.000000000000000000 ) ) ;
#437 = CARTESIAN_POINT ( 'NONE',  ( -8.550657861319995945, 0.000000000000000000, -2.526875299633993202E-15 ) ) ;
#438 = ORIENTED_EDGE ( 'NONE', *, *, #905, .T. ) ;
#439 = VERTEX_POINT ( 'NONE', #56 ) ;
#440 = LINE ( 'NONE', #459, #490 ) ;
#441 = FACE_OUTER_BOUND ( 'NONE', #1093, .T. ) ;
#442 = ORIENTED_EDGE ( 'NONE', *, *, #1117, .T. ) ;
#443 = CARTESIAN_POINT ( 'NONE',  ( -29.87564120425210135, 2.700000000000000178, -1.599999999999998979 ) ) ;
#444 = CARTESIAN_POINT ( 'NONE',  ( -30.15787457074687339, 3.200000000000000178, 0.7386608841796118430 ) ) ;
#445 = ORIENTED_EDGE ( 'NONE', *, *, #733, .T. ) ;
#446 = EDGE_LOOP ( 'NONE', ( #1180, #94, #388, #770 ) ) ;
#447 = CARTESIAN_POINT ( 'NONE',  ( -27.29884601990865178, 3.200000000000000178, -1.599999999999999201 ) ) ;
#448 = CARTESIAN_POINT ( 'NONE',  ( -12.07925334052896282, 3.171404520791031967, -1.766666666666667274 ) ) ;
#449 = VERTEX_POINT ( 'NONE', #152 ) ;
#450 = PLANE ( 'NONE',  #322 ) ;
#451 = CARTESIAN_POINT ( 'NONE',  ( -24.69369042058099950, 3.200000000000000178, 6.126281225760952687 ) ) ;
#452 = ORIENTED_EDGE ( 'NONE', *, *, #191, .T. ) ;
#453 = VECTOR ( 'NONE', #711, 1000.000000000000000 ) ;
#454 = FACE_OUTER_BOUND ( 'NONE', #393, .T. ) ;
#455 = FACE_OUTER_BOUND ( 'NONE', #1030, .T. ) ;
#456 = LINE ( 'NONE', #688, #504 ) ;
#457 = CARTESIAN_POINT ( 'NONE',  ( -19.36740919481999512, 3.200000000000000178, 3.000000000000000000 ) ) ;
#458 = ORIENTED_EDGE ( 'NONE', *, *, #161, .F. ) ;
#459 = CARTESIAN_POINT ( 'NONE',  ( -19.36740919481999512, 0.000000000000000000, 0.000000000000000000 ) ) ;
#460 = EDGE_CURVE ( 'NONE', #1072, #928, #503, .T. ) ;
#461 = CYLINDRICAL_SURFACE ( 'NONE', #1196, 0.5000000000000000000 ) ;
#462 = ADVANCED_FACE ( 'NONE', ( #965 ), #1168, .F. ) ;
#463 = DIRECTION ( 'NONE',  ( 1.000000000000000000, 0.000000000000000000, 0.000000000000000000 ) ) ;
#464 = PLANE ( 'NONE',  #146 ) ;
#465 = FACE_OUTER_BOUND ( 'NONE', #994, .T. ) ;
#466 = ORIENTED_EDGE ( 'NONE', *, *, #395, .F. ) ;
#467 = EDGE_CURVE ( 'NONE', #480, #502, #496, .T. ) ;
#468 = DIRECTION ( 'NONE',  ( 0.000000000000000000, 0.000000000000000000, -1.000000000000000000 ) ) ;
#469 = VECTOR ( 'NONE', #147, 1000.000000000000000 ) ;
#470 = CYLINDRICAL_SURFACE ( 'NONE', #943, 1.000000000000000000 ) ;
#471 = CIRCLE ( 'NONE', #232, 1.000000000000000000 ) ;
#472 = CARTESIAN_POINT ( 'NONE',  ( -19.86740919481999512, 3.200000000000000178, 2.500000000000000000 ) ) ;
#473 = B_SPLINE_CURVE_WITH_KNOTS ( 'NONE', 3,
 ( #778, #782, #968, #137 ),
 .UNSPECIFIED., .F., .F.,
 ( 4, 4 ),
 ( 0.000000000000000000, 0.0001857180827017254317 ),
 .UNSPECIFIED. ) ;
#474 = VERTEX_POINT ( 'NONE', #870 ) ;
#475 = LINE ( 'NONE', #847, #248 ) ;
#476 = VECTOR ( 'NONE', #844, 1000.000000000000000 ) ;
#477 = CARTESIAN_POINT ( 'NONE',  ( -21.25932027032023441, 0.008662409000235710144, -1.710287430208816906 ) ) ;
#478 = DIRECTION ( 'NONE',  ( -1.000000000000000000, 0.000000000000000000, 1.445602896647339656E-16 ) ) ;
#479 = ADVANCED_FACE ( 'NONE', ( #413 ), #325, .T. ) ;
#480 = VERTEX_POINT ( 'NONE', #47 ) ;
#481 = AXIS2_PLACEMENT_3D ( 'NONE', #127, #214, #855 ) ;
#482 = PLANE ( 'NONE',  #339 ) ;
#483 = FACE_OUTER_BOUND ( 'NONE', #71, .T. ) ;
#484 = CARTESIAN_POINT ( 'NONE',  ( -21.35234509500745403, 3.098312766312544042, -1.973401367628909497 ) ) ;
#485 = EDGE_CURVE ( 'NONE', #328, #266, #342, .T. ) ;
#486 = CARTESIAN_POINT ( 'NONE',  ( -29.87564120425210135, 3.200000000000000178, -1.599999999999998090 ) ) ;
#487 = ORIENTED_EDGE ( 'NONE', *, *, #308, .T. ) ;
#488 = FACE_OUTER_BOUND ( 'NONE', #260, .T. ) ;
#489 = CIRCLE ( 'NONE', #428, 1.000000000000000000 ) ;
#490 = VECTOR ( 'NONE', #833, 1000.000000000000000 ) ;
#491 = FACE_OUTER_BOUND ( 'NONE', #225, .T. ) ;
#492 = CARTESIAN_POINT ( 'NONE',  ( -26.96993312475546389, 2.919275263435462175, -2.099999999999999201 ) ) ;
#493 = ORIENTED_EDGE ( 'NONE', *, *, #253, .F. ) ;
#494 = DIRECTION ( 'NONE',  ( -0.000000000000000000, 1.000000000000000000, -0.000000000000000000 ) ) ;
#495 = LINE ( 'NONE', #773, #1142 ) ;
#496 = LINE ( 'NONE', #515, #231 ) ;
#497 = VECTOR ( 'NONE', #478, 1000.000000000000000 ) ;
#498 = CARTESIAN_POINT ( 'NONE',  ( -17.55065786131999417, 0.5000000000000000000, -2.100000000000000089 ) ) ;
#499 = CARTESIAN_POINT ( 'NONE',  ( -18.02206238211102374, 3.171404520791031523, -1.766666666666667718 ) ) ;
#500 = CARTESIAN_POINT ( 'NONE',  ( -8.550657861319995945, 3.200000000000000178, -2.526875299633993202E-15 ) ) ;
#501 = DIRECTION ( 'NONE',  ( -0.000000000000000000, 1.000000000000000000, -0.000000000000000000 ) ) ;
#502 = VERTEX_POINT ( 'NONE', #52 ) ;
#503 = LINE ( 'NONE', #500, #1102 ) ;
#504 = VECTOR ( 'NONE', #829, 1000.000000000000000 ) ;
#505 = VECTOR ( 'NONE', #907, 1000.000000000000000 ) ;
#506 = EDGE_CURVE ( 'NONE', #420, #1071, #1155, .T. ) ;
#507 = ORIENTED_EDGE ( 'NONE', *, *, #433, .F. ) ;
#508 = CARTESIAN_POINT ( 'NONE',  ( -20.33644429894690475, 3.200000000000000178, -2.100000000000000089 ) ) ;
#509 = DIRECTION ( 'NONE',  ( 0.000000000000000000, 1.000000000000000000, 0.000000000000000000 ) ) ;
#510 = ORIENTED_EDGE ( 'NONE', *, *, #563, .T. ) ;
#511 = ADVANCED_FACE ( 'NONE', ( #889 ), #410, .T. ) ;
#512 = EDGE_CURVE ( 'NONE', #338, #898, #742, .T. ) ;
#513 = VERTEX_POINT ( 'NONE', #1068 ) ;
#514 = ORIENTED_EDGE ( 'NONE', *, *, #681, .T. ) ;
#515 = CARTESIAN_POINT ( 'NONE',  ( -10.55065786131999594, 0.000000000000000000, -1.100000000000000311 ) ) ;
#516 = EDGE_LOOP ( 'NONE', ( #3, #305, #810, #369, #35, #510 ) ) ;
#517 = ADVANCED_FACE ( 'NONE', ( #229 ), #598, .F. ) ;
#518 = LINE ( 'NONE', #57, #213 ) ;
#519 = EDGE_LOOP ( 'NONE', ( #537, #787, #714, #981 ) ) ;
#520 = EDGE_CURVE ( 'NONE', #201, #480, #495, .T. ) ;
#521 = VERTEX_POINT ( 'NONE', #318 ) ;
#522 = CARTESIAN_POINT ( 'NONE',  ( -19.81740919481999441, 1.600000000000000089, 2.997493718553310149 ) ) ;
#523 = VERTEX_POINT ( 'NONE', #1064 ) ;
#524 = DIRECTION ( 'NONE',  ( 1.000000000000000000, 0.000000000000000000, -1.445602896647339163E-16 ) ) ;
#525 = VERTEX_POINT ( 'NONE', #679 ) ;
#526 = ORIENTED_EDGE ( 'NONE', *, *, #222, .T. ) ;
#527 = VECTOR ( 'NONE', #321, 1000.000000000000000 ) ;
#528 = ORIENTED_EDGE ( 'NONE', *, *, #348, .F. ) ;
#529 =( GEOMETRIC_REPRESENTATION_CONTEXT ( 3 ) GLOBAL_UNCERTAINTY_ASSIGNED_CONTEXT ( ( #28 ) ) GLOBAL_UNIT_ASSIGNED_CONTEXT ( ( #762, #219, #771 ) ) REPRESENTATION_CONTEXT ( 'NONE', 'WORKASPACE' ) );
#530 = DIRECTION ( 'NONE',  ( 0.000000000000000000, 0.000000000000000000, 1.000000000000000000 ) ) ;
#531 = CARTESIAN_POINT ( 'NONE',  ( -10.55065786131999594, 3.200000000000000178, -2.281945939804522511E-15 ) ) ;
#532 = ORIENTED_EDGE ( 'NONE', *, *, #188, .F. ) ;
#533 = CARTESIAN_POINT ( 'NONE',  ( -19.36740919481999512, 0.000000000000000000, 2.500000000000000000 ) ) ;
#534 = DIRECTION ( 'NONE',  ( 0.000000000000000000, -1.000000000000000000, 0.000000000000000000 ) ) ;
#535 = ORIENTED_EDGE ( 'NONE', *, *, #557, .T. ) ;
#536 = AXIS2_PLACEMENT_3D ( 'NONE', #472, #572, #303 ) ;
#537 = ORIENTED_EDGE ( 'NONE', *, *, #5, .T. ) ;
#538 = CARTESIAN_POINT ( 'NONE',  ( -8.550657861319995945, 3.200000000000000178, -2.526875299633993202E-15 ) ) ;
#539 = FACE_OUTER_BOUND ( 'NONE', #162, .T. ) ;
#540 = ORIENTED_EDGE ( 'NONE', *, *, #1153, .T. ) ;
#541 = DIRECTION ( 'NONE',  ( 0.000000000000000000, 0.000000000000000000, -1.000000000000000000 ) ) ;
#542 = CARTESIAN_POINT ( 'NONE',  ( -20.26740919481999725, 0.000000000000000000, 0.000000000000000000 ) ) ;
#543 = ORIENTED_EDGE ( 'NONE', *, *, #340, .T. ) ;
#544 = CARTESIAN_POINT ( 'NONE',  ( -12.00246970273133940, 3.200000000000000178, -1.600000000000000755 ) ) ;
#545 = CARTESIAN_POINT ( 'NONE',  ( -12.00246970273133940, 3.200000000000000178, -1.600000000000000755 ) ) ;
#546 = ORIENTED_EDGE ( 'NONE', *, *, #136, .F. ) ;
#547 = LINE ( 'NONE', #7, #453 ) ;
#548 = LINE ( 'NONE', #1131, #1140 ) ;
#549 = ORIENTED_EDGE ( 'NONE', *, *, #136, .T. ) ;
#550 =( GEOMETRIC_REPRESENTATION_CONTEXT ( 3 ) GLOBAL_UNCERTAINTY_ASSIGNED_CONTEXT ( ( #662 ) ) GLOBAL_UNIT_ASSIGNED_CONTEXT ( ( #586, #970, #310 ) ) REPRESENTATION_CONTEXT ( 'NONE', 'WORKASPACE' ) );
#551 = ADVANCED_FACE ( 'NONE', ( #133 ), #869, .F. ) ;
#552 = AXIS2_PLACEMENT_3D ( 'NONE', #863, #740, #935 ) ;
#553 = LINE ( 'NONE', #738, #92 ) ;
#554 = DIRECTION ( 'NONE',  ( 0.000000000000000000, 0.000000000000000000, -1.000000000000000000 ) ) ;
#555 = EDGE_CURVE ( 'NONE', #802, #474, #750, .T. ) ;
#556 = DIRECTION ( 'NONE',  ( 0.000000000000000000, -1.000000000000000000, 0.000000000000000000 ) ) ;
#557 = EDGE_CURVE ( 'NONE', #363, #1091, #409, .T. ) ;
#558 = ORIENTED_EDGE ( 'NONE', *, *, #1077, .T. ) ;
#559 = VECTOR ( 'NONE', #567, 1000.000000000000000 ) ;
#560 = LINE ( 'NONE', #6, #1158 ) ;
#561 = DIRECTION ( 'NONE',  ( -0.000000000000000000, 1.000000000000000000, 0.000000000000000000 ) ) ;
#562 = LINE ( 'NONE', #378, #1193 ) ;
#563 = EDGE_CURVE ( 'NONE', #645, #809, #473, .T. ) ;
#564 = VERTEX_POINT ( 'NONE', #873 ) ;
#565 = CARTESIAN_POINT ( 'NONE',  ( -8.550657861319997721, 3.200000000000000178, 0.7999999999999974909 ) ) ;
#566 = DIRECTION ( 'NONE',  ( -2.296532617168866354E-16, 0.000000000000000000, -1.000000000000000000 ) ) ;
#567 = DIRECTION ( 'NONE',  ( -0.000000000000000000, -1.000000000000000000, -0.000000000000000000 ) ) ;
#568 = ORIENTED_EDGE ( 'NONE', *, *, #1203, .F. ) ;
#569 = PLANE ( 'NONE',  #66 ) ;
#570 = AXIS2_PLACEMENT_3D ( 'NONE', #1099, #368, #67 ) ;
#571 = DIRECTION ( 'NONE',  ( -0.000000000000000000, -1.000000000000000000, -0.000000000000000000 ) ) ;
#572 = DIRECTION ( 'NONE',  ( -0.000000000000000000, 1.000000000000000000, -0.000000000000000000 ) ) ;
#573 = DIRECTION ( 'NONE',  ( 0.000000000000000000, -1.000000000000000000, 0.000000000000000000 ) ) ;
#574 = ORIENTED_EDGE ( 'NONE', *, *, #283, .F. ) ;
#575 = CIRCLE ( 'NONE', #536, 0.5000000000000000000 ) ;
#576 = MANIFOLD_SOLID_BREP ( '\X2\570689d2\X0\3', #1147 ) ;
#577 = DIRECTION ( 'NONE',  ( 0.000000000000000000, 0.000000000000000000, -1.000000000000000000 ) ) ;
#578 = CARTESIAN_POINT ( 'NONE',  ( -21.27925334052896744, 0.02859547920896885961, -1.766666666666667274 ) ) ;
#579 = LINE ( 'NONE', #200, #559 ) ;
#580 = CARTESIAN_POINT ( 'NONE',  ( -19.81740919481999441, 3.200000000000000178, 2.997493718553310149 ) ) ;
#581 = ORIENTED_EDGE ( 'NONE', *, *, #161, .T. ) ;
#582 = CARTESIAN_POINT ( 'NONE',  ( -27.26738674292316844, 3.795759654176522695E-19, -1.654489066108238537 ) ) ;
#583 = LINE ( 'NONE', #391, #497 ) ;
#584 = CARTESIAN_POINT ( 'NONE',  ( -21.20246970273134224, 3.200000000000000178, -1.599999999999999645 ) ) ;
#585 = ORIENTED_EDGE ( 'NONE', *, *, #737, .F. ) ;
#586 =( LENGTH_UNIT ( ) NAMED_UNIT ( * ) SI_UNIT ( .MILLI., .METRE. ) );
#587 = AXIS2_PLACEMENT_3D ( 'NONE', #443, #639, #1183 ) ;
#588 = DIRECTION ( 'NONE',  ( 6.776263578034400247E-17, -0.000000000000000000, 1.000000000000000000 ) ) ;
#589 = AXIS2_PLACEMENT_3D ( 'NONE', #1043, #120, #221 ) ;
#590 = EDGE_CURVE ( 'NONE', #1186, #1112, #1159, .T. ) ;
#591 = AXIS2_PLACEMENT_3D ( 'NONE', #753, #952, #864 ) ;
#592 = CARTESIAN_POINT ( 'NONE',  ( -18.09884601990864894, 3.200000000000000178, -1.599999999999999867 ) ) ;
#593 = CARTESIAN_POINT ( 'NONE',  ( -28.25141826616866325, 3.200000000000000178, 2.000000000000000000 ) ) ;
#594 = ORIENTED_EDGE ( 'NONE', *, *, #1171, .T. ) ;
#595 = DIRECTION ( 'NONE',  ( -3.469446951953614189E-15, 0.000000000000000000, -1.000000000000000000 ) ) ;
#596 = DIRECTION ( 'NONE',  ( 0.000000000000000000, -1.000000000000000000, 0.000000000000000000 ) ) ;
#597 = VERTEX_POINT ( 'NONE', #856 ) ;
#598 = PLANE ( 'NONE',  #878 ) ;
#599 = EDGE_CURVE ( 'NONE', #474, #603, #187, .T. ) ;
#600 = ADVANCED_FACE ( 'NONE', ( #38 ), #1028, .F. ) ;
#601 = STYLED_ITEM ( 'NONE', ( #227 ), #576 ) ;
#602 = CARTESIAN_POINT ( 'NONE',  ( -26.75065786131999701, 0.5000000000000000000, -2.099999999999999201 ) ) ;
#603 = VERTEX_POINT ( 'NONE', #224 ) ;
#604 = ORIENTED_EDGE ( 'NONE', *, *, #422, .T. ) ;
#605 = ORIENTED_EDGE ( 'NONE', *, *, #637, .F. ) ;
#606 = CARTESIAN_POINT ( 'NONE',  ( -27.22206238211103013, 3.200000000000000178, -1.766666666666666607 ) ) ;
#607 = EDGE_CURVE ( 'NONE', #523, #626, #967, .T. ) ;
#608 = CARTESIAN_POINT ( 'NONE',  ( -30.15787457074687339, 0.000000000000000000, 0.7386608841796118430 ) ) ;
#609 = ORIENTED_EDGE ( 'NONE', *, *, #2, .T. ) ;
#610 = ORIENTED_EDGE ( 'NONE', *, *, #690, .F. ) ;
#611 = CYLINDRICAL_SURFACE ( 'NONE', #570, 0.5000000000000000000 ) ;
#612 = ORIENTED_EDGE ( 'NONE', *, *, #275, .T. ) ;
#613 = CARTESIAN_POINT ( 'NONE',  ( -21.27925334052896744, 3.171404520791031523, -1.766666666666667274 ) ) ;
#614 = ORIENTED_EDGE ( 'NONE', *, *, #4, .F. ) ;
#615 = ORIENTED_EDGE ( 'NONE', *, *, #776, .T. ) ;
#616 = CARTESIAN_POINT ( 'NONE',  ( -27.14897062763253999, 0.1016872336874568850, -1.973401367628909497 ) ) ;
#617 = DIRECTION ( 'NONE',  ( -0.7071067811865521247, -0.000000000000000000, 0.7071067811865430208 ) ) ;
#618 = VERTEX_POINT ( 'NONE', #580 ) ;
#619 = CARTESIAN_POINT ( 'NONE',  ( -18.02206238211102374, 3.171404520791031523, -1.766666666666667718 ) ) ;
#620 = ORIENTED_EDGE ( 'NONE', *, *, #731, .F. ) ;
#621 = VECTOR ( 'NONE', #1149, 999.9999999999998863 ) ;
#622 = ORIENTED_EDGE ( 'NONE', *, *, #1106, .F. ) ;
#623 = AXIS2_PLACEMENT_3D ( 'NONE', #1042, #119, #1048 ) ;
#624 = LINE ( 'NONE', #934, #1040 ) ;
#625 = CARTESIAN_POINT ( 'NONE',  ( -20.26740919481999725, 3.200000000000000178, 0.8000000000000090372 ) ) ;
#626 = VERTEX_POINT ( 'NONE', #1152 ) ;
#627 = CARTESIAN_POINT ( 'NONE',  ( -12.07925334052896282, 3.171404520791031967, -1.766666666666667274 ) ) ;
#628 = CARTESIAN_POINT ( 'NONE',  ( -27.22206238211103013, 0.02859547920896885961, -1.766666666666667052 ) ) ;
#629 = ORIENTED_EDGE ( 'NONE', *, *, #563, .F. ) ;
#630 = CARTESIAN_POINT ( 'NONE',  ( -10.55065786131999594, 3.200000000000000178, -1.100000000000000311 ) ) ;
#631 = CARTESIAN_POINT ( 'NONE',  ( -17.55065786131999417, 0.5000000000000000000, -2.100000000000000089 ) ) ;
#632 = ORIENTED_EDGE ( 'NONE', *, *, #39, .T. ) ;
#633 = DIRECTION ( 'NONE',  ( 0.000000000000000000, 0.000000000000000000, 1.000000000000000000 ) ) ;
#634 = EDGE_CURVE ( 'NONE', #626, #17, #768, .T. ) ;
#635 = CARTESIAN_POINT ( 'NONE',  ( -21.27925334052896744, 0.02859547920896885961, -1.766666666666667274 ) ) ;
#636 = ORIENTED_EDGE ( 'NONE', *, *, #607, .F. ) ;
#637 = EDGE_CURVE ( 'NONE', #210, #328, #1033, .T. ) ;
#638 = CARTESIAN_POINT ( 'NONE',  ( -30.13615781419466799, 3.200000000000000178, 2.000000000000000000 ) ) ;
#639 = DIRECTION ( 'NONE',  ( -1.000000000000000000, 0.000000000000000000, 7.228014483236694583E-17 ) ) ;
#640 = EDGE_CURVE ( 'NONE', #1071, #564, #405, .T. ) ;
#641 = EDGE_CURVE ( 'NONE', #759, #806, #850, .T. ) ;
#642 = ADVANCED_FACE ( 'NONE', ( #871 ), #48, .F. ) ;
#643 = CIRCLE ( 'NONE', #1122, 0.5000000000000000000 ) ;
#644 = PLANE ( 'NONE',  #46 ) ;
#645 = VERTEX_POINT ( 'NONE', #775 ) ;
#646 = VECTOR ( 'NONE', #1046, 1000.000000000000000 ) ;
#647 = AXIS2_PLACEMENT_3D ( 'NONE', #945, #1032, #940 ) ;
#648 = DIRECTION ( 'NONE',  ( 1.000000000000000000, -0.000000000000000000, -1.445602896647339163E-16 ) ) ;
#649 = EDGE_CURVE ( 'NONE', #171, #793, #1156, .T. ) ;
#650 = DIRECTION ( 'NONE',  ( 0.000000000000000000, -1.000000000000000000, -0.000000000000000000 ) ) ;
#651 = EDGE_CURVE ( 'NONE', #210, #802, #122, .T. ) ;
#652 = CARTESIAN_POINT ( 'NONE',  ( -20.33644429894690475, 3.200000000000000178, -2.100000000000000089 ) ) ;
#653 = ORIENTED_EDGE ( 'NONE', *, *, #599, .T. ) ;
#654 = FACE_OUTER_BOUND ( 'NONE', #350, .T. ) ;
#655 = CARTESIAN_POINT ( 'NONE',  ( -10.55065786131999594, 3.200000000000000178, -2.281945939804522511E-15 ) ) ;
#656 = CARTESIAN_POINT ( 'NONE',  ( -11.13644429894690013, 3.200000000000000178, -2.100000000000000089 ) ) ;
#657 = ORIENTED_EDGE ( 'NONE', *, *, #256, .F. ) ;
#658 = CARTESIAN_POINT ( 'NONE',  ( -11.35065786131999666, 0.000000000000000000, -1.841073092111475347E-15 ) ) ;
#659 = DIRECTION ( 'NONE',  ( 0.000000000000000000, 0.000000000000000000, -1.000000000000000000 ) ) ;
#660 = DIRECTION ( 'NONE',  ( 0.000000000000000000, 0.000000000000000000, -1.000000000000000000 ) ) ;
#661 = VERTEX_POINT ( 'NONE', #584 ) ;
#662 = UNCERTAINTY_MEASURE_WITH_UNIT (LENGTH_MEASURE( 1.000000000000000082E-05 ), #586, 'distance_accuracy_value', 'NONE');
#663 = VECTOR ( 'NONE', #424, 1000.000000000000000 ) ;
#664 = CARTESIAN_POINT ( 'NONE',  ( -11.13644429894690013, 0.000000000000000000, -2.100000000000000089 ) ) ;
#665 = VECTOR ( 'NONE', #291, 1000.000000000000000 ) ;
#666 = CARTESIAN_POINT ( 'NONE',  ( -28.25141826616866325, 3.200000000000000178, 0.000000000000000000 ) ) ;
#667 = CARTESIAN_POINT ( 'NONE',  ( -19.36740919481999512, 0.000000000000000000, 0.7999999999999951594 ) ) ;
#668 = DIRECTION ( 'NONE',  ( 0.000000000000000000, 0.000000000000000000, 1.000000000000000000 ) ) ;
#669 = ORIENTED_EDGE ( 'NONE', *, *, #832, .F. ) ;
#670 = PLANE ( 'NONE',  #206 ) ;
#671 = CARTESIAN_POINT ( 'NONE',  ( -21.75065786131999701, 2.700000000000000178, -2.099999999999999645 ) ) ;
#672 = CARTESIAN_POINT ( 'NONE',  ( -19.36740919481999512, 3.200000000000000178, 3.000000000000000000 ) ) ;
#673 = EDGE_CURVE ( 'NONE', #379, #474, #326, .T. ) ;
#674 = EDGE_LOOP ( 'NONE', ( #532, #49, #1100, #949, #1182, #749 ) ) ;
#675 = CARTESIAN_POINT ( 'NONE',  ( -28.16487142369309282, 3.200000000000000178, -2.100000000000000089 ) ) ;
#676 = EDGE_CURVE ( 'NONE', #707, #62, #694, .T. ) ;
#677 = CARTESIAN_POINT ( 'NONE',  ( -18.06738674292316560, 3.200000000000000178, -1.654489066108239204 ) ) ;
#678 = CARTESIAN_POINT ( 'NONE',  ( -30.13615781419466799, 0.000000000000000000, 2.000000000000000000 ) ) ;
#679 = CARTESIAN_POINT ( 'NONE',  ( -30.13615781419466799, 0.000000000000000000, 2.000000000000000000 ) ) ;
#680 = AXIS2_PLACEMENT_3D ( 'NONE', #625, #617, #1181 ) ;
#681 = EDGE_CURVE ( 'NONE', #178, #806, #758, .T. ) ;
#682 = LINE ( 'NONE', #408, #822 ) ;
#683 = AXIS2_PLACEMENT_3D ( 'NONE', #868, #323, #432 ) ;
#684 = ORIENTED_EDGE ( 'NONE', *, *, #1167, .F. ) ;
#685 = FILL_AREA_STYLE_COLOUR ( '', #1058 ) ;
#686 = DIRECTION ( 'NONE',  ( 0.000000000000000000, -1.000000000000000000, -0.000000000000000000 ) ) ;
#687 = VECTOR ( 'NONE', #660, 1000.000000000000000 ) ;
#688 = CARTESIAN_POINT ( 'NONE',  ( -11.13644429894690013, 3.200000000000000178, -1.100000000000000311 ) ) ;
#689 = EDGE_LOOP ( 'NONE', ( #236, #68, #909, #252, #1097, #507 ) ) ;
#690 = EDGE_CURVE ( 'NONE', #502, #696, #456, .T. ) ;
#691 = DIRECTION ( 'NONE',  ( -0.000000000000000000, 1.000000000000000000, -0.000000000000000000 ) ) ;
#692 = ORIENTED_EDGE ( 'NONE', *, *, #995, .T. ) ;
#693 = ORIENTED_EDGE ( 'NONE', *, *, #557, .F. ) ;
#694 =( BOUNDED_CURVE ( )  B_SPLINE_CURVE ( 3, ( #128, #492, #1143, #139 ),
 .UNSPECIFIED., .F., .T. ) 
 B_SPLINE_CURVE_WITH_KNOTS ( ( 4, 4 ),
 ( 1.570796326794896558, 2.801755744135667747 ),
 .UNSPECIFIED. ) 
 CURVE ( )  GEOMETRIC_REPRESENTATION_ITEM ( )  RATIONAL_B_SPLINE_CURVE ( ( 1.000000000000000000, 0.8776643872851513928, 0.8776643872851513928, 1.000000000000000000 ) ) 
 REPRESENTATION_ITEM ( '' )  );
#695 = VECTOR ( 'NONE', #177, 1000.000000000000000 ) ;
#696 = VERTEX_POINT ( 'NONE', #373 ) ;
#697 = DIRECTION ( 'NONE',  ( -0.000000000000000000, 1.000000000000000000, 0.000000000000000000 ) ) ;
#698 = VECTOR ( 'NONE', #1160, 1000.000000000000000 ) ;
#699 = ORIENTED_EDGE ( 'NONE', *, *, #673, .F. ) ;
#700 = VECTOR ( 'NONE', #571, 1000.000000000000000 ) ;
#701 = ORIENTED_EDGE ( 'NONE', *, *, #1044, .T. ) ;
#702 = ORIENTED_EDGE ( 'NONE', *, *, #228, .T. ) ;
#703 = PRODUCT_CONTEXT ( 'NONE', #118, 'mechanical' ) ;
#704 = PLANE ( 'NONE',  #760 ) ;
#705 = EDGE_LOOP ( 'NONE', ( #331, #438, #797, #145 ) ) ;
#706 = EDGE_LOOP ( 'NONE', ( #1136, #846, #526, #65 ) ) ;
#707 = VERTEX_POINT ( 'NONE', #239 ) ;
#708 = ORIENTED_EDGE ( 'NONE', *, *, #979, .T. ) ;
#709 = CARTESIAN_POINT ( 'NONE',  ( -29.87564120425210135, 2.700000000000000178, -1.599999999999998090 ) ) ;
#710 = ORIENTED_EDGE ( 'NONE', *, *, #852, .F. ) ;
#711 = DIRECTION ( 'NONE',  ( 0.000000000000000000, -1.000000000000000000, 0.000000000000000000 ) ) ;
#712 = ORIENTED_EDGE ( 'NONE', *, *, #651, .F. ) ;
#713 = ORIENTED_EDGE ( 'NONE', *, *, #954, .F. ) ;
#714 = ORIENTED_EDGE ( 'NONE', *, *, #275, .F. ) ;
#715 = AXIS2_PLACEMENT_3D ( 'NONE', #652, #384, #104 ) ;
#716 = CARTESIAN_POINT ( 'NONE',  ( -26.75065786131999701, 0.5000000000000000000, -2.099999999999999201 ) ) ;
#717 = FACE_OUTER_BOUND ( 'NONE', #22, .T. ) ;
#718 = ORIENTED_EDGE ( 'NONE', *, *, #984, .T. ) ;
#719 = DIRECTION ( 'NONE',  ( 2.168404344971008868E-15, 0.000000000000000000, -1.000000000000000000 ) ) ;
#720 = AXIS2_PLACEMENT_3D ( 'NONE', #135, #1052, #786 ) ;
#721 = DIRECTION ( 'NONE',  ( 0.000000000000000000, -1.000000000000000000, 0.000000000000000000 ) ) ;
#722 = ORIENTED_EDGE ( 'NONE', *, *, #126, .F. ) ;
#723 = EDGE_LOOP ( 'NONE', ( #311, #615, #933, #727 ) ) ;
#724 = VECTOR ( 'NONE', #648, 1000.000000000000000 ) ;
#725 = LINE ( 'NONE', #1006, #505 ) ;
#726 = CARTESIAN_POINT ( 'NONE',  ( -11.35065786131999666, 3.200000000000000178, -1.841073092111475347E-15 ) ) ;
#727 = ORIENTED_EDGE ( 'NONE', *, *, #992, .F. ) ;
#728 = CARTESIAN_POINT ( 'NONE',  ( -12.00246970273133940, 0.000000000000000000, -1.600000000000000755 ) ) ;
#729 = CARTESIAN_POINT ( 'NONE',  ( -21.06740919481999441, 3.200000000000000178, 0.000000000000000000 ) ) ;
#730 = VERTEX_POINT ( 'NONE', #1000 ) ;
#731 = EDGE_CURVE ( 'NONE', #1150, #332, #872, .T. ) ;
#732 = CARTESIAN_POINT ( 'NONE',  ( -26.96993312475546389, 0.2807247365645381132, -2.099999999999999201 ) ) ;
#733 = EDGE_CURVE ( 'NONE', #730, #480, #1101, .T. ) ;
#734 = CARTESIAN_POINT ( 'NONE',  ( -10.55065786131999594, 0.000000000000000000, -2.281945939804522511E-15 ) ) ;
#735 = DIRECTION ( 'NONE',  ( 0.000000000000000000, 0.000000000000000000, -1.000000000000000000 ) ) ;
#736 = ORIENTED_EDGE ( 'NONE', *, *, #5, .F. ) ;
#737 = EDGE_CURVE ( 'NONE', #117, #887, #83, .T. ) ;
#738 = CARTESIAN_POINT ( 'NONE',  ( -8.550657861319997721, 3.200000000000000178, 0.7999999999999974909 ) ) ;
#739 = ADVANCED_FACE ( 'NONE', ( #807 ), #168, .T. ) ;
#740 = DIRECTION ( 'NONE',  ( 0.000000000000000000, -1.000000000000000000, -0.000000000000000000 ) ) ;
#741 = CARTESIAN_POINT ( 'NONE',  ( -12.55065786131999594, 3.200000000000000178, -1.600000000000000755 ) ) ;
#742 = CIRCLE ( 'NONE', #320, 1.000000000000000000 ) ;
#743 = ORIENTED_EDGE ( 'NONE', *, *, #979, .F. ) ;
#744 = AXIS2_PLACEMENT_3D ( 'NONE', #939, #1138, #1133 ) ;
#745 = CARTESIAN_POINT ( 'NONE',  ( -27.29884601990865178, 3.200000000000000178, -1.599999999999999201 ) ) ;
#746 = CYLINDRICAL_SURFACE ( 'NONE', #552, 1.000000000000000000 ) ;
#747 = LINE ( 'NONE', #1016, #695 ) ;
#748 = PRODUCT_DEFINITION_SHAPE ( 'NONE', 'NONE',  #854 ) ;
#749 = ORIENTED_EDGE ( 'NONE', *, *, #10, .F. ) ;
#750 = B_SPLINE_CURVE_WITH_KNOTS ( 'NONE', 3,
 ( #499, #1059, #677, #592 ),
 .UNSPECIFIED., .F., .F.,
 ( 4, 4 ),
 ( 4.336808689942017736E-19, 0.0001857180827017264617 ),
 .UNSPECIFIED. ) ;
#751 = DIRECTION ( 'NONE',  ( -2.168404344971008868E-15, 0.000000000000000000, 1.000000000000000000 ) ) ;
#752 = DIRECTION ( 'NONE',  ( 1.000000000000000000, 0.000000000000000000, -2.409338161078899674E-16 ) ) ;
#753 = CARTESIAN_POINT ( 'NONE',  ( -11.35065786131999666, 3.200000000000000178, 0.7999999999999974909 ) ) ;
#754 = VERTEX_POINT ( 'NONE', #533 ) ;
#755 = DIRECTION ( 'NONE',  ( -1.000000000000000000, 0.000000000000000000, -2.168404344971008868E-15 ) ) ;
#756 = FACE_OUTER_BOUND ( 'NONE', #1047, .T. ) ;
#757 = DIRECTION ( 'NONE',  ( 1.000000000000000000, 0.000000000000000000, 0.000000000000000000 ) ) ;
#758 = LINE ( 'NONE', #216, #1020 ) ;
#759 = VERTEX_POINT ( 'NONE', #1019 ) ;
#760 = AXIS2_PLACEMENT_3D ( 'NONE', #1086, #249, #329 ) ;
#761 = B_SPLINE_CURVE_WITH_KNOTS ( 'NONE', 3,
 ( #103, #582, #24, #1139 ),
 .UNSPECIFIED., .F., .F.,
 ( 4, 4 ),
 ( 0.000000000000000000, 0.0001857180827017270851 ),
 .UNSPECIFIED. ) ;
#762 =( LENGTH_UNIT ( ) NAMED_UNIT ( * ) SI_UNIT ( .MILLI., .METRE. ) );
#763 = VECTOR ( 'NONE', #306, 1000.000000000000000 ) ;
#764 = CARTESIAN_POINT ( 'NONE',  ( -12.05065786131999594, 0.000000000000000000, -1.600000000000000755 ) ) ;
#765 = EDGE_CURVE ( 'NONE', #603, #338, #271, .T. ) ;
#766 = ADVANCED_FACE ( 'NONE', ( #899 ), #1015, .T. ) ;
#767 = FACE_OUTER_BOUND ( 'NONE', #706, .T. ) ;
#768 = LINE ( 'NONE', #961, #621 ) ;
#769 = EDGE_CURVE ( 'NONE', #266, #802, #827, .T. ) ;
#770 = ORIENTED_EDGE ( 'NONE', *, *, #590, .T. ) ;
#771 =( NAMED_UNIT ( * ) SI_UNIT ( $, .STERADIAN. ) SOLID_ANGLE_UNIT ( ) );
#772 = EDGE_CURVE ( 'NONE', #645, #1080, #1074, .T. ) ;
#773 = CARTESIAN_POINT ( 'NONE',  ( -10.55065786131999594, 3.200000000000000178, -1.100000000000000311 ) ) ;
#774 = EDGE_CURVE ( 'NONE', #1091, #928, #1190, .T. ) ;
#775 = CARTESIAN_POINT ( 'NONE',  ( -12.07925334052896460, 0.02859547920896820736, -1.766666666666667052 ) ) ;
#776 = EDGE_CURVE ( 'NONE', #332, #645, #547, .T. ) ;
#777 = FACE_OUTER_BOUND ( 'NONE', #267, .T. ) ;
#778 = CARTESIAN_POINT ( 'NONE',  ( -12.07925334052896460, 0.02859547920896820736, -1.766666666666667052 ) ) ;
#779 = ADVANCED_FACE ( 'NONE', ( #175 ), #91, .T. ) ;
#780 = DIRECTION ( 'NONE',  ( 1.000000000000000000, 0.000000000000000000, -6.776263578034400247E-17 ) ) ;
#781 = CARTESIAN_POINT ( 'NONE',  ( -18.02206238211102374, 3.200000000000000178, -1.766666666666667274 ) ) ;
#782 = CARTESIAN_POINT ( 'NONE',  ( -12.05932027032023157, 0.008662409000235486364, -1.710287430208817128 ) ) ;
#783 = VECTOR ( 'NONE', #235, 1000.000000000000000 ) ;
#784 = CARTESIAN_POINT ( 'NONE',  ( -17.55065786131999417, 3.200000000000000178, -1.599999999999999867 ) ) ;
#785 = VECTOR ( 'NONE', #1037, 1000.000000000000000 ) ;
#786 = DIRECTION ( 'NONE',  ( 0.000000000000000000, 0.000000000000000000, -1.000000000000000000 ) ) ;
#787 = ORIENTED_EDGE ( 'NONE', *, *, #995, .F. ) ;
#788 = CARTESIAN_POINT ( 'NONE',  ( -28.25141826616866325, 3.200000000000000178, 2.000000000000000000 ) ) ;
#789 = CARTESIAN_POINT ( 'NONE',  ( -29.05065786131999772, 3.200000000000000178, 0.2999999999999999334 ) ) ;
#790 = ORIENTED_EDGE ( 'NONE', *, *, #506, .F. ) ;
#791 = CARTESIAN_POINT ( 'NONE',  ( -17.55065786131999417, 3.200000000000000178, -2.100000000000000089 ) ) ;
#792 = FACE_OUTER_BOUND ( 'NONE', #816, .T. ) ;
#793 = VERTEX_POINT ( 'NONE', #69 ) ;
#794 = ORIENTED_EDGE ( 'NONE', *, *, #395, .T. ) ;
#795 = EDGE_LOOP ( 'NONE', ( #1053, #1008, #1105, #1063, #989, #297 ) ) ;
#796 = CARTESIAN_POINT ( 'NONE',  ( -28.25141826616866325, 3.200000000000000178, 2.000000000000000000 ) ) ;
#797 = ORIENTED_EDGE ( 'NONE', *, *, #983, .T. ) ;
#798 = AXIS2_PLACEMENT_3D ( 'NONE', #726, #915, #812 ) ;
#799 = LINE ( 'NONE', #345, #1205 ) ;
#800 = AXIS2_PLACEMENT_3D ( 'NONE', #924, #524, #541 ) ;
#801 = ORIENTED_EDGE ( 'NONE', *, *, #555, .F. ) ;
#802 = VERTEX_POINT ( 'NONE', #619 ) ;
#803 = ORIENTED_EDGE ( 'NONE', *, *, #1077, .F. ) ;
#804 = ADVANCED_FACE ( 'NONE', ( #917 ), #450, .F. ) ;
#805 = DIRECTION ( 'NONE',  ( -0.000000000000000000, 1.000000000000000000, -0.000000000000000000 ) ) ;
#806 = VERTEX_POINT ( 'NONE', #1199 ) ;
#807 = FACE_OUTER_BOUND ( 'NONE', #689, .T. ) ;
#808 = CARTESIAN_POINT ( 'NONE',  ( -18.56740919481999441, 3.200000000000000178, -1.837226093735097718E-16 ) ) ;
#809 = VERTEX_POINT ( 'NONE', #728 ) ;
#810 = ORIENTED_EDGE ( 'NONE', *, *, #637, .T. ) ;
#811 = DIRECTION ( 'NONE',  ( -1.000000000000000000, 0.000000000000000000, -0.000000000000000000 ) ) ;
#812 = DIRECTION ( 'NONE',  ( 0.000000000000000000, 0.000000000000000000, -1.000000000000000000 ) ) ;
#813 = ORIENTED_EDGE ( 'NONE', *, *, #460, .T. ) ;
#814 = DIRECTION ( 'NONE',  ( 0.000000000000000000, 1.000000000000000000, 0.000000000000000000 ) ) ;
#815 = EDGE_LOOP ( 'NONE', ( #540, #790, #458, #692 ) ) ;
#816 = EDGE_LOOP ( 'NONE', ( #1067, #427, #353, #493 ) ) ;
#817 = B_SPLINE_CURVE_WITH_KNOTS ( 'NONE', 2,
 ( #77, #444, #1 ),
 .UNSPECIFIED., .F., .F.,
 ( 3, 3 ),
 ( 0.000000000000000000, 1.000000000000000000 ),
 .UNSPECIFIED. ) ;
#818 = LINE ( 'NONE', #268, #366 ) ;
#819 = LINE ( 'NONE', #166, #840 ) ;
#820 = ORIENTED_EDGE ( 'NONE', *, *, #555, .T. ) ;
#821 = CARTESIAN_POINT ( 'NONE',  ( -17.76993312475545750, 2.919275263435462175, -2.100000000000000089 ) ) ;
#822 = VECTOR ( 'NONE', #138, 1000.000000000000000 ) ;
#823 = DIRECTION ( 'NONE',  ( -1.000000000000000000, 0.000000000000000000, 0.000000000000000000 ) ) ;
#824 = AXIS2_PLACEMENT_3D ( 'NONE', #675, #396, #468 ) ;
#825 = ORIENTED_EDGE ( 'NONE', *, *, #485, .F. ) ;
#826 = EDGE_CURVE ( 'NONE', #100, #962, #1110, .T. ) ;
#827 =( BOUNDED_CURVE ( )  B_SPLINE_CURVE ( 3, ( #159, #821, #1206, #351 ),
 .UNSPECIFIED., .F., .F. ) 
 B_SPLINE_CURVE_WITH_KNOTS ( ( 4, 4 ),
 ( 1.570796326794896558, 2.801755744135667747 ),
 .UNSPECIFIED. ) 
 CURVE ( )  GEOMETRIC_REPRESENTATION_ITEM ( )  RATIONAL_B_SPLINE_CURVE ( ( 1.000000000000000000, 0.8776643872851513928, 0.8776643872851513928, 1.000000000000000000 ) ) 
 REPRESENTATION_ITEM ( '' )  );
#828 = CARTESIAN_POINT ( 'NONE',  ( -21.27925334052896744, 3.171404520791031523, -1.766666666666667274 ) ) ;
#829 = DIRECTION ( 'NONE',  ( -0.000000000000000000, 1.000000000000000000, -0.000000000000000000 ) ) ;
#830 = CARTESIAN_POINT ( 'NONE',  ( -10.55065786131999594, 3.200000000000000178, -1.100000000000000311 ) ) ;
#831 = VERTEX_POINT ( 'NONE', #1130 ) ;
#832 = EDGE_CURVE ( 'NONE', #362, #730, #1134, .T. ) ;
#833 = DIRECTION ( 'NONE',  ( 1.000000000000000000, 0.000000000000000000, -2.296532617168866354E-16 ) ) ;
#834 = CARTESIAN_POINT ( 'NONE',  ( -12.07925334052896460, 0.02859547920896820736, -1.766666666666667052 ) ) ;
#835 = DIRECTION ( 'NONE',  ( 0.000000000000000000, 0.000000000000000000, -1.000000000000000000 ) ) ;
#836 = ORIENTED_EDGE ( 'NONE', *, *, #776, .F. ) ;
#837 = LINE ( 'NONE', #186, #1002 ) ;
#838 = DIRECTION ( 'NONE',  ( 1.000000000000000000, -0.000000000000000000, -1.445602896647339163E-16 ) ) ;
#839 = DIRECTION ( 'NONE',  ( 0.000000000000000000, 0.000000000000000000, 1.000000000000000000 ) ) ;
#840 = VECTOR ( 'NONE', #1013, 999.9999999999998863 ) ;
#841 = ORIENTED_EDGE ( 'NONE', *, *, #832, .T. ) ;
#842 = DIRECTION ( 'NONE',  ( 0.000000000000000000, 0.000000000000000000, 1.000000000000000000 ) ) ;
#843 = CARTESIAN_POINT ( 'NONE',  ( -18.05065786131999417, 0.000000000000000000, -1.100000000000000089 ) ) ;
#844 = DIRECTION ( 'NONE',  ( 1.000000000000000000, 0.000000000000000000, -2.296532617168866354E-16 ) ) ;
#845 = PRODUCT ( '\X2\65b06309952e\X0\', '\X2\65b06309952e\X0\', '', ( #703 ) ) ;
#846 = ORIENTED_EDGE ( 'NONE', *, *, #992, .T. ) ;
#847 = CARTESIAN_POINT ( 'NONE',  ( -20.26740919481999725, 3.200000000000000178, 2.500000000000000000 ) ) ;
#848 = LINE ( 'NONE', #20, #190 ) ;
#849 = LINE ( 'NONE', #37, #1084 ) ;
#850 = LINE ( 'NONE', #672, #109 ) ;
#851 = ORIENTED_EDGE ( 'NONE', *, *, #1079, .F. ) ;
#852 = EDGE_CURVE ( 'NONE', #597, #1072, #390, .T. ) ;
#853 = CARTESIAN_POINT ( 'NONE',  ( -18.96487142369308998, 3.200000000000000178, -2.100000000000000089 ) ) ;
#854 = PRODUCT_DEFINITION ( 'æœ', '', #302, #18 ) ;
#855 = DIRECTION ( 'NONE',  ( -3.469446951953614189E-15, 0.000000000000000000, -1.000000000000000000 ) ) ;
#856 = CARTESIAN_POINT ( 'NONE',  ( -8.550657861319997721, 3.200000000000000178, 0.7999999999999974909 ) ) ;
#857 = ORIENTED_EDGE ( 'NONE', *, *, #283, .T. ) ;
#858 = EDGE_CURVE ( 'NONE', #696, #379, #1200, .T. ) ;
#859 = ADVANCED_FACE ( 'NONE', ( #295 ), #746, .F. ) ;
#860 = AXIS2_PLACEMENT_3D ( 'NONE', #26, #43, #392 ) ;
#861 = CARTESIAN_POINT ( 'NONE',  ( -19.76740919481999725, 3.200000000000000178, 2.500000000000000000 ) ) ;
#862 = VECTOR ( 'NONE', #172, 1000.000000000000000 ) ;
#863 = CARTESIAN_POINT ( 'NONE',  ( -28.16487142369309282, 3.200000000000000178, -2.100000000000000089 ) ) ;
#864 = DIRECTION ( 'NONE',  ( -1.000000000000000000, 0.000000000000000000, -0.000000000000000000 ) ) ;
#865 = CARTESIAN_POINT ( 'NONE',  ( -17.76993312475545750, 0.2807247365645380577, -2.100000000000000089 ) ) ;
#866 = ADVANCED_FACE ( 'NONE', ( #483 ), #204, .T. ) ;
#867 = ADVANCED_FACE ( 'NONE', ( #756 ), #670, .F. ) ;
#868 = CARTESIAN_POINT ( 'NONE',  ( 0.000000000000000000, 0.000000000000000000, 0.000000000000000000 ) ) ;
#869 = PLANE ( 'NONE',  #1157 ) ;
#870 = CARTESIAN_POINT ( 'NONE',  ( -18.09884601990864894, 3.200000000000000178, -1.599999999999999867 ) ) ;
#871 = FACE_OUTER_BOUND ( 'NONE', #415, .T. ) ;
#872 =( BOUNDED_CURVE ( )  B_SPLINE_CURVE ( 3, ( #278, #1066, #284, #627 ),
 .UNSPECIFIED., .F., .T. ) 
 B_SPLINE_CURVE_WITH_KNOTS ( ( 4, 4 ),
 ( 1.570796326794894116, 2.801755744135671744 ),
 .UNSPECIFIED. ) 
 CURVE ( )  GEOMETRIC_REPRESENTATION_ITEM ( )  RATIONAL_B_SPLINE_CURVE ( ( 1.000000000000000000, 0.8776643872851500605, 0.8776643872851500605, 1.000000000000000000 ) ) 
 REPRESENTATION_ITEM ( '' )  );
#873 = CARTESIAN_POINT ( 'NONE',  ( -28.25141826616866325, 0.000000000000000000, 0.000000000000000000 ) ) ;
#874 = DIRECTION ( 'NONE',  ( 0.000000000000000000, -1.000000000000000000, 0.000000000000000000 ) ) ;
#875 = CARTESIAN_POINT ( 'NONE',  ( -28.25141826616866325, 0.000000000000000000, 2.000000000000000000 ) ) ;
#876 = ORIENTED_EDGE ( 'NONE', *, *, #416, .F. ) ;
#877 = VECTOR ( 'NONE', #1021, 1000.000000000000114 ) ;
#878 = AXIS2_PLACEMENT_3D ( 'NONE', #884, #588, #780 ) ;
#879 = VECTOR ( 'NONE', #463, 1000.000000000000000 ) ;
#880 = CARTESIAN_POINT ( 'NONE',  ( -26.75065786131999701, 3.200000000000000178, -1.599999999999998979 ) ) ;
#881 = ADVANCED_FACE ( 'NONE', ( #488 ), #464, .F. ) ;
#882 = CARTESIAN_POINT ( 'NONE',  ( -30.13615781419466799, 0.000000000000000000, 2.000000000000000000 ) ) ;
#883 = ORIENTED_EDGE ( 'NONE', *, *, #1106, .T. ) ;
#884 = CARTESIAN_POINT ( 'NONE',  ( -18.05065786131999417, 3.200000000000000178, -1.100000000000000089 ) ) ;
#885 = CARTESIAN_POINT ( 'NONE',  ( -20.26740919481999725, 3.200000000000000178, 2.500000000000000000 ) ) ;
#886 = ORIENTED_EDGE ( 'NONE', *, *, #300, .T. ) ;
#887 = VERTEX_POINT ( 'NONE', #14 ) ;
#888 = ADVANCED_FACE ( 'NONE', ( #114 ), #470, .F. ) ;
#889 = FACE_OUTER_BOUND ( 'NONE', #1005, .T. ) ;
#890 = ORIENTED_EDGE ( 'NONE', *, *, #131, .F. ) ;
#891 = DIRECTION ( 'NONE',  ( -1.000000000000000000, 0.000000000000000000, 1.224646799147352468E-16 ) ) ;
#892 = EDGE_CURVE ( 'NONE', #338, #1186, #397, .T. ) ;
#893 = EDGE_LOOP ( 'NONE', ( #857, #1132, #851, #130 ) ) ;
#894 = ORIENTED_EDGE ( 'NONE', *, *, #59, .T. ) ;
#895 = APPLICATION_PROTOCOL_DEFINITION ( 'draft international standard', 'automotive_design', 1998, #1115 ) ;
#896 = EDGE_CURVE ( 'NONE', #898, #809, #1026, .T. ) ;
#897 = PLANE ( 'NONE',  #798 ) ;
#898 = VERTEX_POINT ( 'NONE', #212 ) ;
#899 = FACE_OUTER_BOUND ( 'NONE', #1004, .T. ) ;
#900 = VECTOR ( 'NONE', #805, 1000.000000000000000 ) ;
#901 = ORIENTED_EDGE ( 'NONE', *, *, #649, .F. ) ;
#902 = VECTOR ( 'NONE', #113, 1000.000000000000000 ) ;
#903 = ADVANCED_BREP_SHAPE_REPRESENTATION ( '\X2\65b06309952e\X0\', ( #576, #683 ), #529 ) ;
#904 = ORIENTED_EDGE ( 'NONE', *, *, #2, .F. ) ;
#905 = EDGE_CURVE ( 'NONE', #831, #449, #1146, .T. ) ;
#906 = ORIENTED_EDGE ( 'NONE', *, *, #188, .T. ) ;
#907 = DIRECTION ( 'NONE',  ( -0.000000000000000000, -1.000000000000000000, -0.000000000000000000 ) ) ;
#908 = CARTESIAN_POINT ( 'NONE',  ( -11.35065786131999666, 0.000000000000000000, 0.7999999999999974909 ) ) ;
#909 = ORIENTED_EDGE ( 'NONE', *, *, #1027, .F. ) ;
#910 = CARTESIAN_POINT ( 'NONE',  ( -18.96487142369308998, 3.200000000000000178, -1.100000000000000089 ) ) ;
#911 = DIRECTION ( 'NONE',  ( 0.000000000000000000, 0.000000000000000000, -1.000000000000000000 ) ) ;
#912 = ORIENTED_EDGE ( 'NONE', *, *, #95, .F. ) ;
#913 = ORIENTED_EDGE ( 'NONE', *, *, #1203, .T. ) ;
#914 = DIRECTION ( 'NONE',  ( 1.445602896647339903E-16, -0.000000000000000000, 1.000000000000000000 ) ) ;
#915 = DIRECTION ( 'NONE',  ( 1.000000000000000000, 0.000000000000000000, 0.000000000000000000 ) ) ;
#916 = ORIENTED_EDGE ( 'NONE', *, *, #826, .F. ) ;
#917 = FACE_OUTER_BOUND ( 'NONE', #893, .T. ) ;
#918 = EDGE_CURVE ( 'NONE', #193, #156, #281, .T. ) ;
#919 = DIRECTION ( 'NONE',  ( 0.000000000000000000, 0.000000000000000000, 1.000000000000000000 ) ) ;
#920 = ORIENTED_EDGE ( 'NONE', *, *, #896, .T. ) ;
#921 = LINE ( 'NONE', #1187, #879 ) ;
#922 = DIRECTION ( 'NONE',  ( -1.000000000000000000, 0.000000000000000000, 1.445602896647339163E-16 ) ) ;
#923 = ORIENTED_EDGE ( 'NONE', *, *, #182, .T. ) ;
#924 = CARTESIAN_POINT ( 'NONE',  ( -12.05065786131999594, 0.5000000000000000000, -1.600000000000000755 ) ) ;
#925 = VECTOR ( 'NONE', #257, 1000.000000000000000 ) ;
#926 = DIRECTION ( 'NONE',  ( -0.000000000000000000, 1.000000000000000000, 0.000000000000000000 ) ) ;
#927 = AXIS2_PLACEMENT_3D ( 'NONE', #861, #226, #1145 ) ;
#928 = VERTEX_POINT ( 'NONE', #195 ) ;
#929 = CARTESIAN_POINT ( 'NONE',  ( -20.26740919481999725, 3.200000000000000178, 0.000000000000000000 ) ) ;
#930 = VECTOR ( 'NONE', #330, 1000.000000000000000 ) ;
#931 = CARTESIAN_POINT ( 'NONE',  ( -12.55065786131999594, 0.5000000000000000000, -2.100000000000000533 ) ) ;
#932 = DIRECTION ( 'NONE',  ( 0.000000000000000000, 0.000000000000000000, -1.000000000000000000 ) ) ;
#933 = ORIENTED_EDGE ( 'NONE', *, *, #772, .T. ) ;
#934 = CARTESIAN_POINT ( 'NONE',  ( -30.13615781419466799, 3.200000000000000178, 2.000000000000000000 ) ) ;
#935 = DIRECTION ( 'NONE',  ( 0.000000000000000000, 0.000000000000000000, -1.000000000000000000 ) ) ;
#936 = DIRECTION ( 'NONE',  ( -1.000000000000000000, 0.000000000000000000, 1.445602896647339163E-16 ) ) ;
#937 = EDGE_CURVE ( 'NONE', #27, #707, #848, .T. ) ;
#938 = ORIENTED_EDGE ( 'NONE', *, *, #984, .F. ) ;
#939 = CARTESIAN_POINT ( 'NONE',  ( -29.87564120425210135, 0.000000000000000000, 0.9443304420898058771 ) ) ;
#940 = DIRECTION ( 'NONE',  ( 0.000000000000000000, 0.000000000000000000, -1.000000000000000000 ) ) ;
#941 = CARTESIAN_POINT ( 'NONE',  ( -28.25141826616866325, 3.200000000000000178, 0.000000000000000000 ) ) ;
#942 = ORIENTED_EDGE ( 'NONE', *, *, #769, .F. ) ;
#943 = AXIS2_PLACEMENT_3D ( 'NONE', #853, #650, #659 ) ;
#944 = PLANE ( 'NONE',  #744 ) ;
#945 = CARTESIAN_POINT ( 'NONE',  ( -11.13644429894690013, 3.200000000000000178, -2.100000000000000089 ) ) ;
#946 = AXIS2_PLACEMENT_3D ( 'NONE', #808, #148, #509 ) ;
#947 = CARTESIAN_POINT ( 'NONE',  ( -19.36740919481999512, 3.200000000000000178, 0.000000000000000000 ) ) ;
#948 = CARTESIAN_POINT ( 'NONE',  ( -17.94897062763253004, 0.1016872336874567462, -1.973401367628909497 ) ) ;
#949 = ORIENTED_EDGE ( 'NONE', *, *, #918, .F. ) ;
#950 = CARTESIAN_POINT ( 'NONE',  ( -28.25141826616866325, 3.200000000000000178, 2.000000000000000000 ) ) ;
#951 = CARTESIAN_POINT ( 'NONE',  ( -27.26738674292316844, 3.200000000000000178, -1.654489066108238760 ) ) ;
#952 = DIRECTION ( 'NONE',  ( 0.000000000000000000, 0.000000000000000000, -1.000000000000000000 ) ) ;
#953 =( BOUNDED_CURVE ( )  B_SPLINE_CURVE ( 3, ( #671, #121, #484, #207 ),
 .UNSPECIFIED., .F., .F. ) 
 B_SPLINE_CURVE_WITH_KNOTS ( ( 4, 4 ),
 ( 1.570796326794896558, 2.801755744135668191 ),
 .UNSPECIFIED. ) 
 CURVE ( )  GEOMETRIC_REPRESENTATION_ITEM ( )  RATIONAL_B_SPLINE_CURVE ( ( 1.000000000000000000, 0.8776643872851512818, 0.8776643872851512818, 1.000000000000000000 ) ) 
 REPRESENTATION_ITEM ( '' )  );
#954 = EDGE_CURVE ( 'NONE', #270, #277, #761, .T. ) ;
#955 = CARTESIAN_POINT ( 'NONE',  ( -11.35065786131999666, 3.200000000000000178, -1.841073092111475347E-15 ) ) ;
#956 = EDGE_LOOP ( 'NONE', ( #1170, #263, #585, #79 ) ) ;
#957 = DIRECTION ( 'NONE',  ( -1.000000000000000000, 0.000000000000000000, 2.296532617168866354E-16 ) ) ;
#958 = EDGE_CURVE ( 'NONE', #62, #980, #176, .T. ) ;
#959 = CARTESIAN_POINT ( 'NONE',  ( -21.20246970273134224, 0.000000000000000000, -1.599999999999999423 ) ) ;
#960 = EDGE_CURVE ( 'NONE', #793, #363, #837, .T. ) ;
#961 = CARTESIAN_POINT ( 'NONE',  ( -20.26740919481999725, 0.000000000000000000, 0.8000000000000090372 ) ) ;
#962 = VERTEX_POINT ( 'NONE', #357 ) ;
#963 = VECTOR ( 'NONE', #633, 1000.000000000000000 ) ;
#964 = AXIS2_PLACEMENT_3D ( 'NONE', #630, #914, #372 ) ;
#965 = FACE_OUTER_BOUND ( 'NONE', #674, .T. ) ;
#966 = AXIS2_PLACEMENT_3D ( 'NONE', #1148, #1141, #387 ) ;
#967 = LINE ( 'NONE', #1161, #144 ) ;
#968 = CARTESIAN_POINT ( 'NONE',  ( -12.03392897971682274, -3.642603832986339247E-17, -1.654489066108239870 ) ) ;
#969 = DIRECTION ( 'NONE',  ( 7.228014483236694583E-17, -0.000000000000000000, 1.000000000000000000 ) ) ;
#970 =( NAMED_UNIT ( * ) PLANE_ANGLE_UNIT ( ) SI_UNIT ( $, .RADIAN. ) );
#971 = ORIENTED_EDGE ( 'NONE', *, *, #520, .T. ) ;
#972 = DIRECTION ( 'NONE',  ( -0.000000000000000000, 1.000000000000000000, -0.000000000000000000 ) ) ;
#973 = CARTESIAN_POINT ( 'NONE',  ( -29.05065786131999772, 3.200000000000000178, -1.099999999999999867 ) ) ;
#974 = ORIENTED_EDGE ( 'NONE', *, *, #765, .F. ) ;
#975 = VECTOR ( 'NONE', #919, 1000.000000000000000 ) ;
#976 = VECTOR ( 'NONE', #242, 1000.000000000000000 ) ;
#977 = DIRECTION ( 'NONE',  ( 0.000000000000000000, 0.000000000000000000, -1.000000000000000000 ) ) ;
#978 = LINE ( 'NONE', #70, #1024 ) ;
#979 = EDGE_CURVE ( 'NONE', #564, #17, #921, .T. ) ;
#980 = VERTEX_POINT ( 'NONE', #447 ) ;
#981 = ORIENTED_EDGE ( 'NONE', *, *, #12, .T. ) ;
#982 = ORIENTED_EDGE ( 'NONE', *, *, #1083, .F. ) ;
#983 = EDGE_CURVE ( 'NONE', #449, #27, #1098, .T. ) ;
#984 = EDGE_CURVE ( 'NONE', #1202, #363, #818, .T. ) ;
#985 = CARTESIAN_POINT ( 'NONE',  ( -21.25065786131999701, 3.200000000000000178, -2.099999999999999645 ) ) ;
#986 = CARTESIAN_POINT ( 'NONE',  ( -21.20246970273134224, 3.200000000000000178, -1.599999999999999645 ) ) ;
#987 = EDGE_CURVE ( 'NONE', #266, #1150, #1107, .T. ) ;
#988 = ORIENTED_EDGE ( 'NONE', *, *, #641, .F. ) ;
#989 = ORIENTED_EDGE ( 'NONE', *, *, #300, .F. ) ;
#990 = DIRECTION ( 'NONE',  ( -1.000000000000000000, 0.000000000000000000, 2.409338161078899674E-16 ) ) ;
#991 = VERTEX_POINT ( 'NONE', #1195 ) ;
#992 = EDGE_CURVE ( 'NONE', #1150, #1080, #560, .T. ) ;
#993 = PLANE ( 'NONE',  #946 ) ;
#994 = EDGE_LOOP ( 'NONE', ( #988, #543, #549, #514 ) ) ;
#995 = EDGE_CURVE ( 'NONE', #439, #525, #624, .T. ) ;
#996 = ORIENTED_EDGE ( 'NONE', *, *, #380, .F. ) ;
#997 = CARTESIAN_POINT ( 'NONE',  ( -12.03392897971682274, 3.200000000000000178, -1.654489066108239870 ) ) ;
#998 = DIRECTION ( 'NONE',  ( 0.000000000000000000, -0.000000000000000000, -1.000000000000000000 ) ) ;
#999 = ORIENTED_EDGE ( 'NONE', *, *, #143, .F. ) ;
#1000 = CARTESIAN_POINT ( 'NONE',  ( -10.55065786131999594, 0.000000000000000000, -2.281945939804522511E-15 ) ) ;
#1001 = VECTOR ( 'NONE', #697, 1000.000000000000000 ) ;
#1002 = VECTOR ( 'NONE', #102, 1000.000000000000000 ) ;
#1003 = CARTESIAN_POINT ( 'NONE',  ( -19.76740919481999725, 0.000000000000000000, 2.500000000000000000 ) ) ;
#1004 = EDGE_LOOP ( 'NONE', ( #401, #722, #466, #657 ) ) ;
#1005 = EDGE_LOOP ( 'NONE', ( #605, #1095, #942, #825 ) ) ;
#1006 = CARTESIAN_POINT ( 'NONE',  ( -11.35065786131999666, 3.200000000000000178, -1.841073092111475347E-15 ) ) ;
#1007 = LINE ( 'NONE', #349, #164 ) ;
#1008 = ORIENTED_EDGE ( 'NONE', *, *, #954, .T. ) ;
#1009 = CARTESIAN_POINT ( 'NONE',  ( -8.550657861319997721, 0.000000000000000000, 0.7999999999999974909 ) ) ;
#1010 = CYLINDRICAL_SURFACE ( 'NONE', #394, 0.5000000000000000000 ) ;
#1011 = ORIENTED_EDGE ( 'NONE', *, *, #132, .T. ) ;
#1012 = CARTESIAN_POINT ( 'NONE',  ( -12.55065786131999594, 0.5000000000000000000, -2.100000000000000533 ) ) ;
#1013 = DIRECTION ( 'NONE',  ( 0.7071067811865430208, -0.000000000000000000, 0.7071067811865521247 ) ) ;
#1014 = ORIENTED_EDGE ( 'NONE', *, *, #634, .T. ) ;
#1015 = CYLINDRICAL_SURFACE ( 'NONE', #208, 0.5000000000000000000 ) ;
#1016 = CARTESIAN_POINT ( 'NONE',  ( -29.05065786131999772, 0.000000000000000000, -1.099999999999999867 ) ) ;
#1017 = ORIENTED_EDGE ( 'NONE', *, *, #1044, .F. ) ;
#1018 = LINE ( 'NONE', #376, #399 ) ;
#1019 = CARTESIAN_POINT ( 'NONE',  ( -19.36740919481999512, 3.200000000000000178, 2.500000000000000000 ) ) ;
#1020 = VECTOR ( 'NONE', #814, 1000.000000000000000 ) ;
#1021 = DIRECTION ( 'NONE',  ( 0.7071067811865505703, -0.000000000000000000, -0.7071067811865444641 ) ) ;
#1022 = VECTOR ( 'NONE', #107, 1000.000000000000000 ) ;
#1023 = ORIENTED_EDGE ( 'NONE', *, *, #429, .T. ) ;
#1024 = VECTOR ( 'NONE', #265, 1000.000000000000000 ) ;
#1025 = DIRECTION ( 'NONE',  ( 0.000000000000000000, 0.000000000000000000, -1.000000000000000000 ) ) ;
#1026 = LINE ( 'NONE', #764, #1126 ) ;
#1027 = EDGE_CURVE ( 'NONE', #661, #980, #1018, .T. ) ;
#1028 = B_SPLINE_SURFACE_WITH_KNOTS ( 'NONE', 2, 1, ( 
 ( #304, #116 ),
 ( #1057, #411 ),
 ( #316, #678 ) ),
 .UNSPECIFIED., .F., .F., .F.,
 ( 3, 3 ),
 ( 2, 2 ),
 ( 0.000000000000000000, 1.000000000000000000 ),
 ( 0.000000000000000000, 1.000000000000000000 ),
 .UNSPECIFIED. ) ;
#1029 = LINE ( 'NONE', #1103, #356 ) ;
#1030 = EDGE_LOOP ( 'NONE', ( #445, #251, #568, #841 ) ) ;
#1031 = DIRECTION ( 'NONE',  ( -1.000000000000000000, 0.000000000000000000, 0.000000000000000000 ) ) ;
#1032 = DIRECTION ( 'NONE',  ( 0.000000000000000000, -1.000000000000000000, 0.000000000000000000 ) ) ;
#1033 =( BOUNDED_CURVE ( )  B_SPLINE_CURVE ( 3, ( #209, #948, #865, #498 ),
 .UNSPECIFIED., .F., .T. ) 
 B_SPLINE_CURVE_WITH_KNOTS ( ( 4, 4 ),
 ( 3.481429563043918041, 4.712388980384689674 ),
 .UNSPECIFIED. ) 
 CURVE ( )  GEOMETRIC_REPRESENTATION_ITEM ( )  RATIONAL_B_SPLINE_CURVE ( ( 1.000000000000000000, 0.8776643872851512818, 0.8776643872851512818, 1.000000000000000000 ) ) 
 REPRESENTATION_ITEM ( '' )  );
#1034 = DIRECTION ( 'NONE',  ( 0.000000000000000000, -1.000000000000000000, 0.000000000000000000 ) ) ;
#1035 = ORIENTED_EDGE ( 'NONE', *, *, #1117, .F. ) ;
#1036 = DIRECTION ( 'NONE',  ( -1.734723475976807094E-15, 0.000000000000000000, -1.000000000000000000 ) ) ;
#1037 = DIRECTION ( 'NONE',  ( 0.000000000000000000, -1.000000000000000000, 0.000000000000000000 ) ) ;
#1038 = CARTESIAN_POINT ( 'NONE',  ( -30.13615781419466799, 3.200000000000000178, 2.000000000000000000 ) ) ;
#1039 = VECTOR ( 'NONE', #407, 1000.000000000000000 ) ;
#1040 = VECTOR ( 'NONE', #80, 1000.000000000000000 ) ;
#1041 = ORIENTED_EDGE ( 'NONE', *, *, #348, .T. ) ;
#1042 = CARTESIAN_POINT ( 'NONE',  ( -29.05065786131999772, 3.200000000000000178, -1.099999999999999867 ) ) ;
#1043 = CARTESIAN_POINT ( 'NONE',  ( -19.76740919481999725, 3.200000000000000178, 2.500000000000000000 ) ) ;
#1044 = EDGE_CURVE ( 'NONE', #171, #1202, #725, .T. ) ;
#1045 = CARTESIAN_POINT ( 'NONE',  ( -11.35065786131999666, 3.200000000000000178, -1.841073092111475347E-15 ) ) ;
#1046 = DIRECTION ( 'NONE',  ( 0.000000000000000000, 0.000000000000000000, -1.000000000000000000 ) ) ;
#1047 = EDGE_LOOP ( 'NONE', ( #890, #1166, #883, #1017 ) ) ;
#1048 = DIRECTION ( 'NONE',  ( 0.000000000000000000, 0.000000000000000000, -1.000000000000000000 ) ) ;
#1049 = CARTESIAN_POINT ( 'NONE',  ( -21.75065786131999701, 3.200000000000000178, -2.099999999999999645 ) ) ;
#1050 = ADVANCED_FACE ( 'NONE', ( #1113 ), #274, .F. ) ;
#1051 = CARTESIAN_POINT ( 'NONE',  ( -28.16487142369309282, 3.200000000000000178, -1.100000000000000089 ) ) ;
#1052 = DIRECTION ( 'NONE',  ( 0.000000000000000000, -1.000000000000000000, 0.000000000000000000 ) ) ;
#1053 = ORIENTED_EDGE ( 'NONE', *, *, #202, .F. ) ;
#1054 = CIRCLE ( 'NONE', #715, 1.000000000000000000 ) ;
#1055 = SURFACE_SIDE_STYLE ('',( #45 ) ) ;
#1056 = DIRECTION ( 'NONE',  ( -3.469446951953614189E-15, 0.000000000000000000, -1.000000000000000000 ) ) ;
#1057 = CARTESIAN_POINT ( 'NONE',  ( -30.15787457074687339, 3.200000000000000178, 0.7386608841796118430 ) ) ;
#1058 = COLOUR_RGB ( '',0.7921568627450980005, 0.8196078431372548767, 0.9333333333333333481 ) ;
#1059 = CARTESIAN_POINT ( 'NONE',  ( -18.04199545231976032, 3.191337590999764551, -1.710287430208817128 ) ) ;
#1060 = CARTESIAN_POINT ( 'NONE',  ( -28.16487142369309282, 0.000000000000000000, -2.100000000000000089 ) ) ;
#1061 = VECTOR ( 'NONE', #891, 1000.000000000000000 ) ;
#1062 = DIRECTION ( 'NONE',  ( 0.000000000000000000, 0.000000000000000000, -1.000000000000000000 ) ) ;
#1063 = ORIENTED_EDGE ( 'NONE', *, *, #983, .F. ) ;
#1064 = CARTESIAN_POINT ( 'NONE',  ( -20.26740919481999725, 3.200000000000000178, 0.8000000000000090372 ) ) ;
#1065 = DIRECTION ( 'NONE',  ( 0.000000000000000000, 0.000000000000000000, -1.000000000000000000 ) ) ;
#1066 = CARTESIAN_POINT ( 'NONE',  ( -12.33138259788453261, 2.919275263435462175, -2.100000000000000977 ) ) ;
#1067 = ORIENTED_EDGE ( 'NONE', *, *, #308, .F. ) ;
#1068 = CARTESIAN_POINT ( 'NONE',  ( -18.56740919481999441, 3.200000000000000178, -1.837226093735097718E-16 ) ) ;
#1069 = ADVANCED_FACE ( 'NONE', ( #454 ), #11, .F. ) ;
#1070 = CARTESIAN_POINT ( 'NONE',  ( -21.06740919481999441, 0.000000000000000000, 0.000000000000000000 ) ) ;
#1071 = VERTEX_POINT ( 'NONE', #1128 ) ;
#1072 = VERTEX_POINT ( 'NONE', #538 ) ;
#1073 = ORIENTED_EDGE ( 'NONE', *, *, #85, .F. ) ;
#1074 =( BOUNDED_CURVE ( )  B_SPLINE_CURVE ( 3, ( #834, #76, #97, #931 ),
 .UNSPECIFIED., .F., .T. ) 
 B_SPLINE_CURVE_WITH_KNOTS ( ( 4, 4 ),
 ( 0.3398369094541209834, 1.570796326794896558 ),
 .UNSPECIFIED. ) 
 CURVE ( )  GEOMETRIC_REPRESENTATION_ITEM ( )  RATIONAL_B_SPLINE_CURVE ( ( 1.000000000000000000, 0.8776643872851505046, 0.8776643872851505046, 1.000000000000000000 ) ) 
 REPRESENTATION_ITEM ( '' )  );
#1075 = VECTOR ( 'NONE', #990, 1000.000000000000000 ) ;
#1076 = VECTOR ( 'NONE', #577, 1000.000000000000000 ) ;
#1077 = EDGE_CURVE ( 'NONE', #597, #1091, #553, .T. ) ;
#1078 = DIRECTION ( 'NONE',  ( -0.000000000000000000, -1.000000000000000000, -0.000000000000000000 ) ) ;
#1079 = EDGE_CURVE ( 'NONE', #523, #58, #1121, .T. ) ;
#1080 = VERTEX_POINT ( 'NONE', #1012 ) ;
#1081 = EDGE_LOOP ( 'NONE', ( #996, #604, #1096, #923, #375, #170, #920, #1082, #247, #181, #1185, #140, #693, #938, #622, #452, #546, #167, #702, #574, #1014, #743, #105, #244, #736, #1109 ) ) ;
#1082 = ORIENTED_EDGE ( 'NONE', *, *, #1137, .T. ) ;
#1083 = EDGE_CURVE ( 'NONE', #379, #332, #151, .T. ) ;
#1084 = VECTOR ( 'NONE', #223, 1000.000000000000000 ) ;
#1085 =( BOUNDED_CURVE ( )  B_SPLINE_CURVE ( 3, ( #1204, #616, #732, #716 ),
 .UNSPECIFIED., .F., .F. ) 
 B_SPLINE_CURVE_WITH_KNOTS ( ( 4, 4 ),
 ( 3.481429563043918485, 4.712388980384689674 ),
 .UNSPECIFIED. ) 
 CURVE ( )  GEOMETRIC_REPRESENTATION_ITEM ( )  RATIONAL_B_SPLINE_CURVE ( ( 1.000000000000000000, 0.8776643872851513928, 0.8776643872851513928, 1.000000000000000000 ) ) 
 REPRESENTATION_ITEM ( '' )  );
#1086 = CARTESIAN_POINT ( 'NONE',  ( -10.55065786131999594, 3.200000000000000178, -2.281945939804522511E-15 ) ) ;
#1087 = ORIENTED_EDGE ( 'NONE', *, *, #858, .F. ) ;
#1088 = EDGE_CURVE ( 'NONE', #277, #27, #1085, .T. ) ;
#1089 = DIRECTION ( 'NONE',  ( -1.000000000000000000, 0.000000000000000000, 2.409338161078899674E-16 ) ) ;
#1090 = ORIENTED_EDGE ( 'NONE', *, *, #676, .F. ) ;
#1091 = VERTEX_POINT ( 'NONE', #96 ) ;
#1092 = LINE ( 'NONE', #522, #900 ) ;
#1093 = EDGE_LOOP ( 'NONE', ( #336, #55, #886, #60 ) ) ;
#1094 = DIRECTION ( 'NONE',  ( 1.000000000000000000, 0.000000000000000000, 0.000000000000000000 ) ) ;
#1095 = ORIENTED_EDGE ( 'NONE', *, *, #651, .T. ) ;
#1096 = ORIENTED_EDGE ( 'NONE', *, *, #202, .T. ) ;
#1097 = ORIENTED_EDGE ( 'NONE', *, *, #101, .F. ) ;
#1098 = LINE ( 'NONE', #194, #129 ) ;
#1099 = CARTESIAN_POINT ( 'NONE',  ( -21.75065786131999701, 3.200000000000000178, -1.599999999999999423 ) ) ;
#1100 = ORIENTED_EDGE ( 'NONE', *, *, #182, .F. ) ;
#1101 = LINE ( 'NONE', #734, #15 ) ;
#1102 = VECTOR ( 'NONE', #1078, 1000.000000000000000 ) ;
#1103 = CARTESIAN_POINT ( 'NONE',  ( -18.56740919481999441, 0.000000000000000000, -1.837226093735097718E-16 ) ) ;
#1104 = VERTEX_POINT ( 'NONE', #828 ) ;
#1105 = ORIENTED_EDGE ( 'NONE', *, *, #1088, .T. ) ;
#1106 = EDGE_CURVE ( 'NONE', #521, #1202, #440, .T. ) ;
#1107 = LINE ( 'NONE', #179, #724 ) ;
#1108 = PLANE ( 'NONE',  #398 ) ;
#1109 = ORIENTED_EDGE ( 'NONE', *, *, #215, .F. ) ;
#1110 = LINE ( 'NONE', #666, #1022 ) ;
#1111 = CARTESIAN_POINT ( 'NONE',  ( -27.29884601990865178, 0.000000000000000000, -1.599999999999998979 ) ) ;
#1112 = VERTEX_POINT ( 'NONE', #203 ) ;
#1113 = FACE_OUTER_BOUND ( 'NONE', #815, .T. ) ;
#1114 = DIRECTION ( 'NONE',  ( 0.000000000000000000, 0.000000000000000000, -1.000000000000000000 ) ) ;
#1115 = APPLICATION_CONTEXT ( 'automotive_design' ) ;
#1116 = LINE ( 'NONE', #542, #975 ) ;
#1117 = EDGE_CURVE ( 'NONE', #58, #618, #431, .T. ) ;
#1118 = ORIENTED_EDGE ( 'NONE', *, *, #59, .F. ) ;
#1119 = AXIS2_PLACEMENT_3D ( 'NONE', #1003, #169, #735 ) ;
#1120 = ADVANCED_FACE ( 'NONE', ( #777 ), #569, .F. ) ;
#1121 = LINE ( 'NONE', #929, #862 ) ;
#1122 = AXIS2_PLACEMENT_3D ( 'NONE', #8, #534, #911 ) ;
#1123 = CARTESIAN_POINT ( 'NONE',  ( -27.22206238211103013, 3.171404520791031523, -1.766666666666667052 ) ) ;
#1124 = EDGE_CURVE ( 'NONE', #603, #1112, #36, .T. ) ;
#1125 = DIRECTION ( 'NONE',  ( 0.000000000000000000, 0.000000000000000000, -1.000000000000000000 ) ) ;
#1126 = VECTOR ( 'NONE', #838, 1000.000000000000000 ) ;
#1127 = ORIENTED_EDGE ( 'NONE', *, *, #85, .T. ) ;
#1128 = CARTESIAN_POINT ( 'NONE',  ( -28.25141826616866325, 0.000000000000000000, 2.000000000000000000 ) ) ;
#1129 = ADVANCED_FACE ( 'NONE', ( #290 ), #944, .T. ) ;
#1130 = CARTESIAN_POINT ( 'NONE',  ( -21.75065786131999701, 2.700000000000000178, -2.099999999999999645 ) ) ;
#1131 = CARTESIAN_POINT ( 'NONE',  ( -18.05065786131999417, 0.5000000000000000000, -2.100000000000000089 ) ) ;
#1132 = ORIENTED_EDGE ( 'NONE', *, *, #1167, .T. ) ;
#1133 = DIRECTION ( 'NONE',  ( 0.000000000000000000, -0.000000000000000000, -1.000000000000000000 ) ) ;
#1134 = LINE ( 'NONE', #655, #700 ) ;
#1135 = PLANE ( 'NONE',  #966 ) ;
#1136 = ORIENTED_EDGE ( 'NONE', *, *, #987, .T. ) ;
#1137 = EDGE_CURVE ( 'NONE', #809, #502, #471, .T. ) ;
#1138 = DIRECTION ( 'NONE',  ( 0.000000000000000000, -1.000000000000000000, 0.000000000000000000 ) ) ;
#1139 = CARTESIAN_POINT ( 'NONE',  ( -27.22206238211103013, 0.02859547920896885961, -1.766666666666667052 ) ) ;
#1140 = VECTOR ( 'NONE', #936, 1000.000000000000000 ) ;
#1141 = DIRECTION ( 'NONE',  ( 1.445602896647339163E-16, -0.000000000000000000, 1.000000000000000000 ) ) ;
#1142 = VECTOR ( 'NONE', #1151, 1000.000000000000000 ) ;
#1143 = CARTESIAN_POINT ( 'NONE',  ( -27.14897062763253999, 3.098312766312542710, -1.973401367628909497 ) ) ;
#1144 = ORIENTED_EDGE ( 'NONE', *, *, #309, .F. ) ;
#1145 = DIRECTION ( 'NONE',  ( 0.000000000000000000, 0.000000000000000000, -1.000000000000000000 ) ) ;
#1146 = LINE ( 'NONE', #1049, #785 ) ;
#1147 = CLOSED_SHELL ( 'NONE', ( #517, #423, #881, #1173, #600, #1050, #1207, #551, #804, #230, #867, #341, #124, #1120, #642, #402, #1069, #99, #344, #1129, #54, #327, #766, #866, #479, #739, #312, #335, #511, #364, #779, #220, #183, #888, #462, #859 ) ) ;
#1148 = CARTESIAN_POINT ( 'NONE',  ( -12.05065786131999594, 3.200000000000000178, -2.100000000000000533 ) ) ;
#1149 = DIRECTION ( 'NONE',  ( -0.7071067811865430208, -0.000000000000000000, -0.7071067811865521247 ) ) ;
#1150 = VERTEX_POINT ( 'NONE', #40 ) ;
#1151 = DIRECTION ( 'NONE',  ( -0.000000000000000000, -1.000000000000000000, -0.000000000000000000 ) ) ;
#1152 = CARTESIAN_POINT ( 'NONE',  ( -20.26740919481999725, 0.000000000000000000, 0.8000000000000090372 ) ) ;
#1153 = EDGE_CURVE ( 'NONE', #525, #1071, #406, .T. ) ;
#1154 = FILL_AREA_STYLE ('',( #685 ) ) ;
#1155 = LINE ( 'NONE', #788, #976 ) ;
#1156 = LINE ( 'NONE', #955, #337 ) ;
#1157 = AXIS2_PLACEMENT_3D ( 'NONE', #324, #41, #403 ) ;
#1158 = VECTOR ( 'NONE', #367, 1000.000000000000000 ) ;
#1159 = LINE ( 'NONE', #33, #32 ) ;
#1160 = DIRECTION ( 'NONE',  ( -0.000000000000000000, 1.000000000000000000, 0.000000000000000000 ) ) ;
#1161 = CARTESIAN_POINT ( 'NONE',  ( -20.26740919481999725, 0.000000000000000000, 0.8000000000000090372 ) ) ;
#1162 = ORIENTED_EDGE ( 'NONE', *, *, #673, .T. ) ;
#1163 = CARTESIAN_POINT ( 'NONE',  ( -18.96487142369308998, 0.000000000000000000, -2.100000000000000089 ) ) ;
#1164 = EDGE_LOOP ( 'NONE', ( #1192, #820, #699, #412, #620, #1179 ) ) ;
#1165 = EDGE_LOOP ( 'NONE', ( #801, #712, #614, #421, #974, #1178 ) ) ;
#1166 = ORIENTED_EDGE ( 'NONE', *, *, #253, .T. ) ;
#1167 = EDGE_CURVE ( 'NONE', #1194, #58, #475, .T. ) ;
#1168 = CYLINDRICAL_SURFACE ( 'NONE', #382, 1.000000000000000000 ) ;
#1169 = CARTESIAN_POINT ( 'NONE',  ( -27.22206238211103013, 3.171404520791031523, -1.766666666666667052 ) ) ;
#1170 = ORIENTED_EDGE ( 'NONE', *, *, #215, .T. ) ;
#1171 = EDGE_CURVE ( 'NONE', #980, #112, #383, .T. ) ;
#1172 = ORIENTED_EDGE ( 'NONE', *, *, #380, .T. ) ;
#1173 = ADVANCED_FACE ( 'NONE', ( #106 ), #294, .F. ) ;
#1174 = AXIS2_PLACEMENT_3D ( 'NONE', #709, #922, #180 ) ;
#1175 = AXIS2_PLACEMENT_3D ( 'NONE', #638, #1025, #811 ) ;
#1176 = DIRECTION ( 'NONE',  ( -1.000000000000000000, 0.000000000000000000, 1.445602896647339656E-16 ) ) ;
#1177 = ORIENTED_EDGE ( 'NONE', *, *, #309, .T. ) ;
#1178 = ORIENTED_EDGE ( 'NONE', *, *, #599, .F. ) ;
#1179 = ORIENTED_EDGE ( 'NONE', *, *, #987, .F. ) ;
#1180 = ORIENTED_EDGE ( 'NONE', *, *, #1124, .F. ) ;
#1181 = DIRECTION ( 'NONE',  ( -0.000000000000000000, 1.000000000000000000, 0.000000000000000000 ) ) ;
#1182 = ORIENTED_EDGE ( 'NONE', *, *, #419, .F. ) ;
#1183 = DIRECTION ( 'NONE',  ( 0.000000000000000000, 0.000000000000000000, 1.000000000000000000 ) ) ;
#1184 = CARTESIAN_POINT ( 'NONE',  ( -21.23392897971682913, 3.200000000000000178, -1.654489066108239204 ) ) ;
#1185 = ORIENTED_EDGE ( 'NONE', *, *, #39, .F. ) ;
#1186 = VERTEX_POINT ( 'NONE', #211 ) ;
#1187 = CARTESIAN_POINT ( 'NONE',  ( -28.25141826616866325, 0.000000000000000000, 0.000000000000000000 ) ) ;
#1188 = LINE ( 'NONE', #89, #1075 ) ;
#1189 = ORIENTED_EDGE ( 'NONE', *, *, #422, .F. ) ;
#1190 = LINE ( 'NONE', #1009, #111 ) ;
#1191 = CARTESIAN_POINT ( 'NONE',  ( -17.55065786131999417, 2.700000000000000178, -2.100000000000000089 ) ) ;
#1192 = ORIENTED_EDGE ( 'NONE', *, *, #769, .T. ) ;
#1193 = VECTOR ( 'NONE', #184, 1000.000000000000000 ) ;
#1194 = VERTEX_POINT ( 'NONE', #19 ) ;
#1195 = CARTESIAN_POINT ( 'NONE',  ( -19.81740919481999441, 0.000000000000000000, 2.997493718553310149 ) ) ;
#1196 = AXIS2_PLACEMENT_3D ( 'NONE', #192, #98, #835 ) ;
#1197 = CARTESIAN_POINT ( 'NONE',  ( -29.05065786131999772, 3.200000000000000178, -1.099999999999999867 ) ) ;
#1198 = ORIENTED_EDGE ( 'NONE', *, *, #95, .T. ) ;
#1199 = CARTESIAN_POINT ( 'NONE',  ( -19.36740919481999512, 3.200000000000000178, 0.7999999999999951594 ) ) ;
#1200 = CIRCLE ( 'NONE', #647, 1.000000000000000000 ) ;
#1201 = CARTESIAN_POINT ( 'NONE',  ( -21.35234509500745403, 0.1016872336874567462, -1.973401367628909497 ) ) ;
#1202 = VERTEX_POINT ( 'NONE', #658 ) ;
#1203 = EDGE_CURVE ( 'NONE', #362, #201, #389, .T. ) ;
#1204 = CARTESIAN_POINT ( 'NONE',  ( -27.22206238211103013, 0.02859547920896885961, -1.766666666666667052 ) ) ;
#1205 = VECTOR ( 'NONE', #1089, 1000.000000000000000 ) ;
#1206 = CARTESIAN_POINT ( 'NONE',  ( -17.94897062763253714, 3.098312766312542710, -1.973401367628909719 ) ) ;
#1207 = ADVANCED_FACE ( 'NONE', ( #654 ), #482, .F. ) ;
ENDSEC;
END-ISO-10303-21;
